<svg width="1440" height="683" viewBox="0 0 1440 683" fill="none" xmlns="http://www.w3.org/2000/svg">
<path d="M1454.57 233.537H1443.74C1441.5 233.537 1439.68 235.355 1439.68 237.598V515.088C1439.68 518.172 1437.18 520.673 1434.09 520.673C1431.01 520.673 1428.51 518.172 1428.51 515.088V336.569C1428.51 331.046 1424.03 326.569 1418.51 326.569H1408.05C1402.53 326.569 1398.05 331.046 1398.05 336.569V350.26C1398.05 355.782 1393.57 360.26 1388.05 360.26H1323.06C1318.31 360.26 1314.45 364.116 1314.45 368.874V374.103C1314.45 375.972 1312.94 377.488 1311.07 377.488C1309.2 377.488 1307.68 379.003 1307.68 380.872V443.851C1307.68 448.43 1303.97 452.143 1299.39 452.143C1294.81 452.143 1291.1 455.855 1291.1 460.435V503.781C1291.1 509.304 1286.62 513.781 1281.1 513.781H1280.11C1274.59 513.781 1270.11 518.259 1270.11 523.781V585.479C1270.11 587.536 1268.45 589.202 1266.39 589.202C1264.33 589.202 1262.67 587.536 1262.67 585.479V237.349C1262.67 235.667 1261.3 234.303 1259.62 234.303C1257.94 234.303 1256.57 232.939 1256.57 231.257V199.733C1256.57 196.835 1254.23 194.487 1251.33 194.487C1248.43 194.487 1246.08 192.138 1246.08 189.241V158.607C1246.08 156.644 1244.49 155.053 1242.53 155.053C1240.57 155.053 1238.98 153.462 1238.98 151.499V125.62C1238.98 120.097 1234.5 115.62 1228.98 115.62H1203.62C1198.1 115.62 1193.62 120.097 1193.62 125.62V151.499C1193.62 153.462 1192.03 155.053 1190.07 155.053C1188.11 155.053 1186.51 156.644 1186.51 158.607V189.241C1186.51 192.138 1184.17 194.487 1181.27 194.487C1178.37 194.487 1176.02 196.835 1176.02 199.733V231.382C1176.02 232.783 1174.89 233.92 1173.48 233.92C1172.08 233.92 1170.95 235.056 1170.95 236.458V474.168C1170.95 477.439 1168.29 480.091 1165.02 480.091C1161.75 480.091 1159.1 482.743 1159.1 486.014V581.926C1159.1 585.944 1155.84 589.202 1151.82 589.202H1145.31C1144.89 589.202 1144.55 588.859 1144.55 588.437C1144.55 588.014 1144.2 587.671 1143.78 587.671H1141.83C1141.09 587.671 1140.49 587.071 1140.49 586.331C1140.49 585.591 1141.09 584.991 1141.83 584.991H1142.63C1143.69 584.991 1144.55 584.134 1144.55 583.077C1144.55 582.02 1143.69 581.163 1142.63 581.163H1142.02C1141.17 581.163 1140.49 580.477 1140.49 579.631C1140.49 578.785 1141.17 578.1 1142.02 578.1H1142.63C1143.69 578.1 1144.55 577.243 1144.55 576.186C1144.55 575.128 1143.69 574.271 1142.63 574.271H1141.83C1141.09 574.271 1140.49 573.671 1140.49 572.931C1140.49 572.191 1141.09 571.591 1141.83 571.591H1142.63C1143.69 571.591 1144.55 570.734 1144.55 569.677C1144.55 568.62 1143.69 567.763 1142.63 567.763H1141.83C1141.09 567.763 1140.49 567.163 1140.49 566.423C1140.49 565.683 1141.09 565.083 1141.83 565.083H1142.63C1143.69 565.083 1144.55 564.226 1144.55 563.169C1144.55 562.112 1143.69 561.255 1142.63 561.255H1141.83C1141.09 561.255 1140.49 560.655 1140.49 559.914C1140.49 559.174 1141.09 558.575 1141.83 558.575H1142.63C1143.69 558.575 1144.55 557.717 1144.55 556.66C1144.55 555.603 1143.69 554.746 1142.63 554.746H1141.83C1141.09 554.746 1140.49 554.146 1140.49 553.406C1140.49 552.666 1141.09 552.066 1141.83 552.066H1142.63C1143.69 552.066 1144.55 551.209 1144.55 550.152C1144.55 549.095 1143.69 548.238 1142.63 548.238H1141.83C1141.09 548.238 1140.49 547.638 1140.49 546.898C1140.49 546.158 1141.09 545.558 1141.83 545.558H1142.63C1143.69 545.558 1144.55 544.701 1144.55 543.643C1144.55 542.586 1143.69 541.729 1142.63 541.729H1141.83C1141.09 541.729 1140.49 541.129 1140.49 540.389C1140.49 539.649 1141.09 539.049 1141.83 539.049H1142.63C1143.69 539.049 1144.55 538.192 1144.55 537.135C1144.55 536.078 1143.69 535.221 1142.63 535.221H1141.83C1141.09 535.221 1140.49 534.621 1140.49 533.881C1140.49 533.141 1141.09 532.541 1141.83 532.541H1142.63C1143.69 532.541 1144.55 531.684 1144.55 530.627C1144.55 529.57 1143.69 528.712 1142.63 528.712H1141.83C1141.09 528.712 1140.49 528.113 1140.49 527.372C1140.49 526.632 1141.09 526.032 1141.83 526.032H1142.63C1143.69 526.032 1144.55 525.175 1144.55 524.118C1144.55 523.061 1143.69 522.204 1142.63 522.204H1142.52C1141.39 522.204 1140.49 521.295 1140.49 520.173V518.875C1140.49 517.753 1141.39 516.844 1142.52 516.844H1142.63C1143.69 516.844 1144.55 515.987 1144.55 514.93C1144.55 513.873 1143.69 513.016 1142.63 513.016H1141.83C1141.09 513.016 1140.49 512.416 1140.49 511.676C1140.49 510.936 1141.09 510.336 1141.83 510.336H1142.63C1143.69 510.336 1144.55 509.479 1144.55 508.422C1144.55 507.364 1143.69 506.507 1142.63 506.507H1141.83C1141.09 506.507 1140.49 505.907 1140.49 505.167C1140.49 504.427 1141.09 503.827 1141.83 503.827H1142.63C1143.69 503.827 1144.55 502.97 1144.55 501.913C1144.55 500.856 1143.69 499.999 1142.63 499.999H1141.83C1141.09 499.999 1140.49 499.399 1140.49 498.659C1140.49 497.919 1141.09 497.319 1141.83 497.319H1142.63C1143.69 497.319 1144.55 496.462 1144.55 495.405C1144.55 494.347 1143.69 493.49 1142.63 493.49H1141.83C1141.09 493.49 1140.49 492.891 1140.49 492.15C1140.49 491.41 1141.09 490.811 1141.83 490.811H1142.63C1143.69 490.811 1144.55 489.953 1144.55 488.896C1144.55 487.839 1143.69 486.982 1142.63 486.982H1141.83C1141.09 486.982 1140.49 486.382 1140.49 485.642C1140.49 484.902 1141.09 484.302 1141.83 484.302H1142.63C1143.69 484.302 1144.55 483.445 1144.55 482.388C1144.55 481.331 1143.69 480.474 1142.63 480.474H1141.83C1141.09 480.474 1140.49 479.874 1140.49 479.134C1140.49 478.394 1141.09 477.794 1141.83 477.794H1142.63C1143.69 477.794 1144.55 476.937 1144.55 475.879C1144.55 474.822 1143.69 473.965 1142.63 473.965H1141.83C1141.09 473.965 1140.49 473.365 1140.49 472.625C1140.49 471.885 1141.09 471.285 1141.83 471.285H1142.63C1143.69 471.285 1144.55 470.428 1144.55 469.371C1144.55 468.314 1143.69 467.457 1142.63 467.457H1141.83C1141.09 467.457 1140.49 466.857 1140.49 466.117C1140.49 465.377 1141.09 464.777 1141.83 464.777H1142.63C1143.69 464.777 1144.55 463.92 1144.55 462.863C1144.55 461.805 1143.69 460.948 1142.63 460.948H1141.83C1141.09 460.948 1140.49 460.349 1140.49 459.608C1140.49 458.868 1141.09 458.268 1141.83 458.268H1142.63C1143.69 458.268 1144.55 457.411 1144.55 456.354C1144.55 455.297 1143.69 454.44 1142.63 454.44H1141.83C1141.09 454.44 1140.49 453.84 1140.49 453.1C1140.49 452.36 1141.09 451.76 1141.83 451.76H1142.63C1143.69 451.76 1144.55 450.903 1144.55 449.846C1144.55 448.789 1143.69 447.932 1142.63 447.932H1141.83C1141.09 447.932 1140.49 447.332 1140.49 446.592C1140.49 445.852 1141.09 445.252 1141.83 445.252H1142.63C1143.69 445.252 1144.55 444.395 1144.55 443.337C1144.55 442.28 1143.69 441.423 1142.63 441.423H1141.83C1141.09 441.423 1140.49 440.823 1140.49 440.083C1140.49 439.343 1141.09 438.743 1141.83 438.743H1142.63C1143.69 438.743 1144.55 437.886 1144.55 436.829C1144.55 435.772 1143.69 434.915 1142.63 434.915H1142.52C1141.39 434.915 1140.49 434.006 1140.49 432.884V430.82C1140.49 429.698 1141.39 428.789 1142.52 428.789H1142.63C1143.69 428.789 1144.55 427.932 1144.55 426.875C1144.55 425.818 1143.69 424.961 1142.63 424.961H1141.83C1141.09 424.961 1140.49 424.361 1140.49 423.621C1140.49 422.881 1141.09 422.281 1141.83 422.281H1142.63C1143.69 422.281 1144.55 421.424 1144.55 420.367C1144.55 419.309 1143.69 418.452 1142.63 418.452H1141.83C1141.09 418.452 1140.49 417.852 1140.49 417.112C1140.49 416.372 1141.09 415.772 1141.83 415.772H1142.63C1143.69 415.772 1144.55 414.915 1144.55 413.858C1144.55 412.801 1143.69 411.944 1142.63 411.944H1141.83C1141.09 411.944 1140.49 411.344 1140.49 410.604C1140.49 409.864 1141.09 409.264 1141.83 409.264H1142.63C1143.69 409.264 1144.55 408.407 1144.55 407.35C1144.55 406.293 1143.69 405.436 1142.63 405.436H1142.52C1141.39 405.436 1140.49 404.526 1140.49 403.405V400.45C1140.49 399.609 1139.8 398.927 1138.96 398.927C1138.12 398.927 1137.44 398.245 1137.44 397.404V394.566C1137.44 392.323 1135.62 390.504 1133.38 390.504C1131.13 390.504 1129.32 388.686 1129.32 386.443V373.26C1129.32 371.577 1127.95 370.214 1126.27 370.214C1124.59 370.214 1123.22 368.85 1123.22 367.168V352.395C1123.22 347.795 1120.09 343.788 1115.62 342.686L1104.61 339.969C1102.02 339.292 1100.21 336.951 1100.21 334.273V297.891C1100.21 297.237 1099.68 296.707 1099.02 296.707C1098.37 296.707 1097.84 297.237 1097.84 297.891V334.593C1097.84 336.541 1096 337.965 1094.12 337.48C1092.23 336.995 1090.39 338.42 1090.39 340.367V367.675C1090.39 369.077 1089.26 370.214 1087.86 370.214C1086.45 370.214 1085.32 371.35 1085.32 372.752V386.443C1085.32 388.686 1083.5 390.504 1081.26 390.504H1080.83C1078.82 390.504 1077.19 392.133 1077.19 394.142V396.256C1077.19 397.097 1076.51 397.779 1075.67 397.779C1074.83 397.779 1074.15 398.46 1074.15 399.302V401.033C1074.15 402.83 1072.69 404.287 1070.89 404.287H1041.5C1035.98 404.287 1031.5 408.764 1031.5 414.287V436.783C1031.5 442.306 1027.03 446.783 1021.5 446.783H997.056C995.667 446.783 994.294 447.072 993.024 447.632L962.797 460.948C961.767 461.415 961.105 462.441 961.105 463.572V477.383C961.105 478.879 962.318 480.091 963.813 480.091H964.223C965.492 480.091 966.52 481.119 966.52 482.388C966.52 483.657 965.492 484.685 964.223 484.685H963.402C962.134 484.685 961.105 485.713 961.105 486.982C961.105 488.251 962.134 489.279 963.402 489.279H964.223C965.492 489.279 966.52 490.308 966.52 491.576C966.52 492.845 965.492 493.873 964.223 493.873H963.402C962.134 493.873 961.105 494.902 961.105 496.17C961.105 497.439 962.134 498.467 963.402 498.467H964.223C965.492 498.467 966.52 499.496 966.52 500.765C966.52 502.033 965.492 503.062 964.223 503.062H963.402C962.134 503.062 961.105 504.09 961.105 505.359C961.105 506.627 962.134 507.656 963.402 507.656H964.223C965.492 507.656 966.52 508.684 966.52 509.953C966.52 511.222 965.492 512.25 964.223 512.25H963.402C962.134 512.25 961.105 513.278 961.105 514.547C961.105 515.816 962.134 516.844 963.402 516.844H964.798C965.749 516.844 966.52 517.615 966.52 518.567C966.52 519.518 965.749 520.29 964.798 520.29H934.506C930.183 520.29 926.35 517.512 925.003 513.404L916.812 488.409C915.516 484.452 909.916 484.459 908.628 488.418C907.093 493.138 899.827 491.938 899.837 486.975C899.845 483.021 899.845 479.067 899.845 475.114C899.845 469.754 899.845 464.394 899.845 459.034C899.845 443.72 899.845 428.406 899.507 413.092C899.507 406.584 899.168 399.693 899.168 393.184C898.83 379.019 898.491 364.854 897.814 350.306C897.476 343.414 897.476 336.523 897.137 329.632C896.461 316.232 896.122 303.215 895.445 289.816C895.445 288.284 895.107 286.753 895.107 285.221C894.43 273.353 893.753 261.868 893.076 249.999C891.722 228.56 890.03 207.121 888.338 185.681C888.191 183.363 887.982 180.974 887.763 178.574C887.285 173.318 882.874 169.219 877.595 169.219H814.711C809.613 169.219 805.144 173.048 805.082 178.145C805.08 178.359 805.078 178.573 805.078 178.79C804.74 183.384 804.401 187.978 804.063 192.572C803.724 196.401 803.386 200.612 803.047 204.441C802.371 211.715 802.032 218.989 801.355 226.263C801.017 229.709 801.017 232.771 800.678 236.217C800.34 242.342 800.001 248.468 799.325 254.594C798.986 257.274 798.986 259.953 798.986 262.251C798.648 270.29 797.971 278.33 797.632 285.987C797.632 288.667 797.294 291.347 797.294 294.027C796.955 302.45 796.617 310.489 796.278 318.912C796.278 320.826 795.94 322.358 795.94 324.272C795.602 331.929 795.263 339.969 794.925 347.626C794.925 349.157 794.925 350.688 794.925 352.22C794.586 361.025 794.248 369.831 794.248 378.636C794.248 380.55 794.248 382.082 794.248 383.996C793.909 393.184 793.909 402.373 793.571 411.178V412.327C793.571 421.515 793.233 430.703 793.233 439.509C793.233 440.658 793.233 441.806 793.233 442.955C793.233 452.143 793.233 461.331 793.233 470.52C793.233 471.668 793.233 473.2 793.233 474.348C793.233 477.387 793.233 480.425 793.233 483.534C793.233 487.552 789.975 490.811 785.956 490.811C781.937 490.811 778.679 494.068 778.679 498.087V592.057C778.679 596.824 774.815 600.688 770.048 600.688H762.375C761.846 600.688 761.418 600.259 761.418 599.731C761.418 599.202 761.846 598.773 762.375 598.773H762.941C763.782 598.773 764.464 598.092 764.464 597.25V596.085C764.464 595.244 763.782 594.562 762.941 594.562C762.1 594.562 761.418 593.88 761.418 593.039V591.108C761.418 590.267 762.1 589.585 762.941 589.585C763.782 589.585 764.464 588.903 764.464 588.062V586.897C764.464 586.056 763.782 585.374 762.941 585.374C762.1 585.374 761.418 584.692 761.418 583.851V581.537C761.418 580.696 762.1 580.014 762.941 580.014C763.782 580.014 764.464 579.332 764.464 578.491V577.326C764.464 576.485 763.782 575.803 762.941 575.803C762.1 575.803 761.418 575.121 761.418 574.28V571.966C761.418 571.125 762.1 570.443 762.941 570.443C763.782 570.443 764.464 569.761 764.464 568.92V567.755C764.464 566.913 763.782 566.232 762.941 566.232C762.1 566.232 761.418 565.55 761.418 564.708V562.395C761.418 561.554 762.1 560.872 762.941 560.872C763.782 560.872 764.464 560.19 764.464 559.349V558.183C764.464 557.342 763.782 556.66 762.941 556.66C762.1 556.66 761.418 555.978 761.418 555.137V552.824C761.418 551.982 762.1 551.3 762.941 551.3C763.782 551.3 764.464 550.619 764.464 549.777V548.612C764.464 547.771 763.782 547.089 762.941 547.089C762.1 547.089 761.418 546.407 761.418 545.566V543.252C761.418 542.411 762.1 541.729 762.941 541.729C763.782 541.729 764.464 541.047 764.464 540.206V539.041C764.464 538.2 763.782 537.518 762.941 537.518C762.1 537.518 761.418 536.836 761.418 535.995V533.681C761.418 532.84 762.1 532.158 762.941 532.158C763.782 532.158 764.464 531.476 764.464 530.635V529.47C764.464 528.629 763.782 527.947 762.941 527.947C762.1 527.947 761.418 527.265 761.418 526.424V524.11C761.418 523.269 762.1 522.587 762.941 522.587C763.782 522.587 764.464 521.905 764.464 521.064V519.899C764.464 519.057 763.782 518.376 762.941 518.376C762.1 518.376 761.418 517.694 761.418 516.852V514.539C761.418 513.698 762.1 513.016 762.941 513.016C763.782 513.016 764.464 512.334 764.464 511.493V510.327C764.464 509.486 763.782 508.804 762.941 508.804C762.1 508.804 761.418 508.122 761.418 507.281V504.968C761.418 504.126 762.1 503.444 762.941 503.444C763.782 503.444 764.464 502.763 764.464 501.921V499.225C764.464 498.384 763.782 497.702 762.941 497.702C762.1 497.702 761.418 497.02 761.418 496.179V493.865C761.418 493.024 762.1 492.342 762.941 492.342C763.782 492.342 764.464 491.66 764.464 490.819V489.654C764.464 488.813 763.782 488.131 762.941 488.131C762.1 488.131 761.418 487.449 761.418 486.608V483.911C761.418 483.07 762.1 482.388 762.941 482.388C763.782 482.388 764.464 481.706 764.464 480.865V479.7C764.464 478.858 763.782 478.177 762.941 478.177C762.1 478.177 761.418 477.495 761.418 476.654V474.34C761.418 473.499 762.1 472.817 762.941 472.817C763.782 472.817 764.464 472.135 764.464 471.294V470.128C764.464 469.287 763.782 468.605 762.941 468.605C762.1 468.605 761.418 467.923 761.418 467.082V464.769C761.418 463.927 762.1 463.246 762.941 463.246C763.782 463.246 764.464 462.564 764.464 461.722V460.557C764.464 459.716 763.782 459.034 762.941 459.034C762.1 459.034 761.418 458.352 761.418 457.511V455.197C761.418 454.356 762.1 453.674 762.941 453.674C763.782 453.674 764.464 452.992 764.464 452.151V450.986C764.464 450.145 763.782 449.463 762.941 449.463C762.1 449.463 761.418 448.781 761.418 447.94V445.626C761.418 444.785 762.1 444.103 762.941 444.103C763.782 444.103 764.464 443.421 764.464 442.58V441.415C764.464 440.574 763.782 439.892 762.941 439.892C762.1 439.892 761.418 439.21 761.418 438.369V436.055C761.418 435.214 762.1 434.532 762.941 434.532C763.782 434.532 764.464 433.85 764.464 433.009V431.844C764.464 431.003 763.782 430.321 762.941 430.321C762.1 430.321 761.418 429.639 761.418 428.798V426.484C761.418 425.643 762.1 424.961 762.941 424.961C763.782 424.961 764.464 424.279 764.464 423.438V422.273C764.464 421.431 763.782 420.749 762.941 420.749C762.1 420.749 761.418 420.068 761.418 419.226V416.913C761.418 416.072 762.1 415.39 762.941 415.39C763.782 415.39 764.464 414.708 764.464 413.867V411.17C764.464 410.329 763.782 409.647 762.941 409.647C762.1 409.647 761.418 408.965 761.418 408.124V405.81C761.418 404.969 762.1 404.287 762.941 404.287C763.782 404.287 764.464 403.605 764.464 402.764V401.599C764.464 400.758 763.782 400.076 762.941 400.076C762.1 400.076 761.418 399.394 761.418 398.553V396.239C761.418 395.398 762.1 394.716 762.941 394.716C763.782 394.716 764.464 394.034 764.464 393.193V392.028C764.464 391.186 763.782 390.504 762.941 390.504C762.1 390.504 761.418 389.823 761.418 388.981V386.668C761.418 385.827 762.1 385.145 762.941 385.145C763.782 385.145 764.464 384.463 764.464 383.622V382.456C764.464 381.615 763.782 380.933 762.941 380.933C762.1 380.933 761.418 380.251 761.418 379.41V372.885C761.418 372.044 762.1 371.362 762.941 371.362C763.782 371.362 764.464 370.68 764.464 369.839V368.491C764.464 366.905 763.178 365.619 761.593 365.619H757.329C755.849 365.619 754.649 364.42 754.649 362.939V362.158C754.649 361.109 755.499 360.26 756.547 360.26C758.057 360.26 758.963 358.582 758.134 357.319L745.693 338.364C744.312 336.259 741.963 334.992 739.446 334.992C735.318 334.992 731.972 331.646 731.972 327.518V326.569C731.972 325.758 731.295 324.763 731.295 323.951V301.72C731.295 301.066 730.765 300.535 730.111 300.535C729.457 300.535 728.926 301.066 728.926 301.72V324.005C728.926 324.787 728.25 325.787 728.25 326.569V327.518C728.25 331.646 724.904 334.992 720.776 334.992C718.258 334.992 715.91 336.259 714.528 338.364L701.484 358.238C700.915 359.106 701.537 360.26 702.576 360.26C703.296 360.26 703.881 360.844 703.881 361.565V362.939C703.881 364.42 702.681 365.619 701.201 365.619H696.937C695.351 365.619 694.066 366.905 694.066 368.491V369.501C694.066 370.529 694.899 371.362 695.927 371.362C696.955 371.362 697.789 372.196 697.789 373.224V379.072C697.789 380.1 696.955 380.933 695.927 380.933C694.899 380.933 694.066 381.767 694.066 382.795V383.283C694.066 384.311 694.899 385.145 695.927 385.145C696.955 385.145 697.789 385.978 697.789 387.006V388.643C697.789 389.671 696.955 390.504 695.927 390.504C694.899 390.504 694.066 391.338 694.066 392.366V392.854C694.066 393.882 694.899 394.716 695.927 394.716C696.955 394.716 697.789 395.549 697.789 396.577V398.214C697.789 399.242 696.955 400.076 695.927 400.076C694.899 400.076 694.066 400.909 694.066 401.937V402.426C694.066 403.454 694.899 404.287 695.927 404.287C696.955 404.287 697.789 405.12 697.789 406.149V407.785C697.789 408.813 696.955 409.647 695.927 409.647C694.899 409.647 694.066 410.48 694.066 411.508V411.997C694.066 413.025 694.899 413.858 695.927 413.858C696.955 413.858 697.789 414.692 697.789 415.72V417.357C697.789 418.385 696.955 419.218 695.927 419.218C694.899 419.218 694.066 420.051 694.066 421.08V421.568C694.066 422.596 694.899 423.429 695.927 423.429C696.955 423.429 697.789 424.263 697.789 425.291V426.928C697.789 427.956 696.955 428.789 695.927 428.789C694.899 428.789 694.066 429.623 694.066 430.651V431.139C694.066 432.167 694.899 433.001 695.927 433.001C696.955 433.001 697.789 433.834 697.789 434.862V436.499C697.789 437.527 696.955 438.36 695.927 438.36C694.899 438.36 694.066 439.194 694.066 440.222V440.71C694.066 441.738 694.899 442.572 695.927 442.572C696.955 442.572 697.789 443.405 697.789 444.433V446.07C697.789 447.098 696.955 447.932 695.927 447.932C694.899 447.932 694.066 448.765 694.066 449.793V450.281C694.066 451.31 694.899 452.143 695.927 452.143C696.955 452.143 697.789 452.976 697.789 454.004V455.641C697.789 456.669 696.955 457.503 695.927 457.503C694.899 457.503 694.066 458.336 694.066 459.364V459.853C694.066 460.881 694.899 461.714 695.927 461.714C696.955 461.714 697.789 462.548 697.789 463.576V465.212C697.789 466.241 696.955 467.074 695.927 467.074C694.899 467.074 694.066 467.907 694.066 468.935V469.424C694.066 470.452 694.899 471.285 695.927 471.285C696.955 471.285 697.789 472.119 697.789 473.147V474.784C697.789 475.812 696.955 476.645 695.927 476.645C694.899 476.645 694.066 477.479 694.066 478.507V478.995C694.066 480.023 694.899 480.856 695.927 480.856C696.955 480.856 697.789 481.69 697.789 482.718V484.355C697.789 485.383 696.955 486.216 695.927 486.216C694.899 486.216 694.066 487.05 694.066 488.078V488.566C694.066 489.594 694.899 490.428 695.927 490.428C696.955 490.428 697.789 491.261 697.789 492.289V493.926C697.789 494.954 696.955 495.788 695.927 495.788C694.899 495.788 694.066 496.621 694.066 497.649V498.137C694.066 499.165 694.899 499.999 695.927 499.999C696.955 499.999 697.789 500.832 697.789 501.86V503.497C697.789 504.525 696.955 505.359 695.927 505.359C694.899 505.359 694.066 506.192 694.066 507.22V507.709C694.066 508.737 694.899 509.57 695.927 509.57H697.214C697.532 509.57 697.789 509.827 697.789 510.144C697.789 510.461 697.532 510.719 697.214 510.719H680.089C677.341 510.719 675.112 508.49 675.112 505.742V501.53V496.17V491.959V486.599V482.388V477.028V472.817V467.457V463.246V457.886V453.674V448.314V444.103V438.743V434.532V429.172V424.961V419.601V415.39V410.03V405.818V400.459V396.247V391.27V387.059V381.699V377.488V372.128V367.916V362.557V358.345V353.368V349.157V343.797V339.586V334.226V330.015V324.655V320.443V315.084V310.872V305.512V301.301V295.941V291.73V286.37V282.159V276.799V272.587V267.228V263.016V257.656V253.445V248.085V243.874V238.514L674.914 229.092C674.829 225.06 672.33 221.473 668.578 219.996L659.049 216.248C655.386 214.806 651.421 217.507 651.421 221.444V223.507C651.421 225.452 649.844 227.029 647.898 227.029C645.929 227.029 644.342 225.413 644.377 223.444L644.852 196.831C644.933 192.291 641.945 188.266 637.575 187.03L616.243 180.997C610.128 179.268 603.973 183.606 603.544 189.946L600.314 237.748L599.976 243.108L599.637 247.32L599.299 252.679L598.96 256.891L598.622 262.251L598.283 266.462L597.945 271.822L597.607 276.033L597.268 281.393L596.93 285.604L596.591 290.964L596.253 295.175L595.914 300.535L595.576 304.747L595.237 310.106L594.899 314.318L594.56 319.678L594.222 323.889L593.884 329.249L593.545 333.46L593.207 338.82L592.868 343.031L592.793 344.221C592.625 346.889 591.394 349.379 589.377 351.134L586.861 353.324C584.857 355.068 583.629 357.538 583.448 360.189L583.391 361.025L583.053 365.237L582.715 370.596L582.376 374.808L582.038 380.168L581.699 384.379L581.361 389.739L581.022 393.95L580.684 398.927C580.684 399.984 579.827 400.841 578.77 400.841H551.085C545.562 400.841 541.085 405.319 541.085 410.841V456.468C541.085 459.365 538.736 461.714 535.839 461.714C532.942 461.714 530.593 464.063 530.593 466.96V586.306C530.593 590.232 527.411 593.414 523.485 593.414C519.56 593.414 516.378 590.232 516.378 586.306V114.499C516.378 113.004 515.166 111.791 513.67 111.791C512.175 111.791 510.963 110.579 510.963 109.084V65.5129C510.963 59.99 506.485 55.5129 500.963 55.5129H443.457C437.934 55.5129 433.457 59.99 433.457 65.5129V109.467C433.457 110.962 432.245 112.174 430.749 112.174C429.254 112.174 428.042 113.387 428.042 114.882V319.747C428.042 322.457 425.844 324.655 423.134 324.655H419.375C418.741 324.655 418.226 325.169 418.226 325.803V326.275C418.226 326.649 417.923 326.952 417.549 326.952C417.176 326.952 416.873 327.255 416.873 327.629V332.018C416.873 332.391 417.176 332.694 417.549 332.694C417.923 332.694 418.226 332.998 418.226 333.371V333.932C418.226 334.306 417.923 334.609 417.549 334.609C417.176 334.609 416.873 334.912 416.873 335.286V339.675C416.873 340.048 417.176 340.351 417.549 340.351C417.923 340.351 418.226 340.655 418.226 341.028V341.589C418.226 341.963 417.923 342.266 417.549 342.266C417.176 342.266 416.873 342.569 416.873 342.943V347.332C416.873 347.705 417.176 348.008 417.549 348.008C417.923 348.008 418.226 348.311 418.226 348.685V349.246C418.226 349.62 417.923 349.923 417.549 349.923C417.176 349.923 416.873 350.226 416.873 350.6V354.988C416.873 355.362 417.176 355.665 417.549 355.665C417.923 355.665 418.226 355.968 418.226 356.342V356.903C418.226 357.277 417.923 357.58 417.549 357.58C417.176 357.58 416.873 357.883 416.873 358.257V362.645C416.873 363.019 417.176 363.322 417.549 363.322C417.923 363.322 418.226 363.625 418.226 363.999V364.56C418.226 364.934 417.923 365.237 417.549 365.237C417.176 365.237 416.873 365.54 416.873 365.913V370.302C416.873 370.676 417.176 370.979 417.549 370.979C417.923 370.979 418.226 371.282 418.226 371.656V372.217C418.226 372.59 417.923 372.894 417.549 372.894C417.176 372.894 416.873 373.197 416.873 373.57V377.959C416.873 378.333 417.176 378.636 417.549 378.636C417.923 378.636 418.226 378.939 418.226 379.313V379.874C418.226 380.247 417.923 380.55 417.549 380.55C417.176 380.55 416.873 380.854 416.873 381.227V385.616C416.873 385.99 417.176 386.293 417.549 386.293C417.923 386.293 418.226 386.596 418.226 386.97V387.531C418.226 387.904 417.923 388.207 417.549 388.207C417.176 388.207 416.873 388.51 416.873 388.884V393.273C416.873 393.647 417.176 393.95 417.549 393.95C417.923 393.95 418.226 394.253 418.226 394.627V395.187C418.226 395.561 417.923 395.864 417.549 395.864C417.176 395.864 416.873 396.167 416.873 396.541V400.93C416.873 401.304 417.176 401.607 417.549 401.607C417.923 401.607 418.226 401.91 418.226 402.284V402.844C418.226 403.218 417.923 403.521 417.549 403.521C417.176 403.521 416.873 403.824 416.873 404.198V408.587C416.873 408.961 417.176 409.264 417.549 409.264C417.923 409.264 418.226 409.567 418.226 409.941V410.501C418.226 410.875 417.923 411.178 417.549 411.178C417.176 411.178 416.873 411.481 416.873 411.855V416.244C416.873 416.618 417.176 416.921 417.549 416.921C417.923 416.921 418.226 417.224 418.226 417.598V418.158C418.226 418.532 417.923 418.835 417.549 418.835C417.176 418.835 416.873 419.138 416.873 419.512V423.901C416.873 424.275 417.176 424.578 417.549 424.578C417.923 424.578 418.226 424.881 418.226 425.255V425.815C418.226 426.189 417.923 426.492 417.549 426.492C417.176 426.492 416.873 426.795 416.873 427.169V431.558C416.873 431.932 417.176 432.235 417.549 432.235C417.923 432.235 418.226 432.538 418.226 432.912V433.472C418.226 433.846 417.923 434.149 417.549 434.149C417.176 434.149 416.873 434.452 416.873 434.826V439.215C416.873 439.589 417.176 439.892 417.549 439.892C417.923 439.892 418.226 440.195 418.226 440.569V448.786C418.226 449.16 417.923 449.463 417.549 449.463C417.176 449.463 416.873 449.766 416.873 450.14V454.529C416.873 454.903 417.176 455.206 417.549 455.206C417.923 455.206 418.226 455.509 418.226 455.883V456.443C418.226 456.817 417.923 457.12 417.549 457.12C417.176 457.12 416.873 457.423 416.873 457.797V458.843C416.873 459.794 416.101 460.566 415.15 460.566H404.196C398.673 460.566 394.196 456.088 394.196 450.566V344.609C394.196 339.086 389.719 334.609 384.196 334.609H344.628C339.106 334.609 334.628 339.086 334.628 344.609V407.142C334.628 411.908 330.764 415.772 325.998 415.772H319.664C318.396 415.772 317.367 414.744 317.367 413.475C317.367 412.207 316.339 411.178 315.07 411.178H313.813C311.851 411.178 310.26 409.587 310.26 407.625V263.399V100.334C310.26 98.8384 309.047 97.6261 307.552 97.6261C306.057 97.6261 304.844 96.4139 304.844 94.9185V9.99999C304.844 4.47714 300.367 0 294.844 0H221.093C215.57 0 211.093 4.47715 211.093 10V94.9185C211.093 96.4139 209.881 97.6261 208.385 97.6261C206.89 97.6261 205.678 98.8383 205.678 100.334V506.585C205.678 510.137 202.799 513.016 199.247 513.016C195.696 513.016 192.817 510.137 192.817 506.585V359.157C192.817 353.634 188.339 349.157 182.817 349.157H180.14C174.617 349.157 170.14 344.68 170.14 339.157V280.139C170.14 278.083 168.473 276.416 166.417 276.416C164.361 276.416 162.694 274.749 162.694 272.693V253.491C162.694 247.968 158.217 243.491 152.694 243.491H67.0968C61.574 243.491 57.0968 247.968 57.0968 253.491V272.693C57.0968 274.749 55.4299 276.416 53.3738 276.416C51.3177 276.416 49.6509 278.083 49.6509 280.139V530.964C49.6509 536.486 45.1737 540.964 39.6509 540.964H35.2822C29.7594 540.964 25.2822 536.486 25.2822 530.964V379.831C25.2822 374.308 20.8051 369.831 15.2822 369.831H-54.4079C-59.9307 369.831 -64.4079 374.308 -64.4079 379.831V467.979C-64.4079 473.399 -68.8023 477.794 -74.223 477.794C-79.6437 477.794 -84.0381 482.188 -84.0381 487.609V576.94C-84.0381 580.118 -86.6142 582.694 -89.7919 582.694C-92.9696 582.694 -95.5457 580.118 -95.5457 576.94V280.244V274.957C-95.5457 273.648 -96.6064 272.587 -97.9148 272.587H-99.1354C-99.7698 272.587 -100.284 272.073 -100.284 271.439C-100.284 270.805 -99.7698 270.29 -99.1354 270.29H-97.9148C-96.6064 270.29 -95.5457 269.23 -95.5457 267.921V265.003C-95.5457 263.694 -96.6064 262.633 -97.9148 262.633H-99.1354C-99.7698 262.633 -100.284 262.119 -100.284 261.485C-100.284 260.851 -99.7698 260.336 -99.1354 260.336H-97.9148C-96.6064 260.336 -95.5457 259.276 -95.5457 257.967V255.049C-95.5457 253.74 -96.6064 252.679 -97.9148 252.679H-99.1354C-99.7698 252.679 -100.284 252.165 -100.284 251.531C-100.284 250.897 -99.7698 250.382 -99.1354 250.382H-97.9148C-96.6064 250.382 -95.5457 249.322 -95.5457 248.013V245.095C-95.5457 243.786 -96.6064 242.725 -97.9148 242.725H-99.5183C-99.9412 242.725 -100.284 242.383 -100.284 241.96C-100.284 241.537 -99.9412 241.194 -99.5183 241.194H-97.7455C-96.3436 241.194 -95.2072 240.057 -95.2072 238.656V236.075C-95.2072 234.673 -96.3436 233.537 -97.7456 233.537H-99.1354C-99.7698 233.537 -100.284 233.023 -100.284 232.388C-100.284 231.754 -99.7698 231.24 -99.1354 231.24H-97.7455C-96.3436 231.24 -95.2072 230.103 -95.2072 228.701V226.121C-95.2072 224.719 -96.3436 223.583 -97.7456 223.583H-99.1354C-99.7698 223.583 -100.284 223.069 -100.284 222.434C-100.284 221.8 -99.7698 221.286 -99.1354 221.286H-97.7455C-96.3436 221.286 -95.2072 220.149 -95.2072 218.747V216.167C-95.2072 214.765 -96.3436 213.629 -97.7456 213.629H-99.1354C-99.7698 213.629 -100.284 213.115 -100.284 212.48C-100.284 211.846 -99.7698 211.332 -99.1354 211.332H-97.7455C-96.3436 211.332 -95.2072 210.195 -95.2072 208.793V187.117C-95.2072 184.036 -96.6545 181.166 -98.8618 179.017C-109.024 169.122 -123.676 147.345 -123.976 117.151V116.386V115.051C-123.976 113.462 -125.264 112.174 -126.853 112.174H-127.624C-128.787 112.174 -129.729 113.117 -129.729 114.28C-129.729 115.443 -130.672 116.386 -131.835 116.386H-133.791C-136.034 116.386 -137.852 114.567 -137.852 112.324V51.2932C-137.852 50.4521 -138.534 49.7702 -139.375 49.7702C-140.216 49.7702 -140.898 50.4521 -140.898 51.2932V115.922C-140.898 116.39 -141.277 116.768 -141.745 116.768C-142.212 116.768 -142.591 116.39 -142.591 115.922V114.663C-142.591 113.5 -143.533 112.557 -144.696 112.557H-146.577C-147.74 112.557 -148.683 113.5 -148.683 114.663C-148.683 115.826 -149.625 116.768 -150.788 116.768H-157.408C-158.57 116.768 -159.513 115.826 -159.513 114.663C-159.513 113.5 -160.456 112.557 -161.619 112.557H-162.559C-164.242 112.557 -165.605 113.921 -165.605 115.603V116.768C-165.605 147.449 -173.217 169.519 -181.968 179.58C-184.028 181.948 -185.574 184.846 -185.574 187.985V204.271C-185.574 204.365 -185.498 204.441 -185.405 204.441C-185.311 204.441 -185.236 204.516 -185.236 204.61V209.051C-185.236 210.734 -183.872 212.098 -182.19 212.098H-180.292C-179.658 212.098 -179.143 212.612 -179.143 213.246C-179.143 213.88 -179.658 214.395 -180.292 214.395H-182.19C-183.872 214.395 -185.236 215.758 -185.236 217.441V219.005C-185.236 220.688 -183.872 222.052 -182.19 222.052H-180.292C-179.658 222.052 -179.143 222.566 -179.143 223.2C-179.143 223.834 -179.658 224.349 -180.292 224.349H-182.359C-184.135 224.349 -185.574 225.788 -185.574 227.564V228.79C-185.574 230.566 -184.135 232.006 -182.359 232.006H-179.909C-179.486 232.006 -179.143 232.348 -179.143 232.771C-179.143 233.194 -179.486 233.537 -179.909 233.537H-182.359C-184.135 233.537 -185.574 234.977 -185.574 236.752V237.979C-185.574 239.754 -184.135 241.194 -182.359 241.194H-180.292C-179.658 241.194 -179.143 241.708 -179.143 242.342C-179.143 242.977 -179.658 243.491 -180.292 243.491H-182.359C-184.135 243.491 -185.574 244.931 -185.574 246.706V247.933C-185.574 249.708 -184.135 251.148 -182.359 251.148H-180.292C-179.658 251.148 -179.143 251.662 -179.143 252.297C-179.143 252.931 -179.658 253.445 -180.292 253.445H-182.359C-184.135 253.445 -185.574 254.885 -185.574 256.66V257.887C-185.574 259.662 -184.135 261.102 -182.359 261.102H-180.292C-179.658 261.102 -179.143 261.616 -179.143 262.251C-179.143 262.885 -179.658 263.399 -180.292 263.399H-182.359C-184.135 263.399 -185.574 264.839 -185.574 266.614V267.841C-185.574 269.617 -184.135 271.056 -182.359 271.056H-180.292C-179.658 271.056 -179.143 271.57 -179.143 272.205C-179.143 272.839 -179.658 273.353 -180.292 273.353H-182.528C-184.397 273.353 -185.913 274.868 -185.913 276.738V429.267C-185.913 434.5 -190.155 438.743 -195.389 438.743C-200.623 438.743 -204.866 442.986 -204.866 448.22V515.044C-204.866 517.941 -207.215 520.29 -210.112 520.29C-213.009 520.29 -215.358 522.638 -215.358 525.536V586.532C-215.358 588.644 -217.819 589.683 -219.929 589.589C-220.069 589.583 -220.166 589.574 -220.305 589.552C-220.448 589.529 -220.592 589.506 -220.737 589.483C-224.657 588.864 -227.542 585.52 -227.542 581.552V441.108C-227.542 437.313 -229.69 433.846 -233.087 432.155L-235.701 430.854C-235.9 430.755 -236.12 430.703 -236.342 430.703H-236.517C-238.103 430.703 -239.388 429.418 -239.388 427.832V426.145C-239.388 425.491 -239.919 424.961 -240.573 424.961C-241.227 424.961 -241.757 425.491 -241.757 426.145V426.456C-241.757 427.11 -242.289 427.641 -242.944 427.641C-243.596 427.641 -244.127 428.169 -244.127 428.822C-244.127 429.448 -244.616 429.965 -245.241 430.001L-248.678 430.195C-249.882 430.263 -250.896 429.305 -250.896 428.099C-250.896 427.343 -251.303 426.645 -251.961 426.272L-252.722 425.842C-253.298 425.516 -253.953 425.355 -254.615 425.378L-274.023 426.033C-275.281 426.076 -276.28 427.108 -276.28 428.368C-276.28 429.658 -277.342 430.703 -278.632 430.703C-279.94 430.703 -281.018 431.764 -281.018 433.073V460.137C-281.018 465.66 -285.495 470.137 -291.018 470.137H-308.586C-314.109 470.137 -318.586 465.66 -318.586 460.137V279.284C-318.586 276.854 -320.556 274.885 -322.986 274.885C-325.416 274.885 -327.386 272.915 -327.386 270.485V235.497C-327.386 229.974 -331.863 225.497 -337.386 225.497H-351.677C-355.271 225.497 -358.185 222.583 -358.185 218.989C-358.185 215.394 -361.099 212.48 -364.694 212.48H-367.662C-372.896 212.48 -377.139 208.238 -377.139 203.004V201.424C-377.139 195.901 -381.616 191.424 -387.139 191.424H-443.968C-449.49 191.424 -453.968 195.901 -453.968 201.424V215.497C-453.968 221.02 -458.445 225.497 -463.968 225.497H-482.551C-488.074 225.497 -492.551 229.974 -492.551 235.497V568.1C-492.551 573.623 -497.028 578.1 -502.551 578.1H-503.535C-509.058 578.1 -513.535 582.577 -513.535 588.1V601.592C-513.535 607.013 -517.93 611.407 -523.35 611.407C-528.771 611.407 -533.166 607.013 -533.166 601.592V515.359C-533.166 509.836 -537.643 505.359 -543.166 505.359H-553.626C-559.149 505.359 -563.626 500.882 -563.626 495.359V470.908C-563.626 470.668 -563.756 470.447 -563.965 470.328C-564.174 470.21 -564.303 469.988 -564.303 469.748V465.634C-564.303 464.078 -564.774 462.558 -565.652 461.274L-570.678 453.931C-571.817 452.267 -572.426 450.299 -572.426 448.283V440.659C-572.426 439.671 -572.787 438.718 -573.441 437.978C-574.096 437.238 -574.457 436.284 -574.457 435.296V418.577C-574.457 418.297 -574.684 418.069 -574.965 418.069C-575.245 418.069 -575.472 418.297 -575.472 418.577V435.552C-575.472 436.375 -575.773 437.169 -576.318 437.786C-576.864 438.403 -577.164 439.198 -577.164 440.021V449.299C-577.164 451.158 -577.683 452.98 -578.661 454.561L-583.174 461.854C-583.892 463.014 -584.272 464.351 -584.272 465.715V468.099C-584.272 468.9 -584.648 469.655 -585.287 470.137C-585.927 470.619 -586.303 471.373 -586.303 472.174V473.451C-586.303 474.731 -586.936 475.927 -587.995 476.645L-588.299 476.851C-589.167 477.441 -589.687 478.422 -589.687 479.472C-589.687 480.57 -590.256 481.591 -591.191 482.167L-591.549 482.388C-592.706 483.102 -593.41 484.364 -593.41 485.724V521.947C-593.41 525.764 -596.722 528.739 -600.518 528.33C-603.882 528.33 -606.61 525.602 -606.61 522.237V450.275C-606.61 444.752 -611.087 440.275 -616.61 440.275H-638.24C-643.762 440.275 -648.24 444.752 -648.24 450.275V484.256C-648.24 489.779 -652.717 494.256 -658.24 494.256H-664.639C-670.162 494.256 -674.639 498.733 -674.639 504.256V528.943C-674.639 530.719 -676.079 532.158 -677.854 532.158C-679.63 532.158 -681.07 533.598 -681.07 535.373V579.007C-681.07 580.409 -682.206 581.545 -683.608 581.545C-685.01 581.545 -686.146 580.409 -686.146 579.007V560.045C-686.146 558.176 -687.662 556.66 -689.531 556.66C-691.4 556.66 -692.915 555.145 -692.915 553.276V357.243C-692.915 351.72 -697.393 347.243 -702.915 347.243H-750.791C-793.098 347.243 -827.281 380.933 -827.281 428.789V457.074C-827.281 462.597 -831.759 467.074 -837.281 467.074H-841.158C-853.342 467.074 -863.157 490.811 -863.157 503.827V550.106C-863.157 555.629 -867.635 560.106 -873.157 560.106H-889.033C-894.556 560.106 -899.033 555.629 -899.033 550.106V505.022C-899.033 499.499 -903.511 495.022 -909.033 495.022H-913.064C-918.586 495.022 -923.064 499.499 -923.064 505.022V605.396C-923.064 608.293 -925.412 610.642 -928.31 610.642C-931.207 610.642 -933.556 608.293 -933.556 605.396V549.2C-933.556 547.611 -934.844 546.323 -936.433 546.323C-938.021 546.323 -939.309 545.035 -939.309 543.447V505.022C-939.309 499.499 -943.787 495.022 -949.309 495.022H-950.632C-956.155 495.022 -960.632 490.545 -960.632 485.022V442.235C-960.632 436.712 -965.109 432.235 -970.632 432.235H-997C-1002.52 432.235 -1007 436.712 -1007 442.235V673C-1007 678.523 -1002.52 683 -997 683H1473C1478.52 683 1483 678.523 1483 673V243.537C1483 238.014 1478.52 233.537 1473 233.537H1454.57ZM1074.15 450.42C1074.15 451.16 1073.55 451.76 1072.81 451.76H1070.76C1070.58 451.76 1070.43 451.608 1070.43 451.421V450.42C1070.43 449.68 1071.03 449.08 1071.77 449.08H1072.81C1073.55 449.08 1074.15 449.68 1074.15 450.42ZM1074.15 443.912C1074.15 444.652 1073.55 445.252 1072.81 445.252H1071.77C1071.03 445.252 1070.43 444.652 1070.43 443.912C1070.43 443.172 1071.03 442.572 1071.77 442.572H1072.81C1073.55 442.572 1074.15 443.172 1074.15 443.912ZM1074.15 437.02C1074.15 437.761 1073.55 438.36 1072.81 438.36H1071.77C1071.03 438.36 1070.43 437.761 1070.43 437.02C1070.43 436.28 1071.03 435.681 1071.77 435.681H1072.81C1073.55 435.681 1074.15 436.28 1074.15 437.02ZM1074.15 430.129C1074.15 430.869 1073.55 431.469 1072.81 431.469H1071.77C1071.03 431.469 1070.43 430.869 1070.43 430.129C1070.43 429.389 1071.03 428.789 1071.77 428.789H1072.81C1073.55 428.789 1074.15 429.389 1074.15 430.129ZM1074.15 423.238C1074.15 423.978 1073.55 424.578 1072.81 424.578H1071.77C1071.03 424.578 1070.43 423.978 1070.43 423.238C1070.43 422.498 1071.03 421.898 1071.77 421.898H1072.81C1073.55 421.898 1074.15 422.498 1074.15 423.238ZM1074.15 416.347C1074.15 417.087 1073.55 417.687 1072.81 417.687H1071.77C1071.03 417.687 1070.43 417.087 1070.43 416.347C1070.43 415.607 1071.03 415.007 1071.77 415.007H1072.81C1073.55 415.007 1074.15 415.607 1074.15 416.347ZM1074.15 409.838C1074.15 410.578 1073.55 411.178 1072.81 411.178H1071.77C1071.03 411.178 1070.43 410.578 1070.43 409.838C1070.43 409.098 1071.03 408.498 1071.77 408.498H1072.81C1073.55 408.498 1074.15 409.098 1074.15 409.838Z" fill="url(#paint0_linear_67_539)"/>
<defs>
<linearGradient id="paint0_linear_67_539" x1="994" y1="-395.778" x2="994" y2="852.619" gradientUnits="userSpaceOnUse">
<stop stop-color="#C7C7C9"/>
<stop offset="1" stop-color="#F2F2F2"/>
</linearGradient>
</defs>
</svg>
