<svg width="695" height="612" viewBox="0 0 695 612" fill="none" xmlns="http://www.w3.org/2000/svg">
<g filter="url(#filter0_f_27_4846)">
<path d="M394.285 493.279C453.981 526.303 586.084 474.964 586.083 348.221C586.082 143.085 399.12 108.071 289.522 108.071C92.9791 108.071 20.8039 330.139 254.063 348.221C461.978 364.338 266.835 422.772 394.285 493.279Z" fill="#E5F0B0"/>
</g>
<mask id="mask0_27_4846" style="mask-type:alpha" maskUnits="userSpaceOnUse" x="108" y="108" width="479" height="396">
<path d="M394.231 493.279C453.928 526.303 586.03 474.964 586.03 348.221C586.029 143.085 399.067 108.071 289.468 108.071C92.9254 108.071 20.7502 330.139 254.01 348.221C461.925 364.338 266.782 422.772 394.231 493.279Z" fill="#BCD829"/>
</mask>
<g mask="url(#mask0_27_4846)">
<path opacity="0.7" d="M119.315 365.876C140.472 338.391 196.508 284.795 251.4 290.292C320.015 297.164 189.646 426 251.4 426C313.154 426 342.315 267.961 386.915 267.961C431.515 267.961 337.169 384.772 386.915 391.644C436.662 398.515 477.831 226.733 532.723 225.015C587.615 223.298 476.115 365.876 565.315 365.876" stroke="url(#paint0_linear_27_4846)" stroke-width="2"/>
<path d="M115.553 334.484C115.553 349.043 123.937 360.805 134.249 360.805H152.946C163.258 360.805 171.546 348.946 171.546 334.484C171.546 319.925 163.162 308.162 152.85 308.162C152.657 308.162 152.56 308.162 152.368 308.162H134.249C123.841 308.162 115.553 320.021 115.553 334.484Z" fill="#442B2B"/>
<path d="M262.047 334.193C262.047 348.752 270.431 360.514 280.743 360.514H299.44C309.752 360.514 318.04 348.655 318.04 334.193C318.04 319.634 309.656 307.871 299.344 307.871C299.151 307.871 299.055 307.871 298.862 307.871H280.743C270.335 307.871 262.047 319.634 262.047 334.193Z" fill="#402B2B"/>
<path d="M114.303 331.986L189.571 331.793L180.898 326.683L123.941 326.779L114.303 331.986Z" fill="#442B2B"/>
<path d="M43.2734 289.08L43.3698 337.385L104.471 337.289L123.939 326.779L180.896 326.683L198.436 337.096L322.76 336.807C324.783 336.807 326.422 335.168 326.422 333.143L326.325 288.502L43.2734 289.08Z" fill="#B7C67B"/>
<path d="M176.467 300.066L273.998 299.874L273.805 211.46C273.805 207.892 270.914 205 267.252 205L176.178 205.193L176.467 300.066Z" fill="#57AE09"/>
<path d="M24.3871 300.452L176.369 300.163L176.176 205.289L30.6514 205.578C27.0856 205.578 24.1943 208.471 24.1943 212.135L24.3871 300.452Z" fill="#BCD829"/>
<path d="M249.716 334.193C249.716 348.752 241.428 360.514 231.115 360.514H212.515V351.644C205.673 351.644 200.083 343.834 200.083 334.193C200.083 324.551 205.576 316.741 212.419 316.741V307.871H231.019C241.331 307.968 249.619 319.73 249.716 334.193Z" fill="#402B2B"/>
<path d="M197.09 334.393C197.09 346.348 203.933 355.99 212.414 355.894C220.895 355.894 227.641 346.252 227.641 334.296C227.641 322.341 220.798 312.699 212.317 312.796C203.933 312.796 197.09 322.437 197.09 334.393Z" fill="#4B2A2A"/>
<path opacity="0.32" d="M212.413 348.566C218.002 348.566 222.436 342.202 222.436 334.296C222.436 326.39 217.906 320.123 212.316 320.123C206.727 320.123 202.293 326.487 202.293 334.393C202.293 342.299 206.823 348.566 212.413 348.566ZM212.413 325.908C215.689 325.908 218.388 329.668 218.388 334.296C218.388 338.924 215.689 342.781 212.413 342.781C209.136 342.781 206.438 339.021 206.438 334.393C206.438 329.668 209.04 325.908 212.413 325.908Z" fill="#E14841"/>
<path d="M212.413 360.619C222.725 360.619 231.014 348.76 231.014 334.297C231.014 319.835 222.629 307.976 212.317 307.976C202.005 307.976 193.717 319.835 193.717 334.297C193.717 348.76 202.198 360.715 212.413 360.619ZM212.317 312.796C220.798 312.796 227.641 322.438 227.641 334.297C227.641 346.253 220.894 355.894 212.413 355.894C203.932 355.894 197.09 346.253 197.09 334.394C197.09 322.438 203.932 312.796 212.317 312.796Z" fill="#402B2B"/>
<path opacity="0.32" d="M209.812 334.297C209.812 332.272 210.969 330.729 212.318 330.729C213.667 330.729 214.824 332.369 214.92 334.297C214.92 336.322 213.764 337.864 212.415 337.864C210.969 337.961 209.812 336.322 209.812 334.297Z" fill="#E14841"/>
<path d="M338.563 262.176C338.563 262.562 338.852 262.851 339.142 262.947C339.913 263.14 342.804 263.14 343.671 262.851C344.057 262.755 344.442 262.465 344.442 261.983C344.731 254.27 344.731 246.749 344.442 239.615C344.442 239.133 344.057 238.843 343.671 238.747C342.707 238.458 339.334 238.265 338.274 238.651C337.889 238.747 337.6 239.133 337.6 239.518C337.407 246.846 337.696 254.366 338.563 262.176Z" fill="#DDDDDD"/>
<path d="M333.842 269.023C333.938 269.023 334.035 269.023 334.227 268.927L340.781 265.649C342.323 264.877 343.287 263.335 343.287 261.599L343.19 237.399C343.19 236.434 342.419 235.663 341.456 235.663H323.434C322.952 235.663 322.663 236.049 322.663 236.434C322.663 236.916 323.048 237.206 323.434 237.206H341.456C341.552 237.206 341.552 237.302 341.552 237.302L341.648 261.503C341.648 262.66 340.974 263.624 340.01 264.106L333.456 267.384C333.071 267.577 332.878 268.059 333.071 268.445C333.264 268.927 333.553 269.023 333.842 269.023Z" fill="#0B132A"/>
<path d="M189.568 299.873C189.568 299.873 192.074 299.873 195.929 299.873H211.253C222.721 299.873 225.42 305.562 232.455 319.542L254.717 319.446C254.717 319.446 254.717 317.807 254.717 315.011L339.719 314.818C340.105 307.779 340.876 293.51 340.876 280.012C340.876 279.529 340.876 279.144 340.876 278.662C340.876 274.805 340.201 270.563 339.045 266.32C334.515 249.737 323.047 232.093 318.324 225.633C316.782 223.512 315.433 221.68 314.277 220.041C311 215.702 308.783 213.484 304.639 213.484L201.615 213.774C199.495 213.774 197.568 215.22 196.989 217.245C188.123 249.833 189.472 274.612 189.568 299.873ZM276.402 225.247C276.305 224.765 276.691 224.379 277.173 224.379L308.494 224.283C310.325 224.283 312.156 225.247 313.313 226.886C325.552 243.566 330.467 258.8 332.299 267.574L334.226 276.83C334.515 278.18 333.648 279.24 332.299 279.24H324.685C323.432 279.24 322.083 278.662 321.119 277.698L305.507 262.753C303.772 261.114 301.459 260.15 299.242 260.15H280.546L276.402 225.247Z" fill="#CD2827"/>
<path d="M260.213 266.61C260.888 269.695 261.659 272.877 262.333 276.251C262.815 278.565 264.839 280.205 267.152 280.301C297.606 281.362 322.856 281.458 340.878 280.108C340.878 279.626 340.878 279.24 340.878 278.758C340.878 274.902 340.203 270.659 339.047 266.417L260.213 266.61Z" fill="#58AF0A"/>
<path opacity="0.75" d="M203.931 224.479L235.253 224.383C237.084 224.383 238.722 225.347 239.59 226.986C248.36 243.666 250.191 258.9 250.191 267.674V276.93C250.191 278.279 249.131 279.34 247.782 279.34H240.168C238.915 279.34 237.662 278.762 236.891 277.797L224.363 262.853C222.917 261.214 220.893 260.153 218.677 260.25H199.98L202.968 225.347C202.968 224.865 203.353 224.479 203.931 224.479Z" fill="#402B2B"/>
<path d="M189.568 299.873C189.568 299.873 192.074 299.873 195.929 299.873H211.253C222.721 299.873 225.42 305.562 232.455 319.542L254.717 319.446C254.717 319.446 254.717 317.807 254.717 315.011L339.719 314.818C340.105 307.779 340.876 293.51 340.876 280.012C322.854 281.361 297.508 281.361 267.15 280.204C264.837 280.108 262.813 278.469 262.331 276.155C261.656 272.78 260.885 269.502 260.211 266.513C256.067 248.869 251.537 236.239 245.562 222.547C245.08 221.487 245.851 220.234 247.007 220.234L314.277 220.041C311 215.702 308.783 213.484 304.639 213.484L201.615 213.774C199.495 213.774 197.568 215.22 196.989 217.245C188.123 249.833 189.472 274.612 189.568 299.873ZM199.88 260.246L202.868 225.344C202.868 224.861 203.35 224.476 203.832 224.476L235.153 224.379C236.985 224.379 238.623 225.344 239.49 226.983C248.26 243.663 250.091 258.896 250.091 267.67V276.926C250.091 278.276 249.031 279.337 247.682 279.337H240.068C238.816 279.337 237.563 278.758 236.792 277.794L224.263 262.849C222.818 261.21 220.794 260.15 218.577 260.246H199.88Z" fill="url(#paint1_linear_27_4846)"/>
<path d="M193.33 297.365C193.33 298.812 194.486 299.872 195.932 299.872H211.255C222.724 299.872 225.422 305.561 232.458 319.541L254.72 319.445C254.72 319.445 254.72 317.806 254.72 315.01L254.624 275.961C254.624 256.581 251.154 244.336 241.999 224.957C240.649 222.064 237.662 220.232 234.482 220.232L201.329 220.329C200.558 220.329 199.98 220.811 199.787 221.486C193.233 246.361 193.233 286.856 193.33 297.365ZM199.883 260.245L202.871 225.342C202.871 224.86 203.353 224.475 203.835 224.475L235.156 224.378C236.987 224.378 238.626 225.342 239.493 226.982C248.263 243.662 250.094 258.895 250.094 267.669V276.925C250.094 278.275 249.034 279.336 247.685 279.336H240.071C238.818 279.336 237.566 278.757 236.795 277.793L224.266 262.848C222.82 261.209 220.796 260.149 218.58 260.245H199.883Z" fill="url(#paint2_linear_27_4846)"/>
<path d="M204.124 225.636L235.253 225.54C236.602 225.54 237.855 226.311 238.53 227.468C247.589 244.727 249.034 260.057 249.034 267.577V276.833C249.034 277.508 248.456 278.087 247.782 278.087H240.168C239.204 278.087 238.337 277.701 237.759 277.026L225.23 262.082C223.592 260.153 221.182 258.996 218.58 258.996H201.233L204.124 225.636ZM203.931 224.479C203.449 224.479 202.968 224.865 202.968 225.347L199.98 260.25H218.677C220.893 260.25 222.917 261.214 224.363 262.853L236.891 277.797C237.662 278.762 238.915 279.34 240.168 279.34H247.782C249.131 279.34 250.191 278.28 250.191 276.93V267.674C250.191 258.9 248.36 243.666 239.59 226.986C238.722 225.347 237.084 224.383 235.253 224.383L203.931 224.479Z" fill="#822626"/>
<path opacity="0.4" d="M254.622 296.595V315.01L288.257 314.914C287.871 310.093 287.004 305.465 285.558 301.126C284.98 299.391 283.534 298.137 281.703 297.848C274.282 296.98 264.838 296.595 254.622 296.595ZM322.662 314.914H339.335C339.624 310.864 339.913 304.308 340.202 296.884C336.155 297.077 332.396 297.462 329.023 297.945C327.192 298.234 325.746 299.487 325.168 301.223C323.819 305.465 323.048 310.093 322.662 314.914Z" fill="#CD2827"/>
<path d="M254.719 333.525L332.686 333.332C337.986 333.332 342.323 328.993 342.323 323.69V322.051C342.323 320.509 341.07 319.352 339.625 319.352L254.816 319.544L254.719 333.525Z" fill="#57AE09"/>
<path d="M240.359 333.523H254.719V319.543H232.649L235.059 329.281C235.637 331.788 237.854 333.523 240.359 333.523Z" fill="#82A637"/>
<path d="M206.05 282.524C209.327 282.62 215.688 283.295 215.688 285.609C215.688 287.923 210.098 288.694 205.568 288.694C201.039 288.694 200.557 286.187 200.171 285.127C199.882 284.066 199.593 282.427 206.05 282.524Z" fill="#CD2827"/>
<path d="M206.34 285.031C204.798 285.031 203.16 284.549 202.389 283.778C202.967 283.488 203.834 283.199 205.184 283.199C207.689 283.199 211.737 283.488 213.857 284.453C213.568 284.645 212.797 285.031 211.544 285.031C210.002 285.031 207.978 285.031 206.34 285.031Z" fill="#9B1616"/>
<path d="M212.795 286.861C213.374 286.861 213.663 286.958 213.759 287.054C212.024 287.826 208.844 288.115 207.302 288.115C205.085 288.115 203.543 288.115 203.062 287.633C203.447 287.343 204.314 286.861 205.182 286.861C206.338 286.958 212.024 286.861 212.795 286.861Z" fill="#9B1616"/>
<path d="M254.719 315.11C254.719 317.906 254.719 319.545 254.719 319.545L339.432 319.352C339.432 319.352 339.528 317.713 339.721 314.917L254.719 315.11Z" fill="#822626"/>
<g opacity="0.2">
<path d="M291.246 295.632V314.048L319.676 313.952V295.536C319.676 293.318 317.652 291.583 315.146 291.583H295.679C293.269 291.679 291.246 293.511 291.246 295.632Z" fill="#822626"/>
</g>
<path d="M329.218 313.372H335.193C336.735 313.372 338.084 312.118 338.084 310.479V307.49C338.084 305.947 336.831 304.598 335.193 304.598H329.218C327.676 304.598 326.327 305.851 326.327 307.49V310.479C326.327 312.118 327.676 313.372 329.218 313.372Z" fill="white"/>
<path d="M272.644 313.564H278.619C280.161 313.564 281.51 312.311 281.51 310.671V307.683C281.51 306.14 280.257 304.79 278.619 304.79H272.644C271.102 304.79 269.752 306.043 269.752 307.683V310.671C269.752 312.214 271.005 313.564 272.644 313.564Z" fill="white"/>
<path d="M234.1 262.374C234.1 262.759 234.389 263.049 234.678 263.145C238.437 263.531 242.388 263.531 246.436 263.049C246.918 262.952 247.207 262.663 247.207 262.181C247.496 254.468 247.496 246.947 247.207 239.812C247.207 239.33 246.822 239.041 246.436 238.945C242.292 238.462 238.148 238.462 233.811 238.945C233.426 239.041 233.136 239.427 233.136 239.812C232.847 247.044 233.233 254.564 234.1 262.374Z" fill="#C7C7C9"/>
<path d="M249.037 269.217C249.326 269.217 249.616 269.024 249.712 268.735C249.905 268.349 249.712 267.867 249.326 267.674L242.773 264.493C241.809 264.011 241.135 262.95 241.135 261.889L241.038 237.689C241.038 237.592 241.135 237.592 241.135 237.592H245.182C245.664 237.592 245.953 237.207 245.953 236.821C245.953 236.339 245.568 236.05 245.182 236.05H241.135C240.171 236.05 239.4 236.821 239.4 237.785L239.496 261.986C239.496 263.721 240.46 265.264 242.002 266.035L248.555 269.217C248.845 269.217 248.941 269.217 249.037 269.217Z" fill="#402B2B"/>
<path d="M293.23 334.656L320.504 334.597L320.486 326.401L293.212 326.461L293.23 334.656Z" fill="white"/>
<path opacity="0.8" d="M245.378 222.838C251.353 236.529 255.787 249.16 260.027 266.804L338.861 266.611C334.332 250.027 322.863 232.383 318.141 225.923C316.599 223.802 315.25 221.97 314.093 220.331L246.824 220.524C245.667 220.62 244.896 221.777 245.378 222.838Z" fill="#8E6362"/>
<path d="M401.71 283.524C401.71 283.524 397.88 393.165 401.345 517.765C401.345 517.765 411.739 527.617 431.433 521.049C431.433 521.049 431.25 382.402 436.539 327.308C436.539 327.308 461.338 432.023 492.703 522.691C492.703 522.691 513.673 526.704 521.149 514.846C521.149 514.846 478.844 367.99 472.644 283.524H401.71Z" fill="url(#paint3_linear_27_4846)"/>
<path d="M401.71 283.524H472.645C473.192 289.909 473.739 296.659 474.65 303.592C432.345 303.774 409.916 293.011 401.528 288.085C401.528 284.984 401.71 283.524 401.71 283.524Z" fill="#402B2B" fill-opacity="0.45" style="mix-blend-mode:multiply"/>
<path d="M627.227 436.429H518.798V520.156H627.227V436.429Z" fill="#8C5E5E"/>
<path d="M555.643 436.429H545.467V448.014H555.643V436.429Z" fill="#A3774A"/>
<path d="M556.121 436.429H447.692V520.156H556.121V436.429Z" fill="#BCD829"/>
<path d="M556.296 436.429H516.819V520.156H556.296V436.429Z" fill="#57AE09"/>
<path d="M542.787 436.429H532.61V448.014H542.787V436.429Z" fill="white"/>
<path d="M484.535 436.429H474.359V448.014H484.535V436.429Z" fill="white"/>
<path d="M583.774 355.153H475.345V438.88H583.774V355.153Z" fill="#BCD829"/>
<path d="M583.948 355.153H544.472V438.88H583.948V355.153Z" fill="#57AE09"/>
<path d="M570.439 355.153H560.263V366.738H570.439V355.153Z" fill="white"/>
<path d="M512.188 355.153H502.012V366.738H512.188V355.153Z" fill="white"/>
</g>
<path d="M408.821 99.8167H426.327L428.697 89.2358C428.697 89.2358 421.768 93.2493 420.127 90.5128C418.486 87.7763 418.85 88.8709 417.209 89.2358C415.568 89.6006 415.568 87.4115 413.562 88.6885C411.374 90.1479 408.092 97.0802 408.821 99.8167Z" fill="#6B1912"/>
<path d="M370.327 237.23L387.653 211.039L412.635 218.292C411.668 226.028 395.578 249.184 387.653 259.794L370.327 237.23Z" fill="url(#paint4_linear_27_4846)"/>
<path d="M372.745 227.754C381.251 189.061 397.973 162.543 397.973 162.543C407.386 164.609 410.838 197.522 410.838 197.522C408.842 209.017 402.784 238.891 397.973 249.916L372.745 227.754Z" fill="url(#paint5_linear_27_4846)"/>
<path d="M397.879 162.114C397.879 162.114 398.791 183.094 401.526 283.978C401.526 283.978 426.326 296.566 475.743 287.809C475.743 287.809 475.926 257.525 482.673 230.708C482.673 230.708 495.255 180.175 488.873 165.398C488.873 165.398 448.573 140.405 397.879 162.114Z" fill="url(#paint6_linear_27_4846)"/>
<path d="M436.173 142.119L435.808 155.181C435.808 155.181 438.908 159.742 446.385 160.289C453.861 160.654 457.508 156.458 457.508 156.458L458.237 137.011C448.937 141.024 439.82 142.666 436.173 142.119Z" fill="url(#paint7_linear_27_4846)"/>
<path d="M436.903 136.756L436.173 151.168C439.82 151.715 448.938 150.073 458.056 146.06L458.603 136.756H436.903Z" fill="url(#paint8_linear_27_4846)" style="mix-blend-mode:multiply"/>
<path d="M486.32 193.856C486.32 193.856 475.561 218.12 471.732 229.065C467.902 239.829 467.902 282.7 447.844 290.909C447.844 290.909 469.179 289.632 475.926 287.808C475.926 287.808 476.29 255.518 482.855 230.707C482.855 230.707 487.414 204.62 489.237 192.762L486.32 193.856Z" fill="#EE4D47" fill-opacity="0.29" style="mix-blend-mode:multiply"/>
<path d="M472.096 105.013C471.731 105.195 471.366 111.033 471.366 111.033L469.907 123.256L463.16 128.546L459.331 130.188C459.331 130.188 453.678 127.817 454.408 125.628C455.137 123.621 458.784 94.7969 459.513 94.7969C460.243 94.7969 466.078 98.9927 466.078 98.9927L472.096 105.013Z" fill="#402B2B"/>
<path d="M418.667 94.0664C417.026 94.0664 419.579 114.134 419.579 114.134L422.496 106.107L424.502 96.438L418.667 94.0664Z" fill="#402B2B"/>
<path d="M421.404 98.0808L418.304 123.804C418.304 123.804 417.209 145.513 435.08 146.79C452.95 147.884 465.168 130.189 465.168 130.189C465.168 130.189 467.356 132.743 469.727 128.364C471.915 123.986 470.456 118.148 467.356 117.601C464.074 117.236 462.615 119.06 462.25 121.797C461.885 124.533 461.521 126.54 461.521 126.54L458.785 126.175L460.791 105.013C460.791 105.013 456.597 96.8038 451.856 95.1619C447.115 93.5201 442.921 100.088 442.921 100.088C442.921 100.088 438.545 101 434.35 100.088C430.156 99.1754 427.421 98.0808 427.421 98.0808C427.421 98.0808 424.868 98.8105 421.404 98.0808Z" fill="url(#paint9_linear_27_4846)"/>
<path d="M434.35 136.939C440.368 137.304 441.279 130.371 441.279 130.371C441.279 130.371 427.421 128.729 427.056 128.547C427.056 128.547 425.962 136.391 434.35 136.939Z" fill="#893D43"/>
<path d="M440.733 132.56C441.28 131.283 441.462 130.371 441.462 130.371C441.462 130.371 427.603 128.729 427.239 128.547C427.239 128.547 427.056 129.459 427.239 130.918L440.733 132.56Z" fill="#FFFEFF"/>
<path d="M440.184 91.5132V72.9053C451.307 73.4526 462.795 75.6417 468.448 82.5741C475.195 90.7834 471.366 109.756 471.366 109.756C471.366 109.756 463.16 108.844 461.701 106.108C460.242 103.371 446.384 99.5401 435.807 100.087C425.231 100.635 420.125 99.5401 414.837 94.9794C413.743 94.0672 412.831 92.7902 412.102 91.3308H440.184V91.5132Z" fill="#402B2B"/>
<path d="M472.644 102.824C472.644 102.824 464.803 100.27 451.673 99.175C429.609 89.871 420.127 91.5129 420.127 91.5129C420.127 91.5129 420.309 84.3981 422.315 79.4725C424.321 74.5469 437.815 67.6145 449.121 68.7091C460.426 69.8037 472.097 78.1954 473.92 86.2224C475.379 92.425 472.644 102.824 472.644 102.824Z" fill="url(#paint10_linear_27_4846)"/>
<path d="M459.333 100.087C456.962 88.776 440.004 83.1207 427.969 83.3031C416.116 83.4855 407.728 93.3368 406.451 100.087C405.904 102.823 408.092 103.188 408.822 100.816C409.369 99.1745 410.463 91.3301 421.404 92.2422C432.345 93.1544 431.798 103.006 437.269 103.918C442.374 104.83 448.21 101.181 459.333 100.087Z" fill="url(#paint11_linear_27_4846)"/>
<path d="M422.679 102.641V101.364C423.227 101.364 427.421 100.817 432.526 101.912L432.344 103.918C428.15 102.641 422.679 102.641 422.679 102.641Z" fill="#402B2B"/>
<path d="M453.496 107.202C450.214 105.378 444.014 104.466 444.014 104.283L444.743 102.459C444.926 102.459 450.579 103.554 454.226 105.925L453.496 107.202Z" fill="#402B2B"/>
<path d="M435.263 113.404C435.263 113.404 434.716 117.235 433.257 118.33C431.798 119.424 429.245 120.337 428.88 121.249C428.516 121.979 429.245 123.438 430.886 123.985C432.527 124.533 432.71 125.08 432.71 125.08C432.71 125.08 429.427 125.445 427.786 123.438C426.145 121.431 427.969 119.789 429.61 118.877C431.251 117.965 431.98 117.6 432.71 117.053C433.622 116.506 435.263 113.404 435.263 113.404Z" fill="#D87C60"/>
<path d="M443.103 115.411C443.103 117.236 444.38 118.878 446.021 118.878C447.662 118.878 448.938 117.418 448.938 115.411C448.938 113.587 447.662 111.945 446.021 111.945C444.38 111.945 443.103 113.405 443.103 115.411Z" fill="#402B2B"/>
<path d="M423.045 113.039C423.045 114.864 424.321 116.506 425.962 116.506C427.603 116.506 428.88 115.046 428.88 113.039C428.88 111.215 427.603 109.573 425.962 109.573C424.321 109.756 423.045 111.215 423.045 113.039Z" fill="#402B2B"/>
<path d="M334.631 193.174C333.872 191.758 334.405 189.995 335.821 189.236C337.237 188.478 339 189.01 339.759 190.426L349.376 208.372L344.248 211.12L334.631 193.174Z" fill="white"/>
<path d="M336.487 196.555L341.57 193.831L352.561 214.34L347.478 217.064L336.487 196.555Z" fill="#822626"/>
<path d="M411.025 248.706C408.768 244.193 409.279 240.647 409.816 239.438C412.099 240.782 416.827 244.193 417.472 247.094C418.116 249.995 416.666 253.676 415.86 255.153C415.188 254.884 413.281 253.219 411.025 248.706Z" fill="url(#paint12_linear_27_4846)"/>
<path d="M314.224 217.228C313.281 214.026 315.682 210.815 319.021 210.815H380.318C382.535 210.815 384.488 212.276 385.114 214.402L407.942 291.884C408.885 295.087 406.484 298.297 403.145 298.297H341.848C339.63 298.297 337.678 296.837 337.051 294.71L314.224 217.228Z" fill="white"/>
<path d="M312.975 213.278C312.137 210.106 314.528 207 317.809 207H379.188C381.457 207 383.442 208.528 384.022 210.722L407.152 298.203C407.99 301.375 405.598 304.481 402.318 304.481H340.939C338.669 304.481 336.685 302.953 336.105 300.759L312.975 213.278Z" fill="url(#paint13_linear_27_4846)"/>
<path fill-rule="evenodd" clip-rule="evenodd" d="M476.657 246.944C489.969 227.606 491.792 169.046 491.792 169.046C479.543 170.639 473.693 182.763 469.935 190.552C468.099 194.359 466.762 197.13 465.422 197.13L459.781 232.992L403.369 243.065C403.322 243.13 403.276 243.195 403.23 243.259C400.453 243.331 390.808 243.875 384.51 247.886C384.51 247.886 381.247 250.332 383.122 252.046C384.019 253.025 383.734 254.086 383.448 255.146C383.162 256.206 382.876 257.267 383.773 258.246C384.53 259.072 384.648 259.927 384.764 260.769C384.924 261.921 385.079 263.048 386.871 264.04C386.871 264.04 386.544 266.65 388.909 267.712C389.016 267.76 389.13 267.811 389.248 267.865C391.746 268.99 396.619 271.184 397.553 270.328C397.905 270.006 398.781 269.37 399.764 268.656C401.521 267.379 403.619 265.855 403.671 265.437C403.753 264.784 403.59 263.642 401.47 263.478C401.47 263.478 403.509 263.071 405.63 261.604C407.832 260.3 410.198 256.875 410.198 256.875L412.343 251.974C464.609 256.428 476.657 246.944 476.657 246.944Z" fill="url(#paint14_linear_27_4846)"/>
<path d="M461.339 195.863L456.233 222.681L454.945 229.431L409.816 239.439C411.965 241.319 416.182 247.014 415.86 254.75C429.828 256.765 461.231 258.86 475.092 251.124C477.619 249.153 483.294 242.054 485.774 229.431C502.003 173.607 488.874 165.397 488.874 165.397C470.639 167.769 461.339 195.863 461.339 195.863Z" fill="url(#paint15_linear_27_4846)"/>
<path d="M302.881 375.843C301.535 369.64 299.314 363.775 296.352 358.382C295.948 357.64 295.477 356.831 295.006 356.09C291.573 350.36 287.332 345.236 282.418 340.787C281.813 340.18 281.139 339.64 280.466 339.101C275.216 334.719 269.225 331.146 262.763 328.584C261.955 328.247 261.148 327.978 260.34 327.708C253.878 325.416 246.877 324.135 239.675 324C239.271 324 238.8 324 238.396 324C237.992 324 237.521 324 237.117 324C229.847 324.135 222.914 325.416 216.452 327.708C215.644 327.978 214.837 328.315 214.029 328.584C207.567 331.146 201.576 334.719 196.326 339.101C195.652 339.64 194.979 340.247 194.374 340.787C189.46 345.236 185.152 350.36 181.786 356.09C181.315 356.831 180.911 357.64 180.44 358.382C177.478 363.775 175.257 369.64 173.911 375.843C173.709 376.719 173.574 377.596 173.372 378.472C172.699 382.247 172.362 386.09 172.362 390H304.362C304.362 386.09 304.026 382.18 303.353 378.472C303.218 377.596 303.083 376.719 302.881 375.843Z" fill="#FCDDD4"/>
<path d="M384.468 409.411C382.785 401.705 380.009 394.418 376.307 387.717C375.802 386.796 375.213 385.791 374.624 384.869C370.333 377.75 365.032 371.384 358.889 365.856C358.132 365.102 357.291 364.432 356.449 363.762C349.886 358.318 342.398 353.878 334.32 350.696C333.311 350.277 332.301 349.942 331.291 349.607C323.214 346.759 314.463 345.168 305.46 345C304.955 345 304.366 345 303.861 345C303.357 345 302.768 345 302.263 345C293.176 345.168 284.509 346.759 276.432 349.607C275.422 349.942 274.412 350.361 273.402 350.696C265.325 353.878 257.836 358.318 251.273 363.762C250.432 364.432 249.591 365.186 248.833 365.856C242.691 371.384 237.306 377.75 233.099 384.869C232.51 385.791 232.005 386.796 231.416 387.717C227.714 394.418 224.937 401.705 223.255 409.411C223.002 410.499 222.834 411.588 222.581 412.677C221.74 417.368 221.319 422.142 221.319 427H386.319C386.319 422.142 385.899 417.284 385.057 412.677C384.889 411.588 384.721 410.499 384.468 409.411Z" fill="white"/>
<path d="M404.74 393.029C393.771 393.029 389.658 383.427 389.658 370.053C389.658 356.678 385.887 345.704 371.147 345.018C351.951 344.333 353.665 362.851 353.665 385.485C353.665 414.291 343.382 395.773 328.985 411.891C316.644 425.608 332.413 449.957 337.212 457.158H399.255C401.312 453.386 406.454 444.127 412.281 432.81C425.307 408.804 415.709 393.029 404.74 393.029Z" fill="#57AE09"/>
<path opacity="0.2" fill-rule="evenodd" clip-rule="evenodd" d="M375.261 397.487H372.176V440.495L359.217 423.209L356.749 425.06L372.176 445.639V457.158H375.261V424.664L388.333 408.443L385.932 406.506L375.261 419.747V397.487Z" fill="white"/>
<rect x="324.367" y="457" width="90" height="50" fill="#FCDDD4"/>
<defs>
<filter id="filter0_f_27_4846" x="0.132324" y="0.0712891" width="693.951" height="610.972" filterUnits="userSpaceOnUse" color-interpolation-filters="sRGB">
<feFlood flood-opacity="0" result="BackgroundImageFix"/>
<feBlend mode="normal" in="SourceGraphic" in2="BackgroundImageFix" result="shape"/>
<feGaussianBlur stdDeviation="54" result="effect1_foregroundBlur_27_4846"/>
</filter>
<linearGradient id="paint0_linear_27_4846" x1="342.315" y1="272.584" x2="342.315" y2="470.302" gradientUnits="userSpaceOnUse">
<stop stop-color="#857874"/>
<stop offset="1" stop-color="white" stop-opacity="0"/>
</linearGradient>
<linearGradient id="paint1_linear_27_4846" x1="265.158" y1="188.935" x2="265.158" y2="322.446" gradientUnits="userSpaceOnUse">
<stop stop-color="#BCD829"/>
<stop offset="1" stop-color="#57AE09"/>
</linearGradient>
<linearGradient id="paint2_linear_27_4846" x1="224.015" y1="90.9863" x2="224.015" y2="322.26" gradientUnits="userSpaceOnUse">
<stop stop-color="#BCD829"/>
<stop offset="0.560769" stop-color="#57AE09"/>
</linearGradient>
<linearGradient id="paint3_linear_27_4846" x1="460.522" y1="215.694" x2="460.522" y2="523.345" gradientUnits="userSpaceOnUse">
<stop stop-color="#822626"/>
<stop offset="0.943497" stop-color="#402B2B"/>
</linearGradient>
<linearGradient id="paint4_linear_27_4846" x1="390.168" y1="211.039" x2="390.168" y2="259.011" gradientUnits="userSpaceOnUse">
<stop stop-color="#1B1414"/>
<stop offset="1" stop-color="#FFC8C1"/>
</linearGradient>
<linearGradient id="paint5_linear_27_4846" x1="379.595" y1="256.765" x2="406.994" y2="171.343" gradientUnits="userSpaceOnUse">
<stop stop-color="#BCD829"/>
<stop offset="1" stop-color="#57AE09"/>
</linearGradient>
<linearGradient id="paint6_linear_27_4846" x1="444.279" y1="100.829" x2="444.279" y2="286.18" gradientUnits="userSpaceOnUse">
<stop stop-color="#BCD829"/>
<stop offset="1" stop-color="#57AE09"/>
</linearGradient>
<linearGradient id="paint7_linear_27_4846" x1="454.495" y1="154.24" x2="436.042" y2="162.199" gradientUnits="userSpaceOnUse">
<stop stop-color="#FFB3B6"/>
<stop offset="1" stop-color="#FFC8C1"/>
</linearGradient>
<linearGradient id="paint8_linear_27_4846" x1="454.861" y1="145.087" x2="436.303" y2="152.946" gradientUnits="userSpaceOnUse">
<stop stop-color="#FFB3B6" stop-opacity="0.31"/>
<stop offset="1" stop-color="#FFC8C1"/>
</linearGradient>
<linearGradient id="paint9_linear_27_4846" x1="415.927" y1="140.544" x2="419.874" y2="105.273" gradientUnits="userSpaceOnUse">
<stop stop-color="#FFB3B6"/>
<stop offset="1" stop-color="#FFC8C1"/>
</linearGradient>
<linearGradient id="paint10_linear_27_4846" x1="447.238" y1="50.2125" x2="447.238" y2="103.256" gradientUnits="userSpaceOnUse">
<stop stop-color="#BCD829"/>
<stop offset="1" stop-color="#57AE09"/>
</linearGradient>
<linearGradient id="paint11_linear_27_4846" x1="448.624" y1="78.0465" x2="448.624" y2="133.19" gradientUnits="userSpaceOnUse">
<stop stop-color="#BCD829"/>
<stop offset="1" stop-color="#57AE09"/>
</linearGradient>
<linearGradient id="paint12_linear_27_4846" x1="417.069" y1="240.244" x2="398.293" y2="247.678" gradientUnits="userSpaceOnUse">
<stop stop-color="#57AE09"/>
<stop offset="1" stop-color="#BCD829"/>
</linearGradient>
<linearGradient id="paint13_linear_27_4846" x1="408.315" y1="256" x2="230.315" y2="290" gradientUnits="userSpaceOnUse">
<stop stop-color="#F58A6B"/>
<stop offset="1" stop-color="#F7A58D"/>
</linearGradient>
<linearGradient id="paint14_linear_27_4846" x1="473.833" y1="219.845" x2="379.3" y2="251.356" gradientUnits="userSpaceOnUse">
<stop stop-color="#FFB3B6"/>
<stop offset="1" stop-color="#FFC8C1"/>
</linearGradient>
<linearGradient id="paint15_linear_27_4846" x1="441.245" y1="206.398" x2="496.319" y2="243.557" gradientUnits="userSpaceOnUse">
<stop stop-color="#BCD829"/>
<stop offset="1" stop-color="#57AE09"/>
</linearGradient>
</defs>
</svg>
