<svg width="18" height="19" viewBox="0 0 18 19" fill="none" xmlns="http://www.w3.org/2000/svg">
<path fill-rule="evenodd" clip-rule="evenodd" d="M17.0822 10.2876H6.53529V12.6509H14.3689V14.8696C13.3186 15.7742 11.2617 16.2412 11.2617 16.2412C5.22239 17.2915 3.29682 12.1274 3.29682 12.1274C1.54629 6.17566 5.79132 3.81245 5.79132 3.81245C10.9991 0.66151 14.894 4.68772 14.894 4.68772L16.7321 2.89343C13.6687 -0.60762 8.94226 0.0488266 8.94226 0.0488266C1.28371 0.836563 0.277162 7.26974 0.277162 7.26974C-0.991969 12.4338 2.50908 15.9786 2.50908 15.9786C8.8985 22.4555 17.126 16.5038 17.126 16.5038V10.2876H17.0822Z" fill="black"/>
</svg>
