<svg xmlns="http://www.w3.org/2000/svg" viewBox="0 0 436.95 480.86"><defs><style>.cls-1{fill:#fdbf05;}.cls-2{fill:#f1f1f1;}.cls-3{fill:#57ad09;}.cls-4{fill:#e37404;}.cls-5{fill:#e37304;}.cls-6{fill:#f0f0f0;}.cls-7{fill:#828282;}.cls-8{fill:#fd685c;}.cls-9{fill:#017802;}.cls-10{fill:gray;}.cls-11{fill:#010101;}.cls-12{fill:#027802;}.cls-13{fill:#57ae0a;}.cls-14{fill:#e37305;}.cls-15{fill:#56ad09;}.cls-16{fill:#55ac09;}.cls-17{fill:#fdbf06;}.cls-18{fill:#037902;}.cls-19{fill:#e47505;}.cls-20{fill:#097b02;}.cls-21{fill:#097d03;}.cls-22{fill:#0a7d03;}.cls-23{fill:#fcbf0c;}.cls-24{fill:#0a7c02;}.cls-25{fill:#f12b33;}.cls-26{fill:#f02830;}.cls-27{fill:#f12931;}.cls-28{fill:#fbfcfb;}.cls-29{fill:#fafcfa;}.cls-30{fill:#f12b32;}</style></defs><g id="Layer_2" data-name="Layer 2"><g id="Layer_1-2" data-name="Layer 1"><path class="cls-1" d="M125.17,253.35l-.45-8.73-.61-.06q-3.6,19.53-7.2,39Q107.66,334,98.41,384.45c-3.78,20.74-7.66,41.47-11.12,62.27-.73,4.37-2.13,6.17-6.57,5.6a32.21,32.21,0,0,0-5.94.34c-5.7,2.83-11.79.88-17.67,1.41-2.8-.14-5.61.14-8.41-.07-8.64-.12-17.32.82-25.93-.55-3.39-2.35-1.63-5.44-.9-8.14,4-14.78,8.48-29.43,12.56-44.2C47.61,353.45,61.35,306,74.57,258.3c3.61-13,7.43-25.93,11-38.93A10.85,10.85,0,0,1,90.07,213c8.87-6.11,15.05-14,16.41-25.09.2-1.64.44-3.36,2.26-4.19a16.07,16.07,0,0,1,5.92-.68q21.74,0,43.46,0a18.42,18.42,0,0,1,5.44.51,3.67,3.67,0,0,1,2.55,3.31c1.27,8.51,4.52,16,10.91,22q1.53,35.16,3,70.3,1.47,33.15,3.05,66.31,2.35,50.1,4.76,100.2c.31,6.57.24,6.56-6.09,6.59-2,0-4,.14-6,.22a7.14,7.14,0,0,1-1.52,1c-5.76,1.06-11.56.34-17.34.51-2.47-.07-4.94.12-7.4,0-7.57-.19-15.19,1.06-22.7-.83-2.38-1.67-2.63-4.25-2.46-6.73,1.22-18.6.31-37.27,1.66-55.88.06-.83.2-1.65.19-2.49-.28-14.15.9-28.28,1-42.42.21-31,1.71-61.89,2.42-92.84.3-13.43-.22-27,1.57-40.39.91-6.8,1.75-7.95,8.5-8.36,2.32-.15,6.49.94,6.44-1.62,0-2.9-4.24-1.92-6.73-2.2a23.24,23.24,0,0,0-4,0c-5.64.35-6.64,1.28-7,6.79-.87,12.93-2.73,25.81-1.12,38.84C127.6,248.37,128.48,251.62,125.17,253.35Z"/><path class="cls-2" d="M430.8,257.63c-1.42,11.46-2.92,22.91-4.26,34.38-1.33,11.28-2.34,22.6-3.78,33.87-2.12,16.53-4.84,33-6.63,49.56-1.21,11.13-3.35,22.12-4.13,33.32-.4,5.67-2.26,11.24-1.3,17-2,1.62-4.38,1.37-6.68,1.37q-70.53,0-141.06,0c-2.44,0-5,.38-7.1-1.54,1.32-9.61-1.38-18.91-2.35-28.33-1.22-11.8-3.1-23.53-4.66-35.3-1.22-9.2-2.62-18.39-3.46-27.63-.54-5.86-.73-12-2-17.48-1.61-6.68-.21-13.56-3-20.18-1.54-3.69-.54-8.64-1.25-13-1.39-8.63-2.22-17.34-3.28-26,1.87-1.87,4.29-1.62,6.59-1.63q90.88-.06,181.78,0C426.51,256,428.93,255.77,430.8,257.63Z"/><path class="cls-3" d="M164.92,184.66h-57c-1.85,1.6-4.08,1.43-6.29,1.42-4.15.22-8.31.11-12.46.06-1.83,0-3.69-.09-5.1-1.55-4-.1-8-.43-12-.25-3.67.17-5-.6-4.3-4.73,2-12.29,3.48-24.66,5.16-37C86.74,126,98.22,107.62,111,90.23a17.52,17.52,0,0,0,3.2-8.81c.12-1.18,0-2.48-1.48-2.75a1.94,1.94,0,0,0-2.17,1.64c-3.51,12.4-13.3,20.85-19.79,31.37-5,8-10.81,15.56-16.53,23.11a7.56,7.56,0,0,0-1.33,7.77c-7.06,4-9.3,10.86-10.07,18.12a137.44,137.44,0,0,0-.24,19.47c.55,14.51-5.33,25.37-17.85,32.67-5.93,5.77-19.72,6-25.79.41C-4,202.07-2.27,174.45,4.27,155.67a45.3,45.3,0,0,1,10.08-15.92c11-11.78,22.18-23.44,33.28-35.14,5.95-2.67,10.08-7.55,14.11-12.31,6.44-7.61,14-14.14,20.28-21.89a15.44,15.44,0,0,1,10.61-5.92c2.14-.21,3.49-1.82,5.28-2.63a111.73,111.73,0,0,0,22.69-.13c6.37-2.39,12.72-2.67,19,.26,7,1,14.1,0,21.14.5,1.85.25,3.4,1.34,5.17,1.8,5.89,1.5,8.75,5.41,9.58,11.33,2.19,15.47,4.52,30.91,6.65,46.38,2.46,17.94,4.8,35.89,7.51,53.8.44,2.91,1.39,5.86,0,8.8a66.84,66.84,0,0,0-14.07,0,5.34,5.34,0,0,1-4,1.4C169.29,186.06,166.9,186.36,164.92,184.66Z"/><path class="cls-2" d="M322,197.64c.51,4.66,3.4,5.13,7.51,5.1,25.41-.19,50.82-.1,76.24-.1a28.41,28.41,0,0,1,27.11,19.49c.71,2.06,1.28,4,.27,6.23-.93,2-.07,3.85,1.74,5.16-1.81,2-4.25,1.72-6.54,1.72q-95,.06-189.91,0c-2.29,0-4.73.25-6.54-1.72,1.29-1.11,2.43-2.28,2-4.21-2.45-10.07,7.88-23.13,18.78-25.63,9.36-2.15,18.87-.75,28.31-.93,3.38-.07,5.72-.78,6.82-4.11,3.37,1.75,7,1.55,10.65,1.53,5.29,0,10.57-.09,15.86,0A10.58,10.58,0,0,0,322,197.64Z"/><path class="cls-2" d="M407.8,449.53c-2.05,5.87-2.59,12-2.95,18.14-.54,9-4.41,12.87-13.37,12.87H274.63c-8.55,0-12.45-3.7-12.77-12.28-.25-6.39-.82-12.69-3-18.75,1.9-1.81,4.31-1.57,6.61-1.57q67.88-.06,135.74,0C403.5,447.94,405.92,447.7,407.8,449.53Z"/><path class="cls-3" d="M260.3,166.58c-4.56,7.85-10.51,14-19.53,16.72a30.87,30.87,0,0,1-34.34-11.73c-4.13-5.82-8-11.82-12.1-17.68-.89-1.27-1.25-3.22-3.38-3.27-1.81-1.59-1.79-3.88-2.08-6q-4.56-32.53-9.16-65.06c-.31-2.12-.6-4.33,1.19-6.08C190,84.55,198,96.37,206,108.15c6.73,9.89,14.83,15.33,27.31,14.81,11.65-.49,23.31,8.76,27.31,19.93.56,1.56,1.11,3.13,1.67,4.69C265.59,152.94,264.67,161.61,260.3,166.58Z"/><path class="cls-1" d="M8.85,452.65c-.33-.06-.65-.16-1-.19-8.86-.84-8.9-.85-6.08-9.71q23.48-73.56,47-147.12c8.16-25.63,16.16-51.31,24.24-77a4.91,4.91,0,0,1,6.44-.37c2.54,1.83,1.35,4.6.69,6.92q-8.94,31.23-17.65,62.53C48.41,337.94,34,388,20,438.27c-1.43,5.14-1.61,11-6.19,14.93A4.72,4.72,0,0,1,8.85,452.65Z"/><path class="cls-2" d="M433.83,239.87c-2.95,3.18-1.12,7.25-2,10.8-1.9,1.8-4.31,1.56-6.61,1.56q-91.86.06-183.71,0c-2.3,0-4.72.24-6.62-1.56-.4-3.65-.22-7.41-2-10.79,1.71-2.13,4.17-1.85,6.45-1.85q94.05-.09,188.11,0C429.65,238,432.11,237.75,433.83,239.87Z"/><path class="cls-4" d="M14,452.32c3.92-9.18,5.92-18.95,8.65-28.49,8.84-30.89,17.51-61.83,26.23-92.75Q63.86,278,78.8,224.91c1.77-6.3,1.62-6.34-5.81-6.25-3.7-3.88-3.35-4.77,2.76-7,1.14-1.14,2.68-1.24,4.11-1.62,10-2.68,16.33-9.12,19.31-19,.67-2.2.89-4.6,2.61-6.38h6.12c0,13-6.48,22.33-16.89,29.27-1.92,1.28-3.36,2.58-4,4.79Q69.13,282.38,51.22,346,36.84,397.24,22.48,448.45a31.52,31.52,0,0,0-.61,3.91c0,2.66-1.45,4.08-4,4.06S13.89,455,14,452.32Z"/><path class="cls-1" d="M108.61,452.66c-7.38-1-7.56-1-6.63-8.84,3.37-28.2,6.87-56.38,10.31-84.56q4.77-39,9.53-78c.92-7.55,1.92-15.1,2.88-22.65,2.73,3,1.87,6.64,1.48,10-.6,5.15-.63,10.28-.72,15.44-.5,29.1-1.49,58.18-2.17,87.28-.57,24.26-1.75,48.52-1.84,72.8,0,3.1.5,6.42-2.26,8.86C115.61,454.53,112.08,454.67,108.61,452.66Z"/><path class="cls-5" d="M118.9,452.35a8.41,8.41,0,0,0,.92-4.33c.32-12.63.18-25.25.8-37.89,1.06-21.42.62-42.92,1.39-64.36.86-23.75,1.63-47.5,2-71.27.09-5.29,1.25-10.56.69-15.89.16-1.75.31-3.5.47-5.26,1.27-2.7.92-5.64.54-8.31-2-13.82.94-27.46,1.14-41.19,0-2.59,1-4.08,3.56-4.54a43.87,43.87,0,0,1,15.83,0c1.65.31,3.59.76,3.42,2.91-.18,2.35-1.95,3.34-4.21,3.37-2.66,0-5.33.14-8,0-3.13-.17-4.41,1-4.62,4.27-.65,9.79-.8,19.58-1.1,29.37-.78,25.75-1.29,51.51-2.17,77.24-.41,12-.22,23.94-.78,35.89-1.2,25.73-1.79,51.48-2.13,77.24-.1,7.58-1.61,15.15.1,22.72a4.16,4.16,0,0,1-4.34,3.94C120.06,456.28,118.87,454.74,118.9,452.35Z"/><path class="cls-6" d="M410.83,431.68c-2.2,1.13-3.88,2.38-2.41,5.32,1,1.91.29,3.91-.68,5.73-2,1.68-4.36,1.43-6.66,1.43q-67.31.06-134.61,0c-2.29,0-4.7.23-6.62-1.53-.37-4.24.49-7.73,6.24-8.48-3.55-3-7.53-.07-10.27-2.49,1.82-2,4.26-1.71,6.55-1.71q71-.07,141.92,0C406.58,430,409,429.7,410.83,431.68Z"/><path class="cls-7" d="M234.85,250.67q47,.06,94,.12,51.49,0,103-.12c4,3.43,3.89,4.47-1,7-9.47-.06-18.94-.16-28.41-.16q-80.79,0-161.57,0c-1.66,0-3.32.11-5,.17C230.75,255.26,230.59,254.18,234.85,250.67Z"/><path class="cls-8" d="M19,213.23a33.38,33.38,0,0,0,25.79-.41Q51.38,226.22,58,239.6c1.17,2.38,2,5-.78,6.57S52.56,246,51,243.75c-1.8-2.5-3.64-5-5.89-8.06-1.1,6.92-.86,12.61,3.74,17.41a35.91,35.91,0,0,1,3.6,4.77c.85,1.24,1.72,2.69.32,4-1.17,1.12-2.31.13-3.59-.23-2.86-.8-6,1.23-8.86-.57-2.15,3.77-5-1.47-8.22.81-2.88,2-4.3-3.4-6.4-5.45-5.85-5.7-7.76-12.66-7.07-20.82C19.26,228.22,18.89,220.71,19,213.23Z"/><path class="cls-7" d="M433.83,239.87h-201c-4-1.56-4.1-3.71-1-6.36h203C437.78,236.15,437.83,238.33,433.83,239.87Z"/><path class="cls-8" d="M139.63,62l-19-.26c.6-8.67-.3-17.1-4-25.08.93-1.46,1.57-2.9.41-4.59a10.63,10.63,0,0,1-1.72-4.63c-.5-3.64,1.59-6.93,4.82-7.64s5.65,1,6.86,4.86c.28.91.23,2,1.3,2.88,2.27-1.83,2.17-4.39,2.23-6.76.1-3.76,2-5.57,5.61-5.32,4.54.3,9.27-1.34,13.59,1.29,2.36,8.13,2.66,16.59,4,24.89.58,3.47-1.27,4.66-4.53,4.83-9.64.5-9.64.56-9.65,10.08C139.56,58.35,139.61,60.17,139.63,62Z"/><path class="cls-9" d="M118.9,452.35c3.22,4.35,3.64,4.35,7.86,0l23,.39c1.72,1.72,1.55,3.94,1.6,6.08.06,2.66,0,5.31,0,8,.12,6.33.89,7.15,7.24,7.23,6.8.08,13.61,0,20.42,0a12.85,12.85,0,0,1,6.73,1.38l5.49,4.24c-.91,1.85-2.43,1.09-3.58,1.09-25.76.05-51.52,0-77.28.12-3.52,0-4.43-.68-4-4.36,1-7.89,1.46-15.87,2.13-23.81Z"/><path class="cls-9" d="M14,452.32c3.64,4.46,4.42,4.46,7.88,0l27,.25c2.13,2.64.87,5.42.21,8.09-3.32,13.42-4.78,13.51,10.75,13.38,5.15,0,10.3,0,15.45,0,2.17,0,4.35,0,6.21,1.37l5.29,4.45c-1.7,1.34-3.24.82-4.63.82-25.46,0-50.93-.07-76.39.13-4.12,0-4.64-1-3.5-4.68,2.41-7.77,4.41-15.67,6.58-23.52Z"/><path class="cls-7" d="M259.85,442.63c17,.06,34,.16,51,.17q48.46,0,96.93-.07c3.85,2.23,4,4.5.06,6.8l-148.95,0C254.71,446.16,254.86,445.15,259.85,442.63Z"/><path class="cls-10" d="M410.83,431.68q-47.61.06-95.2.13c-19.93,0-39.87-.1-59.81-.15-2.88-2-2.15-4,0-6q62.44-.06,124.9-.09c10,0,20,.18,29.94.27C413.4,427.71,413.58,429.66,410.83,431.68Z"/><path class="cls-11" d="M149.72,16.74c-4.83-.06-9.66,0-14.48-.21-2.87-.15-3.85.88-3.67,3.7.16,2.63.4,5.37-1,7.81-.69,1.19-1.81,2.28-3.2,2s-1.08-1.84-1.11-2.95c0-1.5.07-3-.89-4.33a5,5,0,0,0-9.06,3.17c.08,2.17.56,4.47,2.11,6,3.13,3.15,1.87,4.29-1.78,4.69-8.39-4.33-13.41-19.76-7.54-27.11,2.54-3.19,5.94-8.94,12.4-7,1.22.37,1.7-.73,2.49-1.25S126.21-.21,126.52,0c3.91,3.24,9-.68,13.31,2.71,2.58,2,6.18,3.05,9.23,5.13C154.55,11.63,155.12,13,149.72,16.74Z"/><path class="cls-12" d="M180.9,73.52c.2,9.45,2.3,18.68,3.46,28,2,16.38,4.38,32.73,6.59,49.08,1.48,10.53,3,21.06,4.44,31.59.26,1.82.54,3.86-1.6,4.74s-3.44-.29-4.07-2.35c-1.59-10.12-3.32-20.22-4.75-30.37-1.89-13.43-3.47-26.92-5.33-40.36-1.82-13.1-3.88-26.18-5.74-39.28-.72-5.09-3.37-8.26-8.5-8.88a5.54,5.54,0,0,1-4.63-3.22c1.06-3.23,3.46-3.6,6.35-3.07C175.06,60.87,178.42,66.75,180.9,73.52Z"/><path class="cls-8" d="M260.3,166.58a33.75,33.75,0,0,0,2-19c.33,0,.66-.05,1-.11,19.59-3.56,33.43,6.46,46,19.49,1,1.07,2.37,2.15,1.24,3.83s-2.61,1.15-4,.5c-5-2.33-10-4.62-14.88-7.06s-10-3.13-16.84-2.25c5,3.34,8.84,6,12.76,8.54,2.07,1.35,4.1,2.86,2.76,5.58-1.42,2.89-4,2.47-6.5,1.39C275.88,174.05,268.48,169.48,260.3,166.58Z"/><path class="cls-13" d="M48,99.51c-1.62-6.23-3.28-12.37-1.22-19A25.21,25.21,0,0,1,70.3,62.43c4.13-.12,8.28,0,12.42,0,.84,1.16,0,1.88-.74,2.5-6.73,6-11.86,13.53-18.63,19.48C59,88.27,55.8,93.28,51.51,97.25,50.5,98.19,49.93,99.94,48,99.51Z"/><path class="cls-14" d="M322,197.64c.54,3.17-.67,4.28-4,4.2-8.9-.21-17.8-.12-26.7,0-2.34,0-3.87-.43-3.58-3.17,3.13-9.21,8.47-13.77,16.45-14.07C312.47,184.26,318.06,188.36,322,197.64Z"/><path class="cls-15" d="M81.5,475.45c-10.3.05-20.61.15-30.91.11-5,0-6-1.56-5.06-6.46,1.06-5.51,3.49-10.74,3.35-16.49l8,0c0,3.76,1.94,4.75,5.52,4.7,3.82-.06,7.86-1.15,11.46,1.21,3.29,3.39,3.09,4.11-1.71,6.14-2.82,2-6.07,1.13-9.15,1.33-2.42.15-4.91-.35-7.24,1.28,5.69,1.17,11.44.87,17.18.69,1,.49,2,1.48,3,1.38C80.77,468.75,81.73,471.49,81.5,475.45Z"/><path class="cls-16" d="M185.8,475.38c-10.08.07-20.16.06-30.24.25-4.34.08-5.85-1.95-5.74-6.07.14-5.62,0-11.24,0-16.86l7.09-.07c.53,3.55,2.61,5,6.12,4.59a15.13,15.13,0,0,1,3.92,0c3.92.61,6.59-.78,7.91-4.58l1-.16c.26,2.45-1,5.21,2.08,7,1.43.85,1.27,2.69-.06,3.82-1,.87-2.11,1.54-2.2,3-5.56-.28-11.13-1-16.7.63,5.95,1.87,12.15.64,18.17,1.41.9.32,1.85,1,2.69.9C184.53,468.73,186.18,471,185.8,475.38Z"/><path class="cls-17" d="M101.78,184.68c-1.53,12.5-7.29,21.77-19.69,26.08a16,16,0,0,1-6.34.88q4.16-13.51,8.3-27Z"/><path class="cls-18" d="M48,99.51,82.72,62.43c3.47-1.07,6.56-3.27,10.44-3.18,2.17,0,4,.25,4.75,2.61-.29,2-1.44,3.67-3.47,3.64-6.93-.08-10.68,4.8-14.76,9.12Q66.5,88.6,53.45,102.7a5.79,5.79,0,0,1-5.82,1.91A4,4,0,0,1,48,99.51Z"/><path class="cls-19" d="M164.92,184.66h6.74c2.77,4.3,2,9.67,4.27,14.12a21,21,0,0,0,2.63,4.59c1.92,2.33,1.84,4.48-1.53,5.51-4.26-1.41-6.5-4.82-8.3-8.58A36.52,36.52,0,0,1,164.92,184.66Z"/><path class="cls-20" d="M73.84,458.49H60.41c-6.43,0-6.46-.07-3.54-5.91l17.91.08C74.47,454.6,74.15,456.55,73.84,458.49Z"/><path class="cls-21" d="M177.1,468.41c-6.27,2.29-12.73.65-19.1.87a2,2,0,0,1-1.87-2c-.11-1.1.36-2.37,1.33-2.36,6.08.09,12.38-2.28,18.17,1.44Z"/><path class="cls-22" d="M72.92,467.93c-.41,1.4-1.5,1.55-2.74,1.55-4.79,0-9.59,0-14.38,0-1.65,0-3-.32-2.93-2.4,0-1.92,1.14-2.54,2.89-2.52,5.46,0,10.92.06,16.37.09A3.39,3.39,0,0,0,72.92,467.93Z"/><path class="cls-23" d="M175.93,198.77c-3.58-4.05-4.2-9-4.26-14.12l4-.05Q175.79,191.68,175.93,198.77Z"/><path class="cls-24" d="M174.82,452.65c.75,4.29-.46,6.58-5.39,5.91-2.75-.38-5.6,0-8.4-.08-5.21-.06-5.68-.74-4.16-5.85Z"/><path class="cls-3" d="M350.11,329.43c4.94,1,8.81,1.71,12.66,2.52,8.47,1.78,10,.93,12.78-7.36,1.2-3.58,2.36-7.19,3.58-10.9,2.54.89,2.86,3.11,3.81,4.7,5.86,9.88,11.48,19.89,17.4,29.73,4,6.58,3.6,12.94-.11,19.35-5.09,8.78-10.37,17.45-15.32,26.31-4.06,7.27-9.94,11-18.31,10.51-1.17-.06-2.35.12-3.5,0-4.56-.59-7.5.37-6.44,6,.21,1.12.69,2.87-1.09,3.4-1.34.4-2.05-.87-2.8-1.71-6.53-7.34-13-14.72-19.56-22-1.81-2-1.69-3.61.11-5.6,6.48-7.15,12.81-14.43,19.25-21.62.83-.93,1.63-2.52,3.17-1.88s1.14,2.38.93,3.57c-.85,5.08,1.5,6,6.1,5.9,10.87-.31,10.9-.1,5.34-9.74C362.32,350.46,356.48,340.43,350.11,329.43Z"/><path class="cls-3" d="M339.15,370.41c-3.58,4.09-6.59,7.54-9.61,11-4.06,4.62-4,6.88.15,11.62,3,3.43,6,6.9,9.2,10.54-2.39,1.25-4.39.7-6.3.71q-17.47.08-34.95,0c-6.11,0-11.05-2.43-14.22-7.73-6.05-10.14-12.05-20.32-17.86-30.6-3.08-5.45-2.95-11.15,0-16.71a46.06,46.06,0,0,1,3.76-6.47c2.47-3.25,1.8-5.19-1.86-6.72-1.38-.58-3.7-1.09-3.31-3.14s2.7-1.61,4.23-1.93c8.63-1.81,17.3-3.38,25.91-5.28,3.83-.85,5.75.2,6.93,4.06,2.68,8.74,5.81,17.35,8.7,26,.39,1.17,1.39,2.62,0,3.65s-2.65-.05-3.58-.89c-4.21-3.78-6.12-1.62-8.3,2.45-4.94,9.27-5.13,9.18,5.47,9.18q15,0,30,0C335.06,370.17,336.65,370.3,339.15,370.41Z"/><path class="cls-3" d="M309.65,340.52c-1.87-5.58-3.3-9.94-4.79-14.28-1.9-5.49-3.56-6.5-9.37-5.53-4.71.8-9.41,1.75-15.24,2.84,8.06-13.63,15.38-26.47,23.19-39,2.56-4.11,7.16-5.84,12.14-5.85,11.66,0,23.33-.07,35,0,6.18,0,10.68,3.3,14.08,8.21a24.18,24.18,0,0,1,3,5.19c1.78,4.77,4.31,6.2,8.53,2.54.87-.75,2.08-1.6,3.17-.86,1.38.94.62,2.45.22,3.65-3,9-6.11,18-9,27-1,3.05-2.81,3.72-5.72,3.11-9.28-2-18.59-3.81-27.89-5.71-1.11-.23-2.58-.09-2.92-1.47-.44-1.78,1.29-2.3,2.38-2.68,5.27-1.86,4.81-4.72,2-8.53-1.86-2.53-3.23-5.42-5.27-8.91C325.33,313.59,317.87,326.42,309.65,340.52Z"/><path class="cls-18" d="M142,143.56c-6.16,0-12.32.11-18.47-.05-2.66-.06-3.92,1-4.52,3.48-3.87,16.41-14.83,24.86-31,27.42-2.73.43-5.46.06-5.76-3.09-.27-3,2.28-3.52,4.84-3.67,13.47-.78,25.46-11.35,25.86-26,.1-3.57,1.89-5,5.37-5,16,.05,32,.11,47.94,0,3.49,0,5,1.64,5.22,4.61a224.22,224.22,0,0,1,0,27.92c-.14,2.17-.67,5.29-3.73,5s-2.83-3.17-2.82-5.56c0-7-.11-14,0-21,.07-3-.9-4.16-4-4.07C154.61,143.69,148.28,143.56,142,143.56Z"/><path class="cls-12" d="M72.91,142.56c-3.33-1.88-2.83-4-.83-6.74,11.32-15.75,22.46-31.63,33.77-47.39,1.7-2.36,3.06-4.63,3.13-7.64,0-2.46,1.4-4.37,4-4,2.78.4,2.9,2.84,2.59,5.08-1.07,7.64-6.32,13-10.48,18.94-8.58,12.2-17.33,24.29-26,36.43-1.63,2.27-3,4.88-6.15,5.38Z"/><path class="cls-25" d="M40.06,259.19c-4.12-3.94-8.55-7.67-10-13.56-.31-1.29-.45-3,1.25-3.24,1.43-.15,1.57,1.51,1.46,2.64-.39,3.87,2.84,5.79,4.53,8.5C38.45,255.29,40.07,256.73,40.06,259.19Z"/><path class="cls-26" d="M38.11,243.05c.92,6.49,6,10.41,9.62,15.64C41.83,257.46,36.24,248.42,38.11,243.05Z"/><path class="cls-27" d="M24.81,243.14c.49,6.63,7,9.92,8.64,15.8C29.15,254.44,23,251,24.81,243.14Z"/><path class="cls-28" d="M130.6,465.62a8.27,8.27,0,0,1-8.24,7.7,7.91,7.91,0,0,1,.41-15.82A8.22,8.22,0,0,1,130.6,465.62Z"/><path class="cls-29" d="M29.76,465.58a8.23,8.23,0,0,1-8.2,7.75,7.92,7.92,0,0,1,.35-15.83A8.16,8.16,0,0,1,29.76,465.58Z"/><path class="cls-30" d="M265.55,157.05c4.86.42,6.77,1.61,9.05,5.48C270.88,161.66,268.61,159.49,265.55,157.05Z"/></g></g></svg>