<svg width="495" height="610" viewBox="0 0 495 610" fill="none" xmlns="http://www.w3.org/2000/svg">
<path d="M421.147 580.717C424.66 580.937 426.601 576.573 423.943 574.03L423.679 572.979C423.714 572.894 423.749 572.81 423.784 572.726C427.336 564.256 439.376 564.314 442.898 572.797C446.024 580.327 450.004 587.869 450.984 595.829C451.423 599.344 451.226 602.924 450.446 606.372C457.771 590.371 461.626 572.899 461.626 555.328C461.626 550.913 461.384 546.498 460.89 542.094C460.483 538.492 459.923 534.912 459.198 531.365C455.278 512.19 446.789 493.928 434.544 478.674C428.658 475.456 423.749 470.426 420.784 464.397C419.718 462.223 418.884 459.883 418.488 457.5C419.158 457.588 421.014 447.386 420.509 446.76C421.443 445.343 423.113 444.639 424.133 443.257C429.204 436.382 436.19 437.582 439.837 446.925C447.628 450.857 447.704 457.378 442.923 463.65C439.882 467.64 439.464 473.04 436.795 477.312C437.07 477.663 437.355 478.004 437.63 478.355C442.665 484.813 447.019 491.753 450.69 499.045C449.652 490.941 451.184 481.178 453.795 474.885C456.768 467.714 462.339 461.675 467.245 455.476C473.139 448.03 485.223 451.279 486.262 460.718C486.272 460.81 486.281 460.901 486.291 460.992C485.562 461.404 484.848 461.84 484.151 462.302C480.173 464.932 481.548 471.099 486.261 471.826L486.368 471.843C486.104 474.467 485.654 477.07 484.995 479.629C491.289 503.97 477.701 512.836 458.298 513.234C457.87 513.453 457.452 513.673 457.024 513.882C458.99 519.417 460.56 525.094 461.724 530.849C462.768 535.934 463.492 541.073 463.899 546.235C464.404 552.747 464.36 559.292 463.811 565.794L463.844 565.563C465.239 558.403 469.126 551.715 474.771 547.08C483.18 540.173 495.06 537.629 504.132 532.077C508.499 529.404 514.095 532.858 513.333 537.921L513.296 538.163C511.945 538.712 510.627 539.349 509.353 540.063C508.624 540.474 507.911 540.911 507.213 541.372C503.235 544.003 504.61 550.169 509.323 550.897L509.43 550.913C509.507 550.924 509.573 550.935 509.65 550.946C507.332 556.448 504.104 561.555 500.062 565.958C496.127 587.207 479.224 589.223 461.142 583.035H461.131C459.155 591.645 456.266 600.058 452.554 608.074H421.915C421.805 607.734 421.706 607.382 421.607 607.042C424.44 607.218 427.296 607.053 430.085 606.537C427.812 603.748 425.539 600.936 423.265 598.147C423.211 598.092 423.167 598.037 423.123 597.982C421.97 596.554 420.805 595.138 419.652 593.71L419.652 593.708C419.58 589.326 420.105 584.958 421.146 580.718L421.147 580.718L421.147 580.718V580.717Z" fill="#F2F2F2"/>
<path d="M0 607.976C0 609.099 0.901214 610 2.02346 610H538.11C539.232 610 540.133 609.099 540.133 607.976C540.133 606.854 539.232 605.953 538.11 605.953H2.02346C0.901214 605.953 2.59445e-05 606.854 2.59445e-05 607.976H0Z" fill="#CCCCCC"/>
<path d="M201.393 461.77L193.112 468.418L190.46 470.561C190.222 470.238 189.95 469.898 189.678 469.592C187.076 466.65 183.336 464.967 179.425 464.967H112.977C112.756 463.845 112.705 462.705 112.807 461.566C113.096 458.268 114.678 455.088 117.466 452.861L164.139 415.369C169.546 411.016 177.469 411.883 181.822 417.307L203.331 444.087C207.684 449.511 206.817 457.417 201.393 461.77L201.393 461.77Z" fill="#E6E6E6"/>
<path d="M187.483 464.967H105.427C103.285 464.967 101.193 465.477 99.323 466.429L98.8639 466.072C98.0478 465.443 97.3166 464.729 96.7215 463.964C93.168 459.543 92.9469 453.133 96.5515 448.44L117.482 421.201C121.716 415.692 129.622 414.655 135.131 418.889L182.587 455.36C184.729 456.993 186.174 459.186 186.922 461.566C187.262 462.672 187.466 463.811 187.483 464.967V464.967Z" fill="#57AD09"/>
<path d="M206.711 461.617C206.422 461.26 206.133 460.886 205.827 460.546C202.579 456.873 197.92 454.765 193.023 454.765C162.193 459.343 130.713 459.254 98.6229 454.765C95.5283 454.765 92.5358 455.615 89.9173 457.162C88.4041 458.046 87.0098 459.185 85.8197 460.546C82.5721 464.201 81.0588 469.098 81.6539 473.961L96.5656 594.495C97.6198 603.047 104.914 609.492 113.517 609.492H178.129C186.732 609.492 194.027 603.047 195.081 594.495L209.992 473.961C210.536 469.557 209.346 465.136 206.711 461.617V461.617Z" fill="white"/>
<path d="M206.711 461.617C206.422 461.26 206.133 460.886 205.827 460.546C202.579 456.873 197.92 454.765 193.023 454.765C161.557 458.138 130.09 458.138 98.6229 454.765C95.5283 454.765 92.5358 455.615 89.9173 457.162C88.4041 458.046 87.0098 459.185 85.8197 460.546C82.5721 464.201 81.0588 469.098 81.6539 473.961L96.5656 594.495C96.9566 597.709 98.2318 600.616 100.119 602.997C103.265 606.958 108.094 609.475 113.45 609.492H178.129C184.131 609.492 189.504 606.346 192.547 601.551C193.874 599.46 194.758 597.08 195.081 594.495L209.992 473.961C210.536 469.557 209.346 465.136 206.711 461.617V461.617ZM206.609 473.536L191.714 594.07C191.714 594.104 191.697 594.155 191.697 594.189C190.796 600.99 184.981 606.091 178.129 606.091H113.517C106.665 606.091 100.85 600.99 99.9491 594.189C99.9491 594.155 99.9321 594.104 99.9321 594.07L85.0375 473.536C84.5614 469.642 85.7686 465.732 88.3701 462.79C89.5433 461.464 90.9545 460.393 92.5189 459.627C94.3891 458.675 96.4805 458.165 98.6229 458.165C130.09 464.288 161.557 464.288 193.023 458.165C196.934 458.165 200.675 459.849 203.276 462.79C203.548 463.096 203.82 463.436 204.058 463.759C206.116 466.565 207.034 470.067 206.609 473.536V473.536Z" fill="#3F3D56"/>
<path d="M193.432 594.188L192.548 601.55C189.504 606.345 184.131 609.49 178.129 609.49H113.45C108.094 609.473 103.265 606.957 100.12 602.995L99.9155 594.188H193.432V594.188Z" fill="#3F3D56"/>
<path d="M261.503 199.415L180.119 255.342L170.086 244.496L244.952 181.767L261.503 199.415Z" fill="#A0616A"/>
<path d="M173.842 264.872C181.852 258.439 185.249 249.368 181.429 244.612C177.609 239.856 168.019 241.216 160.009 247.649C151.999 254.083 148.602 263.153 152.422 267.909C156.242 272.665 165.832 271.305 173.842 264.872Z" fill="#A0616A"/>
<path d="M303.282 600.223L287.818 600.222L280.462 540.574L303.285 540.576L303.282 600.223Z" fill="#A0616A"/>
<path d="M250.302 599.875C249.821 600.686 249.566 603.303 249.566 604.246C249.566 607.145 251.916 609.495 254.815 609.495H302.705C304.682 609.495 306.285 607.892 306.285 605.914V603.92C306.285 603.92 308.655 597.928 303.777 590.542C303.777 590.542 297.715 596.325 288.657 587.267L285.985 582.428L266.649 596.569L255.932 597.888C253.587 598.177 251.508 597.843 250.302 599.875V599.875Z" fill="#2F2E41"/>
<path d="M355.545 600.223L340.081 600.222L332.725 540.574L355.548 540.576L355.545 600.223Z" fill="#A0616A"/>
<path d="M302.565 599.875C302.083 600.686 301.829 603.303 301.829 604.246C301.829 607.145 304.179 609.495 307.078 609.495H354.968C356.945 609.495 358.548 607.892 358.548 605.914V603.92C358.548 603.92 360.917 597.928 356.04 590.542C356.04 590.542 349.978 596.325 340.919 587.267L338.248 582.428L318.912 596.569L308.194 597.888C305.85 598.177 303.771 597.843 302.565 599.875V599.875Z" fill="#2F2E41"/>
<path d="M276.669 267.753L258.954 437.817C258.954 437.817 271.354 553.85 274.011 553.85C276.669 553.85 279.326 556.04 276.669 558.488C274.011 560.936 270.468 562.707 274.011 562.707C277.554 562.707 277.984 561.626 277.769 565.267C277.554 568.908 274.897 571.565 274.897 571.565L311.213 568.908L306.784 450.217L323.613 355.442C323.613 355.442 328.928 552.964 330.699 554.736C332.471 556.507 332.471 552.078 332.471 556.507C332.471 560.936 330.699 562.707 330.699 562.707L330.616 571.565H356.979L394.473 325.327L388.273 263.324L276.669 267.753V267.753Z" fill="#2F2E41"/>
<path d="M363.473 84.4111H331.586L312.456 89.1989C302.125 95.3332 283.604 113.59 284.07 125.596L288.185 231.445C288.185 231.445 274.093 264.657 276.75 264.657C279.407 264.657 266.484 275.29 266.484 281.49C266.484 287.691 262.055 286.805 264.712 289.462C267.37 292.119 394.475 289.462 394.475 289.462C394.475 289.462 395.803 286.805 395.803 282.376C395.803 277.947 398.44 275.311 398.44 275.311V266.994L390.489 238.089L404.661 108.769L363.473 84.4111V84.4111Z" fill="#57AD09"/>
<path d="M204.327 213.593L215.185 232.393C221.113 228.803 249.754 211.597 254.708 211.197C256.573 211.046 256.991 210.696 257.075 210.591C257.157 210.488 257.133 210.257 257.083 209.889C257.006 209.318 256.889 208.454 257.559 207.717C258.54 206.636 259.401 207.287 259.817 207.599C260.461 208.086 261.542 208.899 265.023 208.406C265.914 208.28 266.474 208.172 266.826 208.087L266.787 208.051C266.029 207.335 264.757 206.138 264.665 204.215C264.582 202.493 264.56 202.032 265.188 201.734C265.767 201.464 266.219 201.871 266.488 202.113C266.942 202.526 267.689 203.202 269.227 203.144C273.162 201.857 309.728 149.06 316.867 128.027C318.646 122.79 318.426 117.927 316.215 113.575C311.976 105.23 301.597 101.05 299.036 100.125L247.126 172.977L204.327 213.593H204.327Z" fill="#57AD09"/>
<path d="M348.092 77.6046C367.062 77.6046 382.44 62.2268 382.44 43.2574C382.44 24.2879 367.062 8.91016 348.092 8.91016C329.123 8.91016 313.745 24.2879 313.745 43.2574C313.745 62.2268 329.123 77.6046 348.092 77.6046Z" fill="#A0616A"/>
<path d="M389.649 22.375C386.63 15.9019 379.941 10.8723 372.808 11.2393C373.238 9.44258 372.441 7.51979 371.16 6.18905C369.879 4.85841 368.173 4.02569 366.463 3.32645C358.011 -0.129561 348.493 -0.922427 339.586 1.08765C338.692 -0.150373 325.98 2.97423 327.5 3.63757C329.02 4.30102 323.462 5.88549 323.2 7.52322C322.912 9.31754 321.011 10.4176 319.215 10.6975C317.42 10.9775 315.566 10.7049 313.781 11.0451C310.183 11.7306 314.21 16.1539 314.158 19.8161C314.107 23.4784 309.982 25.9882 313.56 26.7746C317.252 27.5864 312.145 34.1241 315.858 33.4185C324.26 31.8224 360.949 28.4193 364.214 36.3234C365.121 38.5181 365.689 41.0048 367.471 42.5745C369.896 44.7113 373.936 44.5396 375.92 47.0915C377.52 49.1486 377.062 52.169 375.879 54.4908C374.696 56.8127 372.897 58.7901 371.826 61.1654C370.389 64.3498 370.397 67.897 370.807 71.4184C371.124 71.2527 371.612 71.0872 372.344 70.9216L372.028 70.9613C381.194 64.2846 387.929 54.3418 390.729 43.3528C392.492 36.4316 392.667 28.848 389.649 22.375V22.375Z" fill="#2F2E41"/>
<path d="M413.794 308.541H353.936C346.989 308.541 341.357 314.172 341.357 321.119V355.473C341.357 362.42 346.989 368.051 353.936 368.051H413.794C420.741 368.051 426.372 362.42 426.372 355.473V321.119C426.372 314.172 420.741 308.541 413.794 308.541Z" fill="#57AD09"/>
<path d="M425.731 212.503L391.775 305.229L377.314 302.197L402.016 207.701L425.731 212.503Z" fill="#A0616A"/>
<path d="M392.184 316.634C394.988 306.75 392.504 297.388 386.636 295.723C380.768 294.058 373.737 300.721 370.933 310.604C368.129 320.488 370.613 329.85 376.481 331.515C382.35 333.18 389.38 326.517 392.184 316.634Z" fill="#A0616A"/>
<path d="M370.263 89.2041C370.263 89.2041 407.315 95.4882 416.172 115.86C425.03 136.233 433.887 201.778 431.23 204.435C428.573 207.093 425.915 204.435 428.573 207.093C431.23 209.75 435.732 206.249 431.709 211.099C427.687 215.95 425.915 213.293 425.915 215.064C425.915 216.836 429.458 216.355 425.915 220.138C422.372 223.922 410.858 262.895 410.858 262.895L388.714 255.809L393.143 196.464L370.263 89.2041V89.2041Z" fill="#57AD09"/>
<path d="M192.761 259.229H132.903C125.956 259.229 120.325 264.861 120.325 271.808V306.162C120.325 313.108 125.956 318.74 132.903 318.74H192.761C199.708 318.74 205.34 313.108 205.34 306.162V271.808C205.34 264.861 199.708 259.229 192.761 259.229Z" fill="#3F3D56"/>
<path d="M84.6342 476.869L84.5913 480.27L206.69 481.809L206.733 478.408L84.6342 476.869Z" fill="#3F3D56"/>
</svg>
