<svg width="750" height="100" viewBox="0 -4 750 864" fill="none" xmlns="http://www.w3.org/2000/svg">
<path d="M165.218 822.949C160.34 823.261 157.645 817.076 161.335 813.472L161.702 811.982C161.654 811.863 161.605 811.744 161.556 811.625C156.624 799.621 139.906 799.704 135.016 811.725C130.675 822.395 125.149 833.083 123.788 844.365C123.178 849.345 123.452 854.418 124.535 859.305C114.364 836.63 109.011 811.87 109.011 786.969C109.011 780.713 109.347 774.456 110.033 768.216C110.597 763.111 111.375 758.038 112.382 753.011C117.825 725.838 129.613 699.957 146.615 678.34C154.789 673.78 161.605 666.652 165.722 658.109C167.201 655.027 168.36 651.712 168.909 648.335C167.979 648.46 165.402 634.002 166.104 633.115C164.807 631.107 162.487 630.109 161.071 628.15C154.03 618.407 144.33 620.109 139.265 633.348C128.447 638.92 128.342 648.162 134.98 657.05C139.204 662.705 139.784 670.356 143.489 676.41C143.108 676.908 142.712 677.391 142.33 677.889C135.339 687.04 129.293 696.876 124.196 707.21C125.636 695.725 123.51 681.89 119.884 672.971C115.756 662.809 108.02 654.251 101.208 645.466C93.0247 634.914 76.2447 639.519 74.803 652.896C74.789 653.025 74.7755 653.154 74.7621 653.284C75.774 653.867 76.7654 654.485 77.7337 655.139C83.2571 658.867 81.3482 667.606 74.8036 668.637L74.6554 668.66C75.0215 672.38 75.6467 676.068 76.5615 679.694C67.8218 714.189 86.6902 726.752 113.632 727.317C114.226 727.628 114.806 727.939 115.401 728.235C112.671 736.078 110.49 744.124 108.874 752.279C107.425 759.485 106.419 766.768 105.855 774.083C105.153 783.312 105.214 792.587 105.977 801.8L105.931 801.474C103.995 791.327 98.5963 781.849 90.7583 775.281C79.082 765.492 62.5856 761.887 49.9889 754.019C43.9253 750.231 36.1552 755.126 37.2134 762.301L37.2649 762.644C39.1405 763.422 40.9703 764.325 42.7392 765.337C43.7511 765.919 44.7425 766.538 45.7109 767.192C51.2343 770.92 49.3253 779.658 42.7807 780.689L42.6325 780.713C42.5257 780.728 42.4342 780.744 42.3276 780.76C45.5452 788.556 50.0283 795.793 55.6399 802.034C61.1046 832.146 84.5756 835.003 109.682 826.234H109.698C112.442 838.436 116.453 850.357 121.607 861.717H164.152C164.304 861.235 164.441 860.737 164.579 860.254C160.645 860.504 156.68 860.27 152.806 859.539C155.963 855.586 159.119 851.602 162.276 847.649C162.352 847.571 162.413 847.493 162.474 847.415C164.075 845.392 165.692 843.385 167.293 841.361L167.294 841.359C167.394 835.148 166.665 828.958 165.219 822.951L165.218 822.95L165.218 822.949V822.949Z" fill="#F2F2F2"/>
<path d="M750 861.579C750 863.17 748.749 864.447 747.19 864.447H2.80939C1.25122 864.447 -0.00012207 863.17 -0.00012207 861.579C-0.00012207 859.989 1.25122 858.712 2.80939 858.712H747.19C748.749 858.712 750 859.989 750 861.579H750Z" fill="#CCCCCC"/>
<path d="M470.357 654.386L481.855 663.807L485.538 666.844C485.869 666.386 486.247 665.904 486.624 665.47C490.237 661.302 495.431 658.916 500.861 658.916H593.126C593.433 657.326 593.504 655.711 593.362 654.097C592.961 649.423 590.765 644.917 586.893 641.76L522.086 588.63C514.578 582.461 503.576 583.69 497.532 591.377L467.666 629.327C461.622 637.013 462.826 648.218 470.358 654.386L470.357 654.386Z" fill="#E6E6E6"/>
<path d="M489.671 658.917H603.61C606.584 658.917 609.488 659.64 612.085 660.99L612.723 660.484C613.856 659.592 614.871 658.58 615.698 657.496C620.632 651.231 620.939 642.147 615.934 635.497L586.87 596.896C580.992 589.089 570.013 587.619 562.364 593.619L496.47 645.304C493.495 647.617 491.488 650.725 490.45 654.098C489.977 655.665 489.694 657.279 489.671 658.917Z" fill="#57AD09"/>
<path d="M462.973 654.169C463.374 653.663 463.775 653.133 464.2 652.651C468.71 647.447 475.179 644.459 481.978 644.459C524.788 650.948 568.498 650.821 613.058 644.459C617.354 644.459 621.51 645.664 625.146 647.856C627.247 649.109 629.183 650.724 630.835 652.651C635.345 657.832 637.446 664.771 636.62 671.663L615.914 842.475C614.45 854.594 604.322 863.727 592.376 863.727H502.66C490.714 863.727 480.585 854.594 479.121 842.475L458.416 671.663C457.66 665.422 459.313 659.157 462.973 654.169Z" fill="white"/>
<path d="M462.973 654.169C463.374 653.663 463.775 653.133 464.2 652.651C468.71 647.447 475.179 644.459 481.978 644.459C525.671 649.24 569.364 649.24 613.058 644.459C617.354 644.459 621.51 645.664 625.146 647.856C627.247 649.109 629.183 650.724 630.835 652.651C635.345 657.832 637.446 664.771 636.62 671.663L615.914 842.475C615.371 847.029 613.601 851.149 610.98 854.522C606.612 860.136 599.907 863.703 592.47 863.727H502.66C494.326 863.727 486.865 859.269 482.639 852.474C480.798 849.51 479.57 846.137 479.121 842.475L458.416 671.663C457.66 665.422 459.313 659.157 462.973 654.169ZM463.114 671.06L483.796 841.872C483.796 841.92 483.82 841.993 483.82 842.041C485.071 851.679 493.145 858.908 502.66 858.908H592.376C601.89 858.908 609.965 851.679 611.216 842.041C611.216 841.993 611.24 841.92 611.24 841.872L631.921 671.06C632.583 665.542 630.906 660.001 627.294 655.832C625.665 653.953 623.705 652.435 621.533 651.35C618.936 650.001 616.032 649.278 613.058 649.278C569.364 657.955 525.671 657.955 481.978 649.278C476.548 649.278 471.354 651.663 467.742 655.832C467.364 656.266 466.986 656.748 466.656 657.205C463.799 661.181 462.524 666.145 463.114 671.06Z" fill="#3F3D56"/>
<path d="M481.411 842.038L482.638 852.471C486.864 859.266 494.325 863.724 502.659 863.724H592.469C599.906 863.7 606.611 860.134 610.979 854.519L611.262 842.038H481.411Z" fill="#3F3D56"/>
<path d="M386.891 282.597L499.896 361.853L513.828 346.482L409.874 257.587L386.891 282.597Z" fill="#A0616A"/>
<path d="M508.613 375.358C497.491 366.242 492.774 353.387 498.078 346.648C503.382 339.908 516.698 341.835 527.82 350.952C538.942 360.068 543.659 372.923 538.355 379.662C533.051 386.402 519.735 384.475 508.613 375.358Z" fill="#A0616A"/>
<path d="M328.879 850.592L350.351 850.59L360.566 766.062L328.874 766.065L328.879 850.592Z" fill="#A0616A"/>
<path d="M402.444 850.099C403.113 851.248 403.466 854.957 403.466 856.293C403.466 860.401 400.203 863.731 396.178 863.731H329.681C326.935 863.731 324.709 861.459 324.709 858.657V855.832C324.709 855.832 321.419 847.34 328.192 836.873C328.192 836.873 336.609 845.068 349.187 832.232L352.896 825.374L379.745 845.414L394.627 847.284C397.883 847.693 400.77 847.22 402.444 850.099Z" fill="#2F2E41"/>
<path d="M256.309 850.592L277.782 850.59L287.996 766.062L256.305 766.065L256.309 850.592Z" fill="#A0616A"/>
<path d="M329.875 850.099C330.544 851.248 330.896 854.957 330.896 856.293C330.896 860.401 327.634 863.731 323.609 863.731H257.111C254.365 863.731 252.139 861.459 252.139 858.657V855.832C252.139 855.832 248.85 847.34 255.623 836.873C255.623 836.873 264.04 845.068 276.618 832.232L280.327 825.374L307.176 845.414L322.058 847.284C325.314 847.693 328.2 847.22 329.875 850.099Z" fill="#2F2E41"/>
<path d="M365.833 379.44L390.431 620.442C390.431 620.442 373.212 784.876 369.522 784.876C365.833 784.876 362.143 787.979 365.833 791.448C369.522 794.917 374.442 797.428 369.522 797.428C364.603 797.428 364.006 795.896 364.304 801.055C364.603 806.214 368.292 809.98 368.292 809.98L317.866 806.214L324.016 638.015L300.648 503.707C300.648 503.707 293.268 783.62 290.808 786.131C288.349 788.641 288.349 782.365 288.349 788.641C288.349 794.917 290.808 797.428 290.808 797.428L290.925 809.98H254.318L202.255 461.029L210.865 373.164L365.833 379.44V379.44Z" fill="#2F2E41"/>
<path d="M245.3 119.621H289.577L316.14 126.406C330.485 135.099 356.203 160.971 355.555 177.985L349.842 327.987C349.842 327.987 369.409 375.052 365.719 375.052C362.03 375.052 379.975 390.121 379.975 398.907C379.975 407.694 386.124 406.438 382.434 410.204C378.745 413.97 202.253 410.204 202.253 410.204C202.253 410.204 200.409 406.438 200.409 400.162C200.409 393.886 196.748 390.15 196.748 390.15V378.364L207.788 337.401L188.11 154.14L245.3 119.621Z" fill="#57AD09"/>
<path d="M466.282 302.688L451.206 329.33C442.974 324.243 403.206 299.86 396.327 299.293C393.737 299.079 393.157 298.582 393.04 298.434C392.926 298.288 392.96 297.961 393.029 297.439C393.136 296.629 393.297 295.406 392.368 294.361C391.006 292.829 389.81 293.752 389.233 294.194C388.338 294.883 386.837 296.036 382.003 295.337C380.766 295.159 379.988 295.006 379.499 294.886L379.554 294.834C380.607 293.82 382.372 292.123 382.5 289.398C382.615 286.958 382.647 286.304 381.775 285.883C380.97 285.499 380.343 286.076 379.97 286.419C379.339 287.005 378.302 287.963 376.165 287.881C370.702 286.057 319.928 211.237 310.015 181.431C307.546 174.009 307.852 167.117 310.921 160.949C316.808 149.124 331.219 143.2 334.775 141.89L406.854 245.13L466.282 302.688H466.282Z" fill="#57AD09"/>
<path d="M266.658 109.976C240.318 109.976 218.965 88.1833 218.965 61.3013C218.965 34.4192 240.318 12.627 266.658 12.627C292.998 12.627 314.35 34.4192 314.35 61.3013C314.35 88.1833 292.998 109.976 266.658 109.976Z" fill="#A0616A"/>
<path d="M208.955 31.7082C213.146 22.535 222.435 15.4075 232.339 15.9275C231.742 13.3813 232.848 10.6565 234.627 8.77066C236.406 6.88498 238.775 5.70491 241.15 4.71399C252.885 -0.183605 266.102 -1.3072 278.469 1.54133C279.711 -0.213098 297.362 4.21486 295.251 5.15489C293.141 6.09509 300.858 8.34049 301.222 10.6614C301.622 13.2041 304.262 14.763 306.755 15.1597C309.248 15.5564 311.822 15.1702 314.301 15.6523C319.297 16.6237 313.705 22.8921 313.777 28.082C313.849 33.2719 319.575 36.8286 314.608 37.9431C309.481 39.0934 316.573 48.3581 311.416 47.3582C299.75 45.0964 248.806 40.2737 244.272 51.4748C243.013 54.5849 242.224 58.109 239.75 60.3335C236.382 63.3615 230.772 63.1182 228.017 66.7345C225.796 69.6498 226.433 73.9301 228.075 77.2204C229.717 80.5107 232.215 83.313 233.703 86.6791C235.698 91.1918 235.687 96.2186 235.118 101.209C234.677 100.974 233.999 100.74 232.983 100.505L233.421 100.561C220.694 91.0993 211.343 77.0092 207.455 61.4363C205.007 51.6282 204.764 40.8813 208.955 31.7082V31.7082Z" fill="#2F2E41"/>
<path d="M175.428 437.242H258.544C268.19 437.242 276.01 445.223 276.01 455.067V503.751C276.01 513.595 268.19 521.576 258.544 521.576H175.428C165.782 521.576 157.963 513.595 157.963 503.751V455.067C157.963 445.223 165.782 437.242 175.428 437.242Z" fill="#57AD09"/>
<path d="M158.853 301.143L206.003 432.548L226.082 428.252L191.782 294.339L158.853 301.143Z" fill="#A0616A"/>
<path d="M205.434 448.71C201.541 434.704 204.99 421.437 213.138 419.078C221.287 416.718 231.049 426.16 234.942 440.166C238.836 454.172 235.387 467.439 227.238 469.799C219.09 472.158 209.328 462.716 205.434 448.71Z" fill="#A0616A"/>
<path d="M235.873 126.414C235.873 126.414 184.425 135.319 172.126 164.189C159.827 193.059 147.528 285.946 151.217 289.711C154.907 293.477 158.597 289.711 154.907 293.477C151.217 297.243 144.967 292.281 150.552 299.155C156.137 306.029 158.597 302.264 158.597 304.774C158.597 307.284 153.677 306.602 158.597 311.964C163.517 317.326 179.505 372.556 179.505 372.556L210.253 362.514L204.103 278.414L235.873 126.414V126.414Z" fill="#57AD09"/>
<path d="M482.342 367.361H565.458C575.104 367.361 582.924 375.342 582.924 385.186V433.87C582.924 443.715 575.104 451.695 565.458 451.695H482.342C472.696 451.695 464.877 443.715 464.877 433.87V385.186C464.877 375.342 472.696 367.361 482.342 367.361Z" fill="#3F3D56"/>
<path d="M632.481 675.783L632.541 680.603L463.002 682.784L462.942 677.965L632.481 675.783Z" fill="#3F3D56"/>
</svg>
