<svg width="273" height="716" viewBox="0 0 273 716" fill="none" xmlns="http://www.w3.org/2000/svg">
<path d="M158.563 697.152L193.6 694.423L191.818 654.572L156.484 657.575L158.563 697.152Z" fill="#8AC41A"/>
<path d="M223.877 691.692C223.877 691.692 200.717 681.866 196.857 674.769C196.857 674.769 190.028 651.842 179.635 663.851C179.635 663.851 168.946 671.767 153.803 665.489L152.021 708.888L256.835 708.615C254.163 702.064 251.788 694.694 223.877 691.692Z" fill="url(#paint0_linear_299_12776)"/>
<path d="M152.023 709.159L151.429 715.982L257.133 715.709C257.133 712.98 258.024 711.615 256.539 708.886L152.023 709.159Z" fill="#9BCB1F"/>
<path d="M5.04688 691.69L40.0839 697.149L49.2885 658.391L14.5485 652.932L5.04688 691.69Z" fill="#8AC41A"/>
<path d="M72.4489 691.69C72.4489 691.69 49.289 681.863 45.429 674.767C45.429 674.767 50.7736 656.752 38.3029 665.759C38.3029 665.759 16.9244 673.129 8.01674 664.122L0.890625 709.158L105.704 708.885C102.438 702.062 100.063 694.692 72.4489 691.69Z" fill="url(#paint1_linear_299_12776)"/>
<path d="M0.59379 709.156L0 715.979L105.704 715.707C105.704 712.977 106.595 711.612 105.111 708.883L0.59379 709.156Z" fill="#9BCB1F"/>
<path d="M199.536 321.572C199.536 321.572 205.772 485.614 200.13 672.037C200.13 672.037 183.205 686.776 151.138 676.95C151.138 676.95 151.435 469.51 142.824 387.08C142.824 387.08 102.442 543.752 51.3717 679.407C51.3717 679.407 17.2256 685.412 5.05176 667.67C5.05176 667.67 73.9378 447.947 84.0332 321.572H199.536Z" fill="url(#paint2_linear_299_12776)"/>
<path d="M199.538 321.572H84.0357C83.1449 331.125 82.2541 341.225 80.7695 351.597C149.655 351.87 186.177 335.766 199.835 328.396C199.835 323.756 199.538 321.572 199.538 321.572Z" fill="#402B2B" fill-opacity="0.45" style="mix-blend-mode:multiply"/>
<path d="M187.956 46.7146H159.452L155.592 30.8837C155.592 30.8837 166.875 36.8886 169.547 32.7944C172.219 28.7001 171.626 30.3378 174.298 30.8837C176.97 31.4296 176.97 28.1542 180.236 30.0649C183.799 32.2485 189.144 42.6204 187.956 46.7146Z" fill="#6B1912"/>
<path d="M250.641 252.312L222.428 213.126L181.75 223.978C183.324 235.552 209.525 270.197 222.428 286.072L250.641 252.312Z" fill="url(#paint3_linear_299_12776)"/>
<path d="M246.701 238.132C232.851 180.24 205.621 140.565 205.621 140.565C190.295 143.656 184.674 192.9 184.674 192.9C187.924 210.097 197.788 254.795 205.621 271.289L246.701 238.132Z" fill="url(#paint4_linear_299_12776)"/>
<path d="M205.772 139.921C205.772 139.921 204.288 171.31 199.834 322.25C199.834 322.25 159.452 341.084 78.9864 327.982C78.9864 327.982 78.6895 282.673 67.7034 242.549C67.7034 242.549 47.2158 166.943 57.608 144.834C57.608 144.834 123.228 107.44 205.772 139.921Z" fill="url(#paint5_linear_299_12776)"/>
<path d="M143.414 110.008L144.008 129.551C144.008 129.551 138.96 136.375 126.786 137.194C114.612 137.74 108.674 131.462 108.674 131.462L107.486 102.365C122.629 108.37 137.475 110.827 143.414 110.008Z" fill="url(#paint6_linear_299_12776)"/>
<path d="M142.226 101.983L143.414 123.546C137.476 124.365 122.629 121.909 107.783 115.904L106.893 101.983H142.226V101.983Z" fill="url(#paint7_linear_299_12776)" style="mix-blend-mode:multiply"/>
<path d="M61.7645 187.415C61.7645 187.415 79.2829 223.717 85.5183 240.094C91.7536 256.198 91.7537 320.341 124.415 332.623C124.415 332.623 89.6752 330.713 78.6891 327.983C78.6891 327.983 78.0952 279.671 67.406 242.55C67.406 242.55 59.9829 203.519 57.0137 185.777L61.7645 187.415Z" fill="#EE4D47" fill-opacity="0.29" style="mix-blend-mode:multiply"/>
<path d="M84.9297 54.4911C85.5235 54.7641 86.1175 63.4983 86.1175 63.4983L88.4928 81.7858L99.479 89.7013L105.714 92.1578C105.714 92.1578 114.919 88.6095 113.731 85.3341C112.544 82.3317 106.605 39.2061 105.417 39.2061C104.23 39.2061 94.7282 45.4838 94.7282 45.4838L84.9297 54.4911Z" fill="#402B2B"/>
<path d="M171.929 38.1113C174.601 38.1113 170.445 68.1356 170.445 68.1356L165.694 56.1259L162.428 41.6596L171.929 38.1113Z" fill="#402B2B"/>
<path d="M167.472 44.1158L172.52 82.6015C172.52 82.6015 174.301 115.082 145.203 116.993C116.105 118.631 96.2108 92.1547 96.2108 92.1547C96.2108 92.1547 92.6477 95.9759 88.7877 89.4252C85.2247 82.8745 87.6 74.1401 92.6477 73.3213C97.9923 72.7754 100.368 75.5048 100.962 79.5991C101.555 83.6933 102.149 86.6957 102.149 86.6957L106.603 86.1499L103.337 54.4879C103.337 54.4879 110.166 42.2053 117.886 39.7488C125.606 37.2922 132.435 47.1183 132.435 47.1183C132.435 47.1183 139.561 48.483 146.391 47.1183C153.22 45.7536 157.674 44.1158 157.674 44.1158C157.674 44.1158 161.831 45.2076 167.472 44.1158Z" fill="url(#paint8_linear_299_12776)"/>
<path d="M146.385 102.256C136.586 102.802 135.102 92.4297 135.102 92.4297C135.102 92.4297 157.668 89.9731 158.261 89.7002C158.261 89.7002 160.043 101.437 146.385 102.256Z" fill="#893D43"/>
<path d="M135.995 95.705C135.105 93.7944 134.808 92.4297 134.808 92.4297C134.808 92.4297 157.374 89.9731 157.968 89.7002C157.968 89.7002 158.264 91.0649 157.968 93.2485L135.995 95.705Z" fill="#FFFEFF"/>
<path d="M136.89 34.2909V6.4502C118.777 7.26904 100.071 10.5444 90.8667 20.9164C79.8805 33.199 86.116 61.5857 86.116 61.5857C86.116 61.5857 99.4774 60.221 101.853 56.1267C104.228 52.0325 126.794 46.3006 144.016 47.1194C161.237 47.9382 169.551 46.3006 178.162 39.4769C179.944 38.1122 181.428 36.2015 182.616 34.0179H136.89V34.2909Z" fill="#402B2B"/>
<path d="M84.0396 51.2138C84.0396 51.2138 96.8073 47.3925 118.186 45.7548C154.113 31.8345 169.553 34.2911 169.553 34.2911C169.553 34.2911 169.257 23.6461 165.99 16.2765C162.724 8.9069 140.752 -1.46511 122.343 0.172582C103.933 1.81027 84.9304 14.3658 81.9611 26.3755C79.5858 35.6558 84.0396 51.2138 84.0396 51.2138Z" fill="url(#paint9_linear_299_12776)"/>
<path d="M105.713 47.1195C109.573 30.1967 137.187 21.7354 156.784 22.0084C176.084 22.2813 189.742 37.0204 191.82 47.1195C192.711 51.2138 189.148 51.7596 187.96 48.2113C187.07 45.7548 185.288 34.0181 167.473 35.3828C149.657 36.7475 150.548 51.4867 141.641 52.8515C133.327 54.2162 123.825 48.7572 105.713 47.1195Z" fill="url(#paint10_linear_299_12776)"/>
<path d="M165.402 50.9395V49.0289C164.511 49.0289 157.682 48.2101 149.368 49.8478L149.665 52.8502C156.494 50.9396 165.402 50.9395 165.402 50.9395Z" fill="#402B2B"/>
<path d="M115.227 57.7639C120.571 55.0343 130.667 53.6695 130.667 53.3966L129.479 50.667C129.182 50.667 119.977 52.3047 114.039 55.8532L115.227 57.7639Z" fill="#402B2B"/>
<path d="M144.903 67.043C144.903 67.043 145.794 72.7748 148.17 74.4125C150.545 76.0502 154.702 77.415 155.296 78.7797C155.89 79.8715 154.702 82.0551 152.03 82.8739C149.357 83.6928 149.06 84.5116 149.06 84.5116C149.06 84.5116 154.405 85.0576 157.077 82.0551C159.75 79.0527 156.78 76.5962 154.108 75.2314C151.436 73.8667 150.248 73.3208 149.06 72.5019C147.576 71.6831 144.903 67.043 144.903 67.043Z" fill="#D87C60"/>
<path d="M132.136 70.0454C132.136 72.7749 130.058 75.2314 127.386 75.2314C124.713 75.2314 122.635 73.0478 122.635 70.0454C122.635 67.3159 124.713 64.8594 127.386 64.8594C130.058 64.8594 132.136 67.0429 132.136 70.0454Z" fill="#402B2B"/>
<path d="M164.8 66.5004C164.8 69.2299 162.722 71.6864 160.05 71.6864C157.377 71.6864 155.299 69.5029 155.299 66.5004C155.299 63.771 157.377 61.3145 160.05 61.3145C162.722 61.5874 164.8 63.771 164.8 66.5004Z" fill="#402B2B"/>
<path d="M184.372 269.487C188.046 262.735 187.215 257.43 186.34 255.621C182.622 257.631 174.924 262.735 173.874 267.075C172.824 271.416 175.186 276.922 176.499 279.133C177.592 278.731 180.698 276.239 184.372 269.487Z" fill="url(#paint11_linear_299_12776)"/>
<path fill-rule="evenodd" clip-rule="evenodd" d="M77.5059 266.853C55.8305 237.921 52.8613 150.305 52.8613 150.305C72.806 152.688 82.3312 170.829 88.4503 182.482C91.441 188.178 93.618 192.324 95.8002 192.324L104.986 245.979L196.84 261.05C196.917 261.147 196.992 261.243 197.066 261.339C201.588 261.448 217.293 262.261 227.549 268.263C227.549 268.263 232.862 271.921 229.808 274.486C228.348 275.952 228.813 277.538 229.278 279.125C229.743 280.711 230.209 282.298 228.748 283.763C227.516 284.999 227.324 286.278 227.135 287.537C226.875 289.262 226.622 290.948 223.704 292.432C223.704 292.432 224.236 296.337 220.386 297.926C220.211 297.998 220.026 298.074 219.833 298.154C215.766 299.837 207.832 303.12 206.31 301.839C205.738 301.358 204.311 300.406 202.711 299.337C199.85 297.428 196.434 295.148 196.348 294.521C196.215 293.545 196.48 291.836 199.933 291.59C199.933 291.59 196.613 290.982 193.159 288.787C189.573 286.836 185.721 281.711 185.721 281.711L182.228 274.379C97.1232 281.044 77.5059 266.853 77.5059 266.853Z" fill="url(#paint12_linear_299_12776)"/>
<path d="M102.444 190.423L110.758 230.546L112.856 240.645L186.34 255.62C182.84 258.433 175.973 266.953 176.498 278.528C153.753 281.543 102.621 284.678 80.0508 273.103C75.9353 270.153 66.6948 259.533 62.6566 240.645C36.2305 157.123 57.609 144.841 57.609 144.841C87.3013 148.389 102.444 190.423 102.444 190.423Z" fill="url(#paint13_linear_299_12776)"/>
<defs>
<linearGradient id="paint0_linear_299_12776" x1="204.428" y1="668.757" x2="204.428" y2="710.216" gradientUnits="userSpaceOnUse">
<stop stop-color="#9DCC20"/>
<stop offset="1" stop-color="#618E0A"/>
</linearGradient>
<linearGradient id="paint1_linear_299_12776" x1="53.2974" y1="653.825" x2="53.2974" y2="710.416" gradientUnits="userSpaceOnUse">
<stop stop-color="#ECF4C3"/>
<stop offset="1" stop-color="#8FC51B"/>
</linearGradient>
<linearGradient id="paint2_linear_299_12776" x1="103.772" y1="220.086" x2="103.772" y2="680.385" gradientUnits="userSpaceOnUse">
<stop stop-color="#822626"/>
<stop offset="0.943497" stop-color="#402B2B"/>
</linearGradient>
<linearGradient id="paint3_linear_299_12776" x1="218.334" y1="213.126" x2="218.334" y2="284.9" gradientUnits="userSpaceOnUse">
<stop stop-color="#1B1414"/>
<stop offset="1" stop-color="#FFC8C1"/>
</linearGradient>
<linearGradient id="paint4_linear_299_12776" x1="235.548" y1="281.538" x2="197.324" y2="151.847" gradientUnits="userSpaceOnUse">
<stop stop-color="#BCD829"/>
<stop offset="1" stop-color="#57AE09"/>
</linearGradient>
<linearGradient id="paint5_linear_299_12776" x1="130.22" y1="48.2279" x2="130.22" y2="325.545" gradientUnits="userSpaceOnUse">
<stop stop-color="#BCD829"/>
<stop offset="1" stop-color="#57AE09"/>
</linearGradient>
<linearGradient id="paint6_linear_299_12776" x1="113.579" y1="128.144" x2="142.782" y2="141.851" gradientUnits="userSpaceOnUse">
<stop stop-color="#FFB3B6"/>
<stop offset="1" stop-color="#FFC8C1"/>
</linearGradient>
<linearGradient id="paint7_linear_299_12776" x1="112.986" y1="114.448" x2="142.379" y2="127.995" gradientUnits="userSpaceOnUse">
<stop stop-color="#FFB3B6" stop-opacity="0.31"/>
<stop offset="1" stop-color="#FFC8C1"/>
</linearGradient>
<linearGradient id="paint8_linear_299_12776" x1="176.389" y1="107.648" x2="170.953" y2="54.775" gradientUnits="userSpaceOnUse">
<stop stop-color="#FFB3B6"/>
<stop offset="1" stop-color="#FFC8C1"/>
</linearGradient>
<linearGradient id="paint9_linear_299_12776" x1="125.409" y1="-27.5016" x2="125.409" y2="51.8601" gradientUnits="userSpaceOnUse">
<stop stop-color="#BCD829"/>
<stop offset="1" stop-color="#57AE09"/>
</linearGradient>
<linearGradient id="paint10_linear_299_12776" x1="123.15" y1="14.1436" x2="123.15" y2="96.6483" gradientUnits="userSpaceOnUse">
<stop stop-color="#BCD829"/>
<stop offset="1" stop-color="#57AE09"/>
</linearGradient>
<linearGradient id="paint11_linear_299_12776" x1="174.53" y1="256.827" x2="204.358" y2="269.679" gradientUnits="userSpaceOnUse">
<stop stop-color="#57AE09"/>
<stop offset="1" stop-color="#BCD829"/>
</linearGradient>
<linearGradient id="paint12_linear_299_12776" x1="82.1038" y1="226.309" x2="233.244" y2="281.139" gradientUnits="userSpaceOnUse">
<stop stop-color="#FFB3B6"/>
<stop offset="1" stop-color="#FFC8C1"/>
</linearGradient>
<linearGradient id="paint13_linear_299_12776" x1="135.163" y1="206.185" x2="50.3769" y2="268.443" gradientUnits="userSpaceOnUse">
<stop stop-color="#BCD829"/>
<stop offset="1" stop-color="#57AE09"/>
</linearGradient>
</defs>
</svg>
