<svg xmlns="http://www.w3.org/2000/svg" viewBox="0 0 543.48 605.98"><defs><style>.cls-1{fill:#2d9306;}.cls-2{fill:#c6c6c8;}.cls-3{fill:#feb79b;}.cls-4{fill:#57ad09;}.cls-5{fill:#027802;}.cls-6{fill:#7f7f7f;}.cls-7{fill:#020202;}.cls-8{fill:#010101;}.cls-9{fill:#030303;}.cls-10{fill:#818181;}.cls-11{fill:gray;}.cls-12{fill:#7eba49;}.cls-13{fill:#050403;}.cls-14{fill:#0f7f09;}.cls-15{fill:#955537;}.cls-16{fill:#7c7c7c;}.cls-17{fill:#777;}.cls-18{fill:#7dbc44;}.cls-19{fill:#8bc656;}.cls-20{fill:#9ed071;}.cls-21{fill:#fd7e6e;}.cls-22{fill:#abd685;}.cls-23{fill:#99cd6a;}.cls-24{fill:#8dc65a;}.cls-25{fill:#cee7b8;}.cls-26{fill:#94cb63;}.cls-27{fill:#a9d582;}.cls-28{fill:#b1d88c;}.cls-29{fill:#badd9a;}.cls-30{fill:#89c553;}.cls-31{fill:#b1d98e;}.cls-32{fill:#9ed072;}.cls-33{fill:#a4d37a;}.cls-34{fill:#b0d98c;}.cls-35{fill:#97cc69;}.cls-36{fill:#acd685;}.cls-37{fill:#a5d37b;}.cls-38{fill:#bedfa1;}.cls-39{fill:#89c652;}.cls-40{fill:#afd78a;}.cls-41{fill:#b0d88c;}.cls-42{fill:#a5d37c;}.cls-43{fill:#a1d176;}.cls-44{fill:#b1b1b2;}.cls-45{fill:#fd7f6e;}.cls-46{fill:#fd7a6a;}.cls-47{fill:#c4c4c6;}</style></defs><g id="Layer_2" data-name="Layer 2"><g id="Layer_1-2" data-name="Layer 1"><path class="cls-1" d="M326.18,453.22c.68-2.62,1.37-5.24,2.05-7.86-.6-3.3,1.72-5.93,2.11-9h0c1-2.62.76-5.5,1.87-8.09l3.18-11.84c1.45-2.93,1.33-6.33,2.73-9.27.1-.9.21-1.8.31-2.7,1.82-2.84,1-6.44,2.72-9.32.11-1.22.22-2.44.32-3.66,1.44-5.43,1.75-10.86,0-16.28-3.65-11.69-12-20.38-19.09-29.88s-14-19.25-21.08-28.83q-12.69-17.17-25.56-34.22c-2.36-3.1-4.45-2.65-6.53,1-1.06,2.69-1.6,5.56-2.85,8.18q-4.06,12.42-8.11,24.84c-1.26,2.61-1.45,5.61-2.88,8.16a2.29,2.29,0,0,0-.15.82c-1.5,2.54-1.29,5.67-2.84,8.19l-.21,1.76c-1.1,2.35-1.58,4.93-2.75,7.25a4.51,4.51,0,0,0-.16.83c-1.23,2.95-2,6.07-2.94,9.11l-2.1,5.86c-1.51,2.82-1.56,6.13-3.08,8.95-1.91,2.73-1.68,6.13-2.84,9.09-1.22,2.62-1.74,5.49-3,8.09-6.73,14.07-15.34,26.57-28.88,35-3.33,2.07-6.7,4.07-10.17,5.91l-31.7,17.33q-43.29,23.67-86.62,47.24c-.89.48-2.9,2.92-3.69-.45-1.42-2.57-1.3-5.67-2.78-8.22L70,477.13c-3.7-7.49-5.53-15.62-7.83-23.55-2.5-8.62-5.39-17.13-7.52-25.86-.78-3.17-3.62-5.13-4.54-8.18q15.62-6.36,31.24-12.74,39.9-16.38,79.81-32.76c11.77-4.79,20.3-12.8,24.83-25.06,8.43-22.76,18-45.08,26.52-67.81,2.78-7.4,6.28-13.91,11.92-19.79,7.38-7.71,11.58-17.39,10.42-28.63-.14-1.33-.31-2.84,1.88-2.54,3.12,1.43,6.42,1.6,9.78,1.59q33,0,65.93,0a29.9,29.9,0,0,1,7.44.47c4,2.8,3.45,7.55,4.67,11.47,1.79,5.78,4,11.22,8.22,15.67,1.27,1.36,2.79,3.81,4.85,2.2s.05-3.6-1.09-5.11a50.46,50.46,0,0,1-6.23-10.73c-.77-1.82-1.75-3.68,0-5.49C336.58,248.5,342.9,256.66,349,265a55.78,55.78,0,0,0,6,7.56c1.82,2.83,4.1,5.31,6.06,8,13.72,18.28,27.49,36.52,41.13,54.87,5.76,7.76,11.91,15.29,16.41,23.92.88,1.68,1.59,3.46,2.38,5.19,3.27,8.52,2.2,17.38,2,26.16,0,1.78-.21,3.59-.26,5.39a116,116,0,0,1-1.43,20.22l-.21,3.83c-1.24,6.35-.66,12.86-1.72,19.23l-.15,1.85c-1.63,11.37-1.66,22.86-2.49,34.29-.09,1.3.29,2.64-.42,3.87l-.12,2.81c-.77,1.33-.34,2.9-.86,4.28-.36,6.63-.86,13.26-1,19.89-.09,3.53-1.41,4.33-4.79,4.47-23.91,1.05-47.83.81-71.76.85-1.81,0-3.67-.2-5.36.71-6.7,5-7.41,5-12.74.27-7.14-2.82-7.13-2.82-5.41-10.79a18.12,18.12,0,0,1,.86-2.8c.09-.89.17-1.78.26-2.68,1.22-3.65,1.87-7.45,2.89-11.15a2.16,2.16,0,0,0,.14-.83c1-3.73,1.88-7.46,2.85-11.18l.15-1.79c1.37-3.28,1.42-6.93,2.82-10.21a2,2,0,0,0,.16-.83C325.65,458.19,325.45,455.59,326.18,453.22Z"/><path class="cls-2" d="M321.24,233.26c-11.79.11-23.57.28-35.36.32-14.13.06-28.26-.07-42.39.08-3.29,0-6.14-.3-8.17-3.15-3.17-.11-4.69,2.83-7.24,3.92a79.06,79.06,0,0,1-18.64,0c-4.91-2.28-10.1-.65-15.15-1s-6.18-1.42-4.41-5.91,1.71-9.06,2.41-13.6c1.56-10.2,2.24-20.52,4.66-30.62.84-3.5,1.52-7.62-1.73-10.76,7.45-1.15,11.67-7,16.6-11.67,11.91-11.35,24.42-22,36.37-33.36,5.66-5.35,9.14-11.77,8.82-19.83-.06-1.48-.05-3.3-2-3.47s-2.48,1.59-2.59,3.06c-.7,10-7.63,16.06-14.26,22C226,140.13,214.24,151.44,202,162.15a27.32,27.32,0,0,0-7.66,10.21c-4.71,6.08-11.28,10.24-16.43,15.87-1.78,1.94-2.45.19-3.16-1.16a68.23,68.23,0,0,0-8.43-12.71c-5.15-4.25-7.17-10.67-11-15.89-3.88-5.37-6.6-11.53-10.42-17-.84-1.2-1.76-2.53-.65-4.1C152,131.24,159.66,125,167.49,119c14.92-11.47,30-22.69,44.88-34.26,5.5-4.29,11.49-4.84,18.06-4.55,8.28.37,16.59.16,24.89.19,5.24-2.89,10.92-1.11,16.39-1.45,2.86-.18,6-.65,8.5,1.46,7.27,0,14.53,0,21.8.07,2.07,0,3.93-.14,5.18-2a12.83,12.83,0,0,0,7,5.06c6.1,2,9.58,6.59,10.38,12.81,2.28,17.76,5.19,35.42,7.33,53.2.71,5.91,1.79,11.79,2.48,17.72a10.86,10.86,0,0,0,3.36,7,4.31,4.31,0,0,1,.75,1.48c2.53,12.12,2.9,24.54,5.36,36.71,1.06,5.25,1.27,10.78,2.33,16.13.68,3.44-.4,5.45-4.43,4.94-2-.25-4,.18-6-.09-4-.54-6,.77-5.52,5-1.78.33-1.73-1.14-2-2.15C326.5,230.14,326.38,230.07,321.24,233.26Z"/><path class="cls-3" d="M144.28,137.39q7.07,11.78,14.13,23.56c2.65,4.46,5.26,8.94,7.9,13.41-7.16,4.15-14.43,8.12-21.44,12.51-7.42,4.64-9.32,12.94-12.51,20.31-2.88,6.66-5.93,13.29-8.17,20.17-2.14,6.57-1.24,13.53-.2,20.22,1.22,7.9,1.63,15.84,2.35,23.77.26,2.87-.74,4.9-3.6,5.71-3,.87-4.4-1.09-6-3.26s-1.66-4.74-2.1-7.08a19.91,19.91,0,0,0-2.64-7c-5.18,8.78-5.07,17.94-1.08,27.35.76,1.79,1.62,4.63-.69,5.91s-4.36.43-5.3-2.56c-.53-1.67-2-.13-3-.12-1.92,0-4.18.8-4.67-2.23a3.19,3.19,0,0,0-.62-1.24c-3.62,1.34-6.74-2.43-8.53-2.27-5.2.48-5.81-2.14-6.75-5.62-1.25-4.61-2.81-9.15-3.94-13.78-1.57-6.39,1.52-12,3.62-17.67,4.1-11,8.65-21.76,13-32.62,6.82-17,12.5-34.46,20.62-50.91,3.2-6.5,8.79-11,14.43-15.35C134.11,144.77,139.22,141.12,144.28,137.39Z"/><path d="M481.27,559.31C500,557.14,515.91,549,530,536.88c1.38-1.18,2.77-2.36,4.12-3.59,3-2.67,5.75-2.15,8,.71s1.22,5.76-1.14,8a108.53,108.53,0,0,1-17.88,13.91c-18,11-37.62,15.62-58.75,15.55q-112.64-.39-225.28,0A112,112,0,0,1,179.84,555c-6-3.59-11.05-8.77-16.33-13.45-2.23-2-3.26-4.75-1-7.43s4.94-3.74,8.05-.9c6.67,6.11,13.46,12.11,21.68,16.1,10.17,4.93,20.57,9.15,32,10,7.27.44,14.49,1.47,21.8,1.44,15.63,0,31.42,1.4,46.87-.3,34.84-3.84,69.72-2.09,104.49-1.32,21.33.47,42.71,1.39,64.08,1.53C468.09,560.77,474.68,559.89,481.27,559.31Z"/><path class="cls-3" d="M450.27,206.39c5.48,3.36,11.08,6.56,16.38,10.18,2.17,1.48,5.06,3.49,2.76,6.91-2.06,3.07-4.61,3.51-8.13,1.69-7.87-4.09-16-7.76-24-11.55a22.44,22.44,0,0,0-10.07-2.26c-11.63.18-23.28-.14-34.91.11-17.76.38-30.59-7.84-40.12-22.18-1.21-2.44.76-3.69,2.05-5,7-7.27,14.26-14.23,21.55-21.18,1.22-1.17,2.39-3,4.62-1.83,4,5.46,8.21,10.78,11.92,16.43,5.62,8.59,14.33,9.36,23.18,9.54,12,.25,23.95.37,35.9,0a31.57,31.57,0,0,1,21.82,7.57c6.65,5.44,13.11,11.12,19.59,16.77,1.62,1.41,3.38,3,1.33,5.43-1.72,2.07-3.41,1.11-5.32.27-9.73-4.32-18.84-10.08-29.46-12.29-3-.62-6-.16-8.92-.51-3.85.85-5.47-3.17-8.61-3.64C444.3,203,447.7,204.09,450.27,206.39Z"/><path class="cls-4" d="M47.92,395.48c19.18-7.38,38.44-14.58,57.52-22.21,16.54-6.61,33.57-12,49.67-19.75,8.54-4.13,12.84-11.42,16.08-19.71,6.76-17.31,13.46-34.64,20.31-51.92a10.17,10.17,0,0,0,.77-6.24c3.26-1.43,6.82-.86,10.22-1.36,5-.73,6.58,1.42,4.78,6.13-3.15,8.23-6.29,16.46-9.55,24.65-5,12.66-10.64,25.13-14.92,38.06-4.65,14-13.75,22.85-27.47,28.11-18.32,7-36.45,14.56-54.45,22.4-13.72,6-27.79,11.11-41.45,17.22a16.58,16.58,0,0,1-8.21,1.76c-4.7-3.88-3.89-9.85-5.52-14.88C45.27,396.43,46.94,396,47.92,395.48Z"/><path class="cls-2" d="M380.4,161.25c-10.23,8.51-20.08,17.42-28.22,28-3.47-4.07-7-8.1-10.37-12.25-1-1.18-1.86-1.77-3.32-1.39l-.31-.39c2.5-6.18,1.13-12.31.23-18.6-1.64-11.5-3.48-23-4.85-34.52-1.06-8.89-2.15-17.82-3.93-26.62-.43-2.12-1.13-4.25.68-6.11l42.49,37c6.6,5.73,13.16,11.51,19.85,17.13,1.7,1.43,2,1.94.39,4C389.22,152.52,383.13,155.35,380.4,161.25Z"/><path class="cls-5" d="M51.32,412.45q15.72-6.52,31.46-13c11.23-4.67,22.43-9.41,33.68-14,9.92-4.08,20-7.8,29.8-12.13,7.5-3.3,15.42-5.66,22.3-10.43,6.28-4.35,9.11-10.81,11.78-17.38C188,326.71,195.53,308,202.67,289c1.27-3.34,2.6-6.72,3.77-10.13,1.09-3.18-.1-3.88-2.92-3.5-3.74.51-7.47,1.85-11.26.25-3.18-3.72-2.9-5.1,1.38-6.84l3.61-1.42c5-2.44,10.56-3.58,15.28-6.8,7.64-5.22,12.72-11.92,13.51-21.36a9.7,9.7,0,0,1,3.09-6c1.13-3,2.7-5.08,6.19-2.71,3.49,9.38-.94,17.29-4.95,25.13a35.64,35.64,0,0,1-8.84,10.64c-4.8,4.14-5.84,10.55-8.07,16.17-6.61,16.63-13,33.37-19.9,49.88-3.17,7.53-5.67,15.35-9,22.85-4.69,10.42-13.38,16-23.2,20.22-13.88,6-28,11.39-41.87,17.44-14.71,6.43-29.94,11.69-44.71,18-6,2.57-12.36,4.45-18.08,7.84-1.66,1-4.19.54-6.32.74-2.46.06-3-1.6-2.85-3.5A3.45,3.45,0,0,1,51.32,412.45Z"/><path class="cls-6" d="M51.32,412.45c-2.7,2-4.92,4.05-1,7,3.79,2.16,4.94,5.82,6.08,9.75,4.1,14.25,8.51,28.42,12.73,42.63a37.69,37.69,0,0,1,.84,5.33c-3.21-2.21-4.38,1.42-6.52,2.28-3.27-3.21-3.56-7.68-4.83-11.7-1.7-5.36-2.89-10.89-5-16.11-1.75-4.3-3-4.7-7.19-2.63-.29.14-.58.3-.87.46-8.74,4.88-9.05,5.66-5.78,15.26,1.39,4.08,2.27,8.31,3.32,12.46,1.24,5,2.32,9.84,5.28,14.11-6.16,2.91-6.43,8.37-6.12,14.1-2.44-.18-2.69-2.17-3.07-3.91-3.48-15.93-9.08-31.27-13.17-47-1.34-5.15-2.87-10.25-4.37-15.35-1.2-4.1-.42-7.47,2.83-10.84,6.52-6.74,8.76-15.1,7.07-24.42-.26-1.42-1.25-2.79-.34-4.31,4.3,2.05,7.6-1.27,11.33-2.17,1.83-.45,3.29-2.09,5.39-1.86-.44,1-2.07,1.62-1.33,2.89C49.18,402.74,48.58,408.15,51.32,412.45Z"/><path class="cls-6" d="M321,511.27c2.93,5.2,5.79,5.21,9.47,0,1.56-.86,3.25-.44,4.88-.45q27.12,0,54.23,0c1.58,0,3.32-.63,4.76.66-1.73,2.68-.42,6.06-2.06,8.76-2,2-4.63,1.56-7.07,1.57-11.46.07-22.92,0-34.38,0-7.25,0-7.93.78-8,8,0,.66,0-.17,0,.5-.06,9.12.1,9.36,9,9.29,14.43-.11,28.87.49,43.28-.5a5.66,5.66,0,0,0,1.14,6.07c-1.71,1.76-4,1.52-6.08,1.52-18.91.05-37.83,0-56.75,0-3.75,0-6.82-.75-8.56-4.56-3.25-7.17-8.84-11.41-16.6-12.8a3.32,3.32,0,0,1-2.08-1.27c3.32-5.14,3.39-11.38,5.67-16.87A18.07,18.07,0,0,1,321,511.27Z"/><path class="cls-4" d="M242.91,40.62c-7.23-.44-7.11-.45-7.92-7.67-.83-7.47-1.66-14.82,2.89-21.62C242.09,5.05,247.72,1,255.27.47A178.27,178.27,0,0,1,274.19.09C288.06.52,297,8.91,298.54,22.71c.46,2-.88,2-2.29,2.25a67.81,67.81,0,0,1-14.85,1,26.84,26.84,0,0,0-7.41.87c-3.19-.2-6.29-1.4-9.55-1-2,.05-3.93-.06-5.9.06-6.63.43-9,2.27-10.75,8.68C247,37.3,246.29,40,242.91,40.62Z"/><path class="cls-7" d="M306.21,528.2c10.22-.09,16.69,5.39,20.57,14.27,1,2.2,1.9,3,4.23,3,21.76-.12,43.52-.14,65.27-.19,3.87.38,8.66-.46,8,6-1.39,3.66-4.22,4.67-7.89,4.66q-45.35,0-90.69,0c-2.77,0-5.28-.56-7.16-2.79-2.26-4.78-1.5-6.33,3.79-7.81,4-2.72,8.78-.34,13.32-2-1.74-3.61-5-4.55-8.19-5.7-4.48-1.62-5.33-3.44-4.14-8.27C303.87,527.88,305.23,528.54,306.21,528.2Z"/><path class="cls-8" d="M31.21,399.51c5.46,9.49.87,25-6.91,30.86-3.06,2.29-2.28,4.86-1.54,7.55,3,10.81,6.07,21.59,9.11,32.38s7.18,21,8.76,32c.16,1.07,1.07,2,1.63,3,0,1.08.29,2.24-.91,2.93-4.84,2.36-7.09,1.72-8.76-3.16-3.88-11.31-7-22.86-10.21-34.36-5.16-18.38-10.81-36.62-16.07-55-.9-3.12-.8-5.85,1-8.52,2.06-2.57,4-1.75,6,.15,3.28,2.13,3,6,4.41,9.05.69,1.43.57,3.2,1.84,4.88,3.23-3.72,4.18-8,4.43-12.38a26.2,26.2,0,0,1,1.3-7.72C26.57,398.37,28.85,398.79,31.21,399.51Z"/><path class="cls-3" d="M280.21,80.34H255.32c0-5.76.09-11.53,0-17.3a23.92,23.92,0,0,0-6.93-16.5c1.42-1.73,3.51-.33,5.6-1.26-1.8-2.93-3.49-5.9-3.8-9.39-.46-5.34,1.76-8.87,5.95-9.3,4.62-.46,8.21,2.42,8.32,7.65.08,3.75,2.3,4.22,4.9,4.85,3.29,5.21,4.29,11.28,6.23,17,1.15,3.39,2.64,6.26,5.46,8.42C279.26,69.68,280.55,75.06,280.21,80.34Z"/><path class="cls-9" d="M395.14,539.2a9.69,9.69,0,0,1-6.8,2.28c-13.49-.12-27,0-40.47-.07-6.07,0-6.67-.64-6.73-6.48,0-3,.12-6,0-9-.22-4.52,2.28-5.67,6.24-5.65,15,.05,30,0,45,0,2.22,1.22,3.55,2.86,2.87,5.6s-2.78,2.43-4.72,2.68c-2,1.42-4.39,1.31-6.71,1.31-8.61,0-17.22,0-25.84,0-1.76,0-3.64-.42-5.31.89,1.63,1.38,3.52.9,5.27.91,8.61.07,17.23,0,25.84,0,2.31,0,4.68-.13,6.65,1.46C393.66,533.84,395.43,535.69,395.14,539.2Z"/><path class="cls-10" d="M330.31,89.41c1,7.7,2,15.42,3.13,23.11,2.24,15.58,4.48,31.15,6.85,46.7.45,2.95.85,5.89,1.09,8.87.25,3.14-.61,5.46-3.2,7.17-3.11-.45-4.43-2.45-4.84-5.38-3.36-24.55-6.78-49.1-10.12-73.66-.87-6.39-4.23-10.37-11.33-11.94-3.53-.78-5.23-2.28-4.7-5.92,2.55-3.17,5.27-2.93,9-1.66C323,79,327.28,83.32,330.31,89.41Z"/><path class="cls-11" d="M298.5,553.1a21.37,21.37,0,0,0,7.7,1.19q45.1-.09,90.2,0c3.15,0,5.89-.33,7.84-3-.47,6.14,1.86,8.57,8.91,8.53,21.07-.13,42.14.62,63.19-.57,1.64-.1,3.29,0,4.93.09-4.87,2.28-10.11,1.59-15.17,1.59-33.13,0-66.25-.28-99.37-.27-42.61,0-85.22.27-127.83.28-4.89,0-10,.69-14.65-1.54l58.81.46c3.66,0,7.33.08,11,0C298.92,559.64,299.83,558.2,298.5,553.1Z"/><path class="cls-6" d="M7.3,407.28c-1.73,4.11.22,7.92,1.3,11.62C15.92,444,23.53,469,30.85,494.09c1,3.49,2.07,7,2.92,10.52,1.14,4.74,3.86,4.91,7.58,3.68-.53.62-1.09,1.79-1.58,1.76-3.52-.24-5.49,1.42-6.57,4.62-.36,1.07-1.07,2.31-2.48,2-1.13-.26-1-1.57-1.28-2.5Q18.81,478,8.14,441.89c-2.29-7.71-4.91-15.32-7.32-23C0,416.12-1.26,413,3.3,412.31,6.26,411.84,4.59,407.85,7.3,407.28Z"/><path class="cls-10" d="M194.32,172.36c-1-5.56,3.48-7.9,6.63-10.85,14.46-13.56,29.45-26.57,43.68-40.4,4.33-4.21,5.51-9.26,6.48-14.59.49-2.73,1.37-4.44,4.39-4.1s2.88,2.63,3,4.86c.29,8.94-3.66,16-9.94,21.86-15.14,14.07-30.46,27.94-45.59,42-2.46,2.28-4.9,2.3-7.71,1.4A2.18,2.18,0,0,0,194.32,172.36Z"/><path class="cls-8" d="M48.38,491.26c-2.84-.88-4-3.14-4.71-5.75q-3.62-13.59-7.18-27.2c-.08-.32-.14-.65-.22-1-.6-2.69.48-4.87,2.87-5.67,4.47-1.52,7.68-7.45,13.08-5,3.87,1.77,3.47,6.82,4.72,10.42,2.53,7.31,4.39,14.85,6.53,22.3-.38,5.62-1.21,6.28-6.14,4.91-2.51-1.18-3.25-3.49-4.08-5.92-2-6-3.12-12.23-5.89-18,.57,5.9,2.61,11.49,4.22,17.15,1.23,4.3,1.41,8.39-.4,12.51C50.34,490.68,49.63,491.61,48.38,491.26Z"/><path class="cls-3" d="M272.64,25.86c6-2.46,12.33-.47,18.44-1.27,2.52-.32,5.67,1.38,7.46-1.88,1.53.74,1.66,1.76.08,2.35a19.09,19.09,0,0,1-4.32.65c1.33,9.55,2.69,18.94,3.94,28.34.65,4.8-1.75,6.67-6.37,6.39-2.47-.15-5,0-7.45,0-3.72-3.11-3.88-7.85-5.42-12-2.16-5.72-3.91-11.59-5.92-17.36C272.48,29.41,271.7,27.7,272.64,25.86Z"/><path class="cls-12" d="M229.13,233.22c-2.36,7.36-2.39,15.58-8.15,21.7-6.49,6.9-13.92,11.92-23.73,12.46,1.57-8.13,5.95-15.24,8.41-23,1.06-3.36,2.51-6.61,3.78-9.91C215.88,232,222.58,233.86,229.13,233.22Z"/><path class="cls-10" d="M264.43,592.4c-.11,7.33-6.59,13.71-13.79,13.58a14.12,14.12,0,0,1-13.51-13.93c.08-7.25,6.64-13.64,13.84-13.48A13.77,13.77,0,0,1,264.43,592.4Z"/><path class="cls-10" d="M467.4,592.12A13.59,13.59,0,0,1,454,605.9a14,14,0,0,1-13.89-13.5c-.26-7.23,6-13.53,13.63-13.72A13.46,13.46,0,0,1,467.4,592.12Z"/><path class="cls-13" d="M272.64,25.86q5.89,17.28,11.78,34.57a8.39,8.39,0,0,1-3.36,4.05c-3.58-.4-5.09-2.37-6-5.94-1.58-6.44-4-12.67-6-19-3.62-4.23-6-8.86-4.62-14.67C267.22,24.85,270.14,23.55,272.64,25.86Z"/><path class="cls-14" d="M321.24,233.26c.44-2.73,2.19-4.11,4.79-3.73s3.31,2.24,3.25,4.71c0,1.39-.38,3,1,4.1,0,.64.05,1.28.08,1.93.39,6.06,3.82,10.68,7.21,15.33a18.49,18.49,0,0,1,2.48,3.69c.71,1.74-.16,3.22-1.6,4.32s-2.71.55-4-.53a33.91,33.91,0,0,1-10.87-17.95C322.62,241.27,320.22,237.55,321.24,233.26Z"/><path class="cls-15" d="M264.44,24.88c.64,5.18,3.05,9.79,4.62,14.67-5.45,1.73-6.22-1.18-5.8-5.64.45-4.68-2.9-6.2-6.55-6.25-4-.05-5.76,2.93-5.53,6.67.18,3.1.71,6.2,3,8.69.85.93,2.79,1.83,1.66,3.35a3.63,3.63,0,0,1-4.12.9,28.35,28.35,0,0,0-3.34-.74c-2-1.78-4.5-3.14-5.47-5.9,1.14-1.6,3.13-2.71,3.27-4.85.65-10,7.51-11.48,15.32-11.23C262.48,24.58,263.46,24.77,264.44,24.88Z"/><path class="cls-16" d="M390.36,533.19q-19,.07-37.95.15c-1.82,0-3.28-.14-3.28-2.58s1.66-2.42,3.36-2.41l38,.19C390.43,530.09,390.4,531.64,390.36,533.19Z"/><path class="cls-16" d="M25.26,401.26c-.12,6.44.63,13-2.8,19-.83,1.44-1.68,3.41-3.26,3.4-2.32,0-1.48-2.51-2-3.95-1.34-4.07-2.64-8.16-4-12.24C18.35,407.46,22.42,405.55,25.26,401.26Z"/><path class="cls-17" d="M51.18,490.07c1.77-7.93-2.33-14.88-3.76-22.27-.57-2.91-1.53-5.74-2.09-8.64a2,2,0,0,1,1.73-2.59c1.42-.14,1.32,1.22,1.6,2.09,1.88,5.81,4,11.55,5.47,17.47a37.57,37.57,0,0,0,3.2,8.19c-2.67-.57-4.39.07-4.45,3.22C52.86,488.61,52.66,489.85,51.18,490.07Z"/><path class="cls-6" d="M303.28,529.28c-.72,4.45,1,6.74,5.66,7.24,3.16.34,5.73,2.45,8,4.73.85.86,1.58,1.84,1.25,3.08-.42,1.6-1.88,1-2.93,1-4.31,0-8.63,0-12.95-.09,1.26-4,3.65-7.86-.49-11.83C300.6,532.31,301.73,530.33,303.28,529.28Z"/><path class="cls-18" d="M394.37,511.5l-63.87-.22c1.54-2,3.72-1,5.58-1,24-.08,48-.15,72,0,3.75,0,4.63-1,5.38-4.83,1.3-6.72-.56-13.62,1.79-20.15,1,2.8.57,5.63.19,8.46-.13,4.64-.42,9.29-.34,13.93.06,3.22-1.47,3.88-4.27,3.82C405.33,511.35,399.85,511.48,394.37,511.5Z"/><path class="cls-19" d="M416.33,479.42c-.42-12.83.15-25.58,2.91-38.16C418.67,454,418.84,466.82,416.33,479.42Z"/><path class="cls-20" d="M422.37,396.41c0-5.82-.14-11.64,0-17.46.11-4.85-.71-9.6-1.33-14.37,3.06,3.66,2.64,8.26,3.09,12.52.69,6.4,0,12.82-.88,19.2C423,396.74,422.71,396.79,422.37,396.41Z"/><path class="cls-21" d="M450.27,206.39c-4.37-.37-7.29-3.58-10.83-5.56-.68-.37-1.32-1.26-.44-2a2.34,2.34,0,0,1,2.8,0c2.9,1.83,5.76,3.74,8.64,5.62C450.38,205.08,450.33,205.73,450.27,206.39Z"/><path class="cls-22" d="M419.39,439.41c-.33-6.49-.84-13,1.72-19.23C421.62,426.69,421.47,433.14,419.39,439.41Z"/><path class="cls-23" d="M341.44,375.2c2.69,3.59,2.71,12.45,0,16.28Z"/><path class="cls-24" d="M321,511.27l-9.15.06c.54-4.22.66-8.55,3.26-12.22a4.9,4.9,0,0,1,.23,1.43c-.51,2.86-2,5.95-1.39,8.5C314.76,512.1,319.15,508.72,321,511.27Z"/><path class="cls-25" d="M422.37,396.41l.86-.11c-.18,6.73,1,13.58-1.91,20.05C420.59,409.65,422.36,403.08,422.37,396.41Z"/><path class="cls-26" d="M196.24,425.28c3-2.56,6.16-5,10.17-5.91A16.43,16.43,0,0,1,196.24,425.28Z"/><path class="cls-27" d="M321.28,473.27a18.54,18.54,0,0,1-2.85,11.18A18.45,18.45,0,0,1,321.28,473.27Z"/><path class="cls-28" d="M318.29,485.28c.07,4-.58,7.78-2.89,11.15A20.13,20.13,0,0,1,318.29,485.28Z"/><path class="cls-29" d="M324.25,461.27c-.32,3.58-.19,7.27-2.82,10.21C321.34,467.8,322,464.3,324.25,461.27Z"/><path class="cls-30" d="M341.15,395.14c-.67,3.17.54,6.9-2.72,9.32C338.68,401.16,338.89,397.85,341.15,395.14Z"/><path class="cls-31" d="M361.1,280.6c-2.66-2.2-5.18-4.51-6.06-8A16.23,16.23,0,0,1,361.1,280.6Z"/><path class="cls-32" d="M241.11,367.18a13.27,13.27,0,0,1,3.08-8.95C243.67,361.39,243.89,364.8,241.11,367.18Z"/><path class="cls-33" d="M246.29,352.37c.18-3.3.31-6.61,2.94-9.11C249.54,346.71,247.91,349.54,246.29,352.37Z"/><path class="cls-34" d="M266.33,291.41c.41-2.91.5-5.94,2.85-8.18C269.61,286.44,268.31,289,266.33,291.41Z"/><path class="cls-35" d="M338.12,407.16c-.15,3.31-.48,6.57-2.73,9.27C335.88,413.21,335.47,409.74,338.12,407.16Z"/><path class="cls-36" d="M71.45,481.18c2.41,2.24,2.61,5.23,2.78,8.22C71.65,487.22,72,484.06,71.45,481.18Z"/><path class="cls-37" d="M252.35,333.42c.24-3,.44-6,2.84-8.19C255.07,328.25,254.76,331.2,252.35,333.42Z"/><path class="cls-38" d="M332.21,428.27a10.69,10.69,0,0,1-1.87,8.09C330,433.43,330.14,430.63,332.21,428.27Z"/><path class="cls-39" d="M415.42,493.71q-.1-4.23-.19-8.46c0-1.1-.17-2.28,1-3C416.52,486.1,416.72,490,415.42,493.71Z"/><path class="cls-40" d="M255.34,324.41a12.9,12.9,0,0,1,2.88-8.16C258,319.22,258,322.29,255.34,324.41Z"/><path class="cls-38" d="M330.34,436.36c.52,3.28-1.43,6-2.11,9C327.06,441.92,328.77,439.16,330.34,436.36Z"/><path class="cls-41" d="M249.39,342.43c.16-2.7.51-5.34,2.75-7.25C252.07,337.92,251.77,340.57,249.39,342.43Z"/><path class="cls-42" d="M326.18,453.22c.35,2.63.58,5.24-1.77,7.22A9.33,9.33,0,0,1,326.18,453.22Z"/><path class="cls-43" d="M235.29,384.36a12,12,0,0,1,3-8.09A12.12,12.12,0,0,1,235.29,384.36Z"/><path class="cls-11" d="M311.42,129.44c3.68,6.6,7.08,12.8,10.58,18.94a9.17,9.17,0,0,1-.28,10.24c-2.44,3.91-4.37,8.13-6.76,12.07-2.28,3.75-5,6.8-10.09,7-2.28.1-5.5-.37-6.56,3.25-.51,1.73-1.58.34-2.16-.25q-4.12-4.27-8.15-8.65c-2.13-2.31-2.39-4.6.12-6.93,1.7-1.59,3.16-3.43,4.81-5.07,2.07-2.06,3.61-7.23,7.07-.81,1.08,2,4.64,1.74,6.41.49s-.21-3.19-1.05-4.67q-4-7.09-8.07-14.14c-1-1.73-.51-2.22,1.35-2.49,3-.43,5.76,3.56,8.78.18C309.63,136.14,309,132.55,311.42,129.44Z"/><path class="cls-11" d="M272.24,144.48a10.68,10.68,0,0,0,1.73,6.6c.38.59,1,1.46.18,2.21s-1.36.38-2.13-.24c-1.79-1.44-2.54.09-3.43,1.35-1,1.45-2.86,2.67-2,4.74.73,1.81,2.6,1.07,4,1.09,5.81.08,11.62,0,17.39,0,.14.46.36.8.27,1-1.3,2.65-4.83,4-4.84,7.26s3.07,4.89,5,7.11c1.31,1.55.75,2.54-1.09,2.58-7.46.16-15,.43-22.33-1-2.67-.52-4.5-2.92-5.83-5.12-3.17-5.2-5.94-10.64-8.87-16a6,6,0,0,1-.27-5.72c1.49-3.21,4.67-5.79,1.34-10.19-1.29-1.71,2.58-1.22,4-1.93,3-1.44,6.28-1.64,9.33-2.94,3.93-1.68,5-.82,6.22,3.48C271.39,140.67,271.22,142.72,272.24,144.48Z"/><path class="cls-11" d="M260.36,131.44c3.68-4.51,5.67-10,8.82-14.88,2.28-3.52,5.17-5.43,9.45-5.28,3.66.13,7.34.21,11,0,6.49-.42,12.27.25,15.32,7.21,1.11,2.54,3.56,1.69,6.36,1.11-1.77,5.66-3.41,10.76-4.94,15.89a2.39,2.39,0,0,1-3.53,1.65c-4.73-2.38-10.15-1.3-15.26-3.43.85-2.39,4-4.46,1.08-7.61-1.91-2.06-2.9-3-4.54,0-3.14,5.78-6.43,11.47-9.66,17.2-.59-.57-1.46-1.14-1.67-1.77-1.75-5.54-4.44-8.89-11.11-6.74C259.75,135.43,259.13,133.27,260.36,131.44Z"/><path class="cls-44" d="M260.36,131.44c-.24,2.24.49,2.69,2.83,2.27,7.07-1.27,7.06-1.12,9.33,5.67a31.89,31.89,0,0,0,1.93,3.94c-1.1-.3-2.22-.65-2.21,1.16-2.31-1.37-2.53-3.89-2.83-6.07-.42-3-1.63-3.14-4-2.08-3.2,1.43-6.73,1.41-10.13,1.93,1-2.31,3.41-1.5,5.19-2.21C257.9,134.5,257.55,133,260.36,131.44Z"/><path class="cls-21" d="M97.44,282.48c-.29.5-.48,1.2-.94,1.53a1.38,1.38,0,0,1-1.78-.31c-2.71-2.59-5.08-18.27-3.24-21.46.42-.73.82-1.54,1.79-1.42,1.13.14,1.2,1.21,1,1.92-2.09,6.35.34,12,2.58,17.68C97.05,281,97.2,281.67,97.44,282.48Z"/><path class="cls-45" d="M97.47,270.72a24.69,24.69,0,0,0,.78-3c.27-2,1.57-4.8,3-4.25,2.43.95,0,2.93-.47,4.51a7.46,7.46,0,0,0,.57,6.25c1.91,3.33,1.41,7.47,3.63,10.71a1.39,1.39,0,0,1-.56,2.12,2,2,0,0,1-2.77-1.35C100.15,280.7,98.82,275.65,97.47,270.72Z"/><path class="cls-46" d="M86.83,257.71c-3.77,7.76,1.4,13.93,2.15,20.79.11,1,.56,2-.59,2.57-.63.33-1.55.12-1.66-.56-1.09-6.83-5.91-13.07-3.3-20.48a4,4,0,0,1,1-1.58C84.78,258.16,85.36,258.15,86.83,257.71Z"/><path class="cls-47" d="M257.38,592.07c0,3.69-3.37,7.49-6.72,7-3.82-.5-6.27-2.77-6.42-6.87a6.72,6.72,0,0,1,6.7-6.93A6.8,6.8,0,0,1,257.38,592.07Z"/><path class="cls-47" d="M447.23,592.41c0-3.74,3.36-7.21,6.78-7.09s7.23,3.92,7.09,7.13c-.13,3-4.36,6.84-7.51,6.74A6.56,6.56,0,0,1,447.23,592.41Z"/></g></g></svg>