<svg width="40" height="59" viewBox="0 0 40 59" fill="none" xmlns="http://www.w3.org/2000/svg">
<path d="M19.9993 58.9984C19.961 58.9713 19.9196 58.9347 19.875 58.898C19.1644 58.0169 14.7682 52.5101 10.2892 45.4466C8.94436 43.1968 8.07278 41.4409 8.24168 40.9867C8.67986 39.806 16.4891 39.1591 18.8935 40.2299C19.6248 40.5549 19.6057 40.9836 19.6057 41.2353C19.6057 42.3156 19.5531 45.2156 19.5531 45.2156C19.5531 45.8147 20.0391 46.3007 20.6398 46.2991C21.2405 46.2991 21.7249 45.8099 21.7233 45.2092L21.7122 37.9864H21.7106C21.7106 37.3586 21.0254 37.2024 20.898 37.1769C19.6424 37.169 17.0945 37.1626 14.3571 37.1626C8.31816 37.1626 6.96697 37.4112 5.94402 36.7388C3.72124 35.2856 0.0867225 25.4894 0.00227293 19.9763C-0.117231 12.2006 4.48766 5.46851 10.9759 2.13355C13.6847 0.769607 16.744 0 19.9786 0C30.2464 0 38.7041 7.75024 39.829 17.7233C39.829 17.7312 39.829 17.7424 39.8306 17.7504C40.0377 20.1611 26.7505 20.6726 24.123 19.9715C23.7198 19.8648 23.6179 19.4505 23.6179 19.2736C23.6163 17.4412 23.6035 12.2818 23.6035 12.2818C23.6019 11.6811 23.1144 11.1967 22.5137 11.1967C21.9145 11.1967 21.4286 11.6859 21.4286 12.2866L21.4525 21.7896C21.4716 22.3887 21.9735 22.5496 22.1121 22.5783C23.6067 22.5783 27.101 22.5767 30.3563 22.5767C34.7556 22.5767 36.604 23.0866 37.8341 24.0219C38.6515 24.6449 38.967 25.8384 38.6913 27.3904C36.2232 41.1891 20.592 58.2878 20.0041 59L19.9993 58.9984Z" fill="#FC8019"/>
</svg>
