<svg width="864" height="660" viewBox="0 0 864 660" fill="none" xmlns="http://www.w3.org/2000/svg">
<g filter="url(#filter0_f_85_12536)">
<path d="M654.329 392.849C719.788 321.438 743.593 177.131 654.329 157.294C521.965 127.879 587.381 231.679 262.561 177.13C61.3178 143.334 76.5965 343.258 188.176 454.837C299.755 566.417 572.504 482.112 654.329 392.849Z" fill="#E5F0B0"/>
</g>
<path d="M331.018 562.319L305.614 560.166L306.905 528.719L332.525 531.088L331.018 562.319Z" fill="#D88D6C"/>
<path d="M283.657 558.013C283.657 558.013 300.45 550.259 303.249 544.659C303.249 544.659 308.201 526.566 315.736 536.043C315.736 536.043 323.486 542.289 334.467 537.335L335.758 571.582L259.759 571.367C261.697 566.198 263.419 560.382 283.657 558.013Z" fill="url(#paint0_linear_85_12536)"/>
<path d="M335.759 571.797L336.189 577.182L259.545 576.967C259.545 574.813 258.899 573.736 259.975 571.582L335.759 571.797Z" fill="#C73E39"/>
<path d="M442.329 558.012L416.924 562.32L410.25 531.735L435.439 527.427L442.329 558.012Z" fill="#D88D6C"/>
<path d="M393.454 558.012C393.454 558.012 410.247 550.258 413.046 544.658C413.046 544.658 409.171 530.442 418.213 537.55C418.213 537.55 433.714 543.365 440.173 536.257L445.34 571.797L369.341 571.582C371.71 566.197 373.432 560.381 393.454 558.012Z" fill="url(#paint1_linear_85_12536)"/>
<path d="M445.556 571.796L445.987 577.181L369.342 576.966C369.342 574.812 368.696 573.735 369.773 571.581L445.556 571.796Z" fill="#C73E39"/>
<path d="M300.995 264.535C300.995 264.535 296.789 395.393 300.88 542.504C300.88 542.504 313.152 554.135 336.404 546.381C336.404 546.381 336.188 382.685 342.432 317.638C342.432 317.638 371.712 441.271 408.743 548.319C408.743 548.319 433.502 553.058 442.329 539.057C442.329 539.057 392.38 365.669 385.06 265.944L300.995 264.535Z" fill="url(#paint2_linear_85_12536)"/>
<path d="M301.309 265.944H385.059C385.705 273.483 386.351 281.452 387.427 289.637C337.479 289.853 310.998 277.145 301.094 271.329C301.094 267.667 301.309 265.944 301.309 265.944Z" fill="#402B2B" fill-opacity="0.45" style="mix-blend-mode:multiply"/>
<path d="M309.711 49.0447H330.379L333.178 36.5522C333.178 36.5522 324.997 41.2908 323.059 38.0599C321.121 34.8291 321.552 36.1214 319.614 36.5522C317.677 36.983 317.677 34.3983 315.308 35.9061C312.725 37.6292 308.849 45.8139 309.711 49.0447Z" fill="#6B1912"/>
<path d="M269.321 205.023L281.099 176.509L314.217 188.922C313.075 198.056 292.877 215.562 281.099 227.959L269.321 205.023Z" fill="url(#paint3_linear_85_12536)"/>
<path d="M296.905 121.923C296.905 121.923 278.771 154.814 268.142 203.165C264.871 218.042 265.662 225.729 270.621 229.2C276.82 233.539 287.977 229.82 293.556 218.042C299.236 205.026 309.737 176.792 312.093 163.221C312.093 163.221 308.018 124.362 296.905 121.923Z" fill="url(#paint4_linear_85_12536)"/>
<path d="M296.794 121.415C296.794 121.415 297.87 146.185 301.1 265.295C301.1 265.295 330.38 280.157 388.725 269.818C388.725 269.818 388.94 234.063 396.906 202.401C396.906 202.401 411.761 142.738 404.226 125.292C404.226 125.292 356.646 95.7836 296.794 121.415Z" fill="url(#paint5_linear_85_12536)"/>
<path d="M342.005 97.8082L341.574 113.23C341.574 113.23 345.234 118.615 354.061 119.261C362.888 119.692 367.194 114.738 367.194 114.738L368.055 91.7773C357.075 96.5159 346.31 98.4544 342.005 97.8082Z" fill="url(#paint6_linear_85_12536)"/>
<path d="M342.867 91.4766L342.006 108.492C346.311 109.138 357.076 107.2 367.841 102.461L368.487 91.4766H342.867Z" fill="url(#paint7_linear_85_12536)" style="mix-blend-mode:multiply"/>
<path d="M401.212 158.892C401.212 158.892 388.509 187.539 383.988 200.462C379.467 213.17 379.467 263.786 355.784 273.479C355.784 273.479 380.974 271.971 388.94 269.817C388.94 269.817 389.37 231.693 397.121 202.4C397.121 202.4 402.503 171.6 404.656 157.6L401.212 158.892Z" fill="#EE4D47" fill-opacity="0.29" style="mix-blend-mode:multiply"/>
<path d="M384.419 53.9993C383.989 54.2146 383.558 61.107 383.558 61.107L381.836 75.5381L373.87 81.7843L369.349 83.7228C369.349 83.7228 362.675 80.9228 363.536 78.3381C364.397 75.9688 368.703 41.9375 369.564 41.9375C370.425 41.9375 377.315 46.8914 377.315 46.8914L384.419 53.9993Z" fill="#402B2B"/>
<path d="M321.338 41.0752C319.401 41.0752 322.415 64.768 322.415 64.768L325.859 55.2909L328.228 43.8752L321.338 41.0752Z" fill="#402B2B"/>
<path d="M324.567 45.812L320.907 76.1818C320.907 76.1818 319.615 101.813 340.714 103.321C361.813 104.613 376.238 83.7204 376.238 83.7204C376.238 83.7204 378.821 86.7359 381.62 81.5665C384.203 76.3972 382.481 69.5048 378.821 68.8586C374.946 68.4278 373.223 70.5817 372.793 73.8125C372.362 77.0433 371.932 79.4126 371.932 79.4126L368.702 78.9819L371.07 53.9968C371.07 53.9968 366.119 44.3043 360.521 42.3658C354.923 40.4273 349.972 48.1813 349.972 48.1813C349.972 48.1813 344.805 49.2582 339.853 48.1813C334.901 47.1043 331.672 45.812 331.672 45.812C331.672 45.812 328.657 46.6735 324.567 45.812Z" fill="url(#paint8_linear_85_12536)"/>
<path d="M340.667 221.76C340.667 221.76 307.813 216.801 307.813 211.842C307.813 206.883 314.632 195.105 319.591 181.468C324.55 167.831 328.889 146.135 330.749 141.795C332.608 137.456 325.17 149.854 325.17 149.854C312.979 165.764 288.101 198.701 286.117 203.164C284.133 207.627 283.224 218.248 283.018 223L291.696 227.959L317.111 224.86L340.667 221.76Z" fill="#57AE09" fill-opacity="0.35" style="mix-blend-mode:multiply"/>
<path d="M323.871 126.299C323.871 126.299 269.942 195.745 268.702 206.884C267.463 218.023 266.56 229.009 277.831 230.365C289.102 231.722 299.809 213.975 303.754 204.932L312.713 182.088L331.31 136.837L323.871 126.299Z" fill="url(#paint9_linear_85_12536)"/>
<path d="M331.369 141.175C331.369 134.977 323.93 132.497 317.731 132.497L279.299 185.807C271.447 196.758 257.975 222.008 271.86 230.439C285.746 238.869 301.201 217.421 306.574 206.263C309.549 199.321 324.344 159.979 331.369 141.175Z" fill="url(#paint10_linear_85_12536)"/>
<path d="M323.931 127.538C323.931 127.538 320.143 112.815 324.167 103.236C324.167 103.236 326.363 98.9521 328.731 100.793C331.368 102.491 333.44 98.6192 336.077 100.317C338.713 102.014 340.823 99.5038 343.436 102.769C343.436 102.769 346.409 101.869 348.115 104.41C349.822 106.95 353.728 112.631 352.88 113.949C352.031 115.267 349.149 121.817 348.405 122.042C347.662 122.267 346.301 122.305 345.687 119.87C345.687 119.87 345.62 122.324 344.334 125.084C343.255 127.907 339.741 131.342 339.741 131.342L330.749 137.455L323.931 127.538Z" fill="url(#paint11_linear_85_12536)"/>
<path d="M346.741 38.0595V16.0898C359.874 16.736 373.437 19.3207 380.111 27.5054C388.077 37.1979 383.556 59.5984 383.556 59.5984C383.556 59.5984 373.868 58.5215 372.145 55.2906C370.423 52.0598 354.061 47.5366 341.574 48.1828C329.086 48.8289 323.058 47.5366 316.815 42.1519C315.523 41.075 314.446 39.5672 313.585 37.8441H346.741V38.0595Z" fill="#402B2B"/>
<path d="M385.063 51.4139C385.063 51.4139 375.806 48.3984 360.304 47.1061C334.254 36.1213 323.058 38.0598 323.058 38.0598C323.058 38.0598 323.274 29.6596 325.642 23.8441C328.01 18.0286 343.942 9.84385 357.29 11.1362C370.639 12.4285 384.417 22.3364 386.57 31.8135C388.293 39.1367 385.063 51.4139 385.063 51.4139Z" fill="url(#paint12_linear_85_12536)"/>
<path d="M369.347 48.186C366.548 34.8319 346.526 28.1549 332.316 28.3703C318.322 28.5857 308.419 40.2166 306.912 48.186C306.266 51.4169 308.849 51.8476 309.71 49.0476C310.356 47.1091 311.648 37.8474 324.566 38.9243C337.484 40.0013 336.838 51.6323 343.296 52.7092C349.325 53.7862 356.214 49.4784 369.347 48.186Z" fill="url(#paint13_linear_85_12536)"/>
<path d="M325.233 56.1006L324.562 54.7504C325.141 54.463 329.288 51.6809 335.261 50.1559L336.123 52.3736C331.017 53.2267 325.233 56.1006 325.233 56.1006Z" fill="#402B2B"/>
<path d="M361.883 61.7677C359.303 58.1621 353.148 54.0552 353.241 53.8606L354.941 52.2826C355.136 52.3748 360.614 56.3999 363.307 60.7738L361.883 61.7677Z" fill="#402B2B"/>
<path d="M340.93 63.9072C340.93 63.9072 340.284 68.4304 338.562 69.7227C336.84 71.015 333.825 72.092 333.395 73.1689C332.964 74.0305 333.825 75.7536 335.763 76.3998C337.701 77.0459 337.916 77.6921 337.916 77.6921C337.916 77.6921 334.041 78.1229 332.103 75.7536C330.165 73.3844 332.318 71.4459 334.256 70.3689C336.194 69.292 337.055 68.8612 337.916 68.215C338.993 67.5688 340.93 63.9072 340.93 63.9072Z" fill="#D87C60"/>
<path d="M350.186 66.274C350.186 68.4279 351.693 70.3665 353.63 70.3665C355.568 70.3665 357.075 68.6433 357.075 66.274C357.075 64.1201 355.568 62.1816 353.63 62.1816C351.693 62.1816 350.186 63.9047 350.186 66.274Z" fill="#402B2B"/>
<path d="M326.504 63.4742C326.504 65.6281 328.011 67.5666 329.948 67.5666C331.886 67.5666 333.393 65.8435 333.393 63.4742C333.393 61.3203 331.886 59.3818 329.948 59.3818C328.011 59.5972 326.504 61.3203 326.504 63.4742Z" fill="#402B2B"/>
<path d="M314.825 231.68C313.172 228.993 310.114 221.513 311.106 213.083C313.172 215.976 316.809 223.745 314.825 231.68Z" fill="#644545"/>
<path fill-rule="evenodd" clip-rule="evenodd" d="M389.8 221.571C405.517 198.739 407.669 129.6 407.669 129.6C393.208 131.48 386.301 145.795 381.864 154.992C379.696 159.486 378.117 162.758 376.535 162.758L369.875 205.098L303.272 216.991C303.216 217.068 303.162 217.145 303.107 217.221C299.827 217.307 288.442 217.949 281.006 222.684C281.006 222.684 277.154 225.571 279.368 227.595C280.427 228.752 280.09 230.004 279.752 231.256C279.415 232.508 279.078 233.759 280.137 234.916C281.03 235.891 281.17 236.901 281.307 237.894C281.495 239.255 281.679 240.586 283.794 241.756C283.794 241.756 283.408 244.838 286.2 246.092C286.327 246.149 286.461 246.209 286.601 246.272C289.55 247.6 295.303 250.191 296.406 249.18C296.821 248.8 297.856 248.049 299.016 247.206C301.09 245.699 303.568 243.9 303.63 243.406C303.726 242.635 303.534 241.287 301.03 241.092C301.03 241.092 303.438 240.612 305.942 238.88C308.542 237.341 311.335 233.297 311.335 233.297L313.869 227.509C375.576 232.769 389.8 221.571 389.8 221.571Z" fill="url(#paint14_linear_85_12536)"/>
<path d="M371.716 161.263L365.688 192.925L362.983 200.894L310.913 213.083C312.359 215.769 315.128 223.249 314.632 231.68C326.203 232.919 358.396 233.043 379.72 228.58C385.449 227.48 392.118 221.761 400.566 200.894C419.727 134.985 404.226 125.293 404.226 125.293C382.696 128.093 371.716 161.263 371.716 161.263Z" fill="url(#paint15_linear_85_12536)"/>
<defs>
<filter id="filter0_f_85_12536" x="-44" y="0.93457" width="907.689" height="658.286" filterUnits="userSpaceOnUse" color-interpolation-filters="sRGB">
<feFlood flood-opacity="0" result="BackgroundImageFix"/>
<feBlend mode="normal" in="SourceGraphic" in2="BackgroundImageFix" result="shape"/>
<feGaussianBlur stdDeviation="75.5" result="effect1_foregroundBlur_85_12536"/>
</filter>
<linearGradient id="paint0_linear_85_12536" x1="297.759" y1="539.914" x2="297.759" y2="572.631" gradientUnits="userSpaceOnUse">
<stop stop-color="#F4A984"/>
<stop offset="1" stop-color="#EE4D47"/>
</linearGradient>
<linearGradient id="paint1_linear_85_12536" x1="407.341" y1="528.132" x2="407.341" y2="572.789" gradientUnits="userSpaceOnUse">
<stop stop-color="#F4A984"/>
<stop offset="1" stop-color="#EE4D47"/>
</linearGradient>
<linearGradient id="paint2_linear_85_12536" x1="370.748" y1="185.86" x2="370.748" y2="549.091" gradientUnits="userSpaceOnUse">
<stop stop-color="#822626"/>
<stop offset="0.943497" stop-color="#402B2B"/>
</linearGradient>
<linearGradient id="paint3_linear_85_12536" x1="287.69" y1="180.359" x2="287.69" y2="236.997" gradientUnits="userSpaceOnUse">
<stop stop-color="#FFB3B6"/>
<stop offset="1" stop-color="#FFC8C1"/>
</linearGradient>
<linearGradient id="paint4_linear_85_12536" x1="312.152" y1="126.919" x2="312.152" y2="238.499" gradientUnits="userSpaceOnUse">
<stop stop-color="#BCD829"/>
<stop offset="1" stop-color="#57AE09"/>
</linearGradient>
<linearGradient id="paint5_linear_85_12536" x1="351.576" y1="49.058" x2="351.576" y2="267.895" gradientUnits="userSpaceOnUse">
<stop stop-color="#BCD829"/>
<stop offset="1" stop-color="#57AE09"/>
</linearGradient>
<linearGradient id="paint6_linear_85_12536" x1="363.637" y1="112.12" x2="341.85" y2="121.516" gradientUnits="userSpaceOnUse">
<stop stop-color="#FFB3B6"/>
<stop offset="1" stop-color="#FFC8C1"/>
</linearGradient>
<linearGradient id="paint7_linear_85_12536" x1="364.069" y1="101.313" x2="342.159" y2="110.592" gradientUnits="userSpaceOnUse">
<stop stop-color="#FFB3B6" stop-opacity="0.31"/>
<stop offset="1" stop-color="#FFC8C1"/>
</linearGradient>
<linearGradient id="paint8_linear_85_12536" x1="318.101" y1="95.9462" x2="322.761" y2="54.3037" gradientUnits="userSpaceOnUse">
<stop stop-color="#FFB3B6"/>
<stop offset="1" stop-color="#FFC8C1"/>
</linearGradient>
<linearGradient id="paint9_linear_85_12536" x1="307.347" y1="101.503" x2="307.347" y2="228.367" gradientUnits="userSpaceOnUse">
<stop stop-color="#FFB3B6"/>
<stop offset="1" stop-color="#FFC8C1"/>
</linearGradient>
<linearGradient id="paint10_linear_85_12536" x1="280.538" y1="158.532" x2="326.98" y2="226.754" gradientUnits="userSpaceOnUse">
<stop stop-color="#BCD829"/>
<stop offset="0.91698" stop-color="#57AE09"/>
</linearGradient>
<linearGradient id="paint11_linear_85_12536" x1="334.19" y1="125" x2="351.69" y2="94.9995" gradientUnits="userSpaceOnUse">
<stop stop-color="#FFB3B6"/>
<stop offset="1" stop-color="#FFC8C1"/>
</linearGradient>
<linearGradient id="paint12_linear_85_12536" x1="355.067" y1="-10.7021" x2="355.067" y2="51.9239" gradientUnits="userSpaceOnUse">
<stop stop-color="#BCD829"/>
<stop offset="1" stop-color="#57AE09"/>
</linearGradient>
<linearGradient id="paint13_linear_85_12536" x1="356.703" y1="22.164" x2="356.703" y2="87.2702" gradientUnits="userSpaceOnUse">
<stop stop-color="#BCD829"/>
<stop offset="1" stop-color="#57AE09"/>
</linearGradient>
<linearGradient id="paint14_linear_85_12536" x1="386.466" y1="189.577" x2="274.855" y2="226.78" gradientUnits="userSpaceOnUse">
<stop stop-color="#FFB3B6"/>
<stop offset="1" stop-color="#FFC8C1"/>
</linearGradient>
<linearGradient id="paint15_linear_85_12536" x1="353.685" y1="164.112" x2="400.796" y2="235.399" gradientUnits="userSpaceOnUse">
<stop stop-color="#BCD829"/>
<stop offset="1" stop-color="#57AE09"/>
</linearGradient>
</defs>
</svg>
