<svg width="154" height="36" viewBox="0 0 154 36" fill="none" xmlns="http://www.w3.org/2000/svg">
<path d="M75.9375 24.2822C76.7285 24.2822 77.1973 23.8037 77.1973 22.9736V12.1533H80.4199C81.1035 12.1533 81.5723 11.7432 81.5723 11.0889C81.5723 10.4346 81.1133 10.0244 80.4199 10.0244H71.4648C70.7715 10.0244 70.3125 10.4346 70.3125 11.0889C70.3125 11.7432 70.7812 12.1533 71.4648 12.1533H74.6875V22.9736C74.6875 23.8037 75.1562 24.2822 75.9375 24.2822ZM83.6914 12.3096C84.4531 12.3096 85.0488 11.7236 85.0488 10.9912C85.0488 10.249 84.4531 9.67285 83.6914 9.67285C82.9395 9.67285 82.3438 10.249 82.3438 10.9912C82.3438 11.7236 82.9395 12.3096 83.6914 12.3096ZM83.6914 24.3115C84.4336 24.3115 84.9121 23.8232 84.9121 23.0322V14.8486C84.9121 14.0576 84.4336 13.5596 83.6914 13.5596C82.9492 13.5596 82.4805 14.0576 82.4805 14.8389V23.0322C82.4805 23.8232 82.9492 24.3115 83.6914 24.3115ZM90.8203 24.2822C92.4219 24.2822 93.5352 23.4717 94.0332 22.2803H94.082V23.0908C94.082 23.8818 94.6094 24.3115 95.3125 24.3115C96.0156 24.3115 96.5137 23.8721 96.5137 23.0908V11.1084C96.5137 10.2881 96.0059 9.8291 95.293 9.8291C94.5801 9.8291 94.082 10.2881 94.082 11.1084V15.5029H94.0234C93.4766 14.3604 92.3047 13.5889 90.8203 13.5889C88.2129 13.5889 86.5234 15.6592 86.5234 18.9307C86.5234 22.2217 88.2129 24.2822 90.8203 24.2822ZM91.5527 22.29C89.9805 22.29 89.0137 21.001 89.0137 18.9404C89.0137 16.8896 89.9902 15.5908 91.5527 15.5908C93.0859 15.5908 94.0918 16.9092 94.0918 18.9404C94.0918 20.9912 93.0859 22.29 91.5527 22.29ZM100.039 27.9639C102.109 27.9639 103.184 27.0654 104.121 24.4873L107.529 15.3662C107.617 15.1318 107.666 14.8584 107.666 14.6631C107.666 14.0186 107.178 13.5596 106.484 13.5596C105.869 13.5596 105.518 13.8428 105.312 14.5068L102.842 22.0459H102.803L100.332 14.5166C100.127 13.833 99.7852 13.5596 99.1699 13.5596C98.457 13.5596 97.9199 14.0283 97.9199 14.6924C97.9199 14.8877 97.9688 15.1416 98.0566 15.3857L101.445 24.3018L101.27 24.8096C100.908 25.7178 100.342 26.001 99.7949 26.001C99.5703 26.001 99.4727 25.9912 99.2676 25.9912C98.7012 25.9912 98.3496 26.3135 98.3496 26.8115C98.3496 27.5537 98.9453 27.9639 100.039 27.9639ZM112.344 24.2822C113.135 24.2822 113.604 23.8037 113.604 22.9736V12.1533H116.826C117.51 12.1533 117.979 11.7432 117.979 11.0889C117.979 10.4346 117.52 10.0244 116.826 10.0244H107.871C107.178 10.0244 106.719 10.4346 106.719 11.0889C106.719 11.7432 107.188 12.1533 107.871 12.1533H111.094V22.9736C111.094 23.8037 111.562 24.2822 112.344 24.2822ZM121.455 24.3213C124.492 24.3213 126.465 22.2998 126.465 18.9404C126.465 15.5908 124.473 13.5498 121.455 13.5498C118.438 13.5498 116.445 15.6006 116.445 18.9404C116.445 22.2998 118.418 24.3213 121.455 24.3213ZM121.455 22.3975C119.912 22.3975 118.916 21.1475 118.916 18.9404C118.916 16.7432 119.922 15.4834 121.455 15.4834C122.998 15.4834 123.994 16.7432 123.994 18.9404C123.994 21.1475 122.998 22.3975 121.455 22.3975ZM131.24 24.3115C132.08 24.3115 132.578 23.9111 132.783 23.0615L134.561 16.5479H134.609L136.387 23.0518C136.611 23.9404 137.08 24.3115 137.949 24.3115C138.77 24.3115 139.248 23.9111 139.492 23.0615L141.729 15.3076C141.816 15.0146 141.855 14.8096 141.855 14.5947C141.855 13.9795 141.387 13.5596 140.693 13.5596C140.098 13.5596 139.727 13.9014 139.58 14.5752L137.861 21.7139H137.803L135.986 14.6729C135.82 13.9404 135.352 13.5596 134.619 13.5596C133.877 13.5596 133.398 13.9502 133.232 14.6729L131.426 21.7139H131.377L129.658 14.585C129.512 13.9111 129.131 13.5596 128.525 13.5596C127.832 13.5596 127.354 13.9893 127.354 14.6045C127.354 14.8193 127.393 15.0244 127.471 15.3271L129.717 23.0615C129.971 23.9307 130.42 24.3115 131.24 24.3115ZM144.434 24.3115C145.146 24.3115 145.654 23.8525 145.654 23.0322V18.1201C145.654 16.6357 146.543 15.6299 147.939 15.6299C149.326 15.6299 150.01 16.4502 150.01 17.915V23.0322C150.01 23.8525 150.518 24.3115 151.23 24.3115C151.943 24.3115 152.441 23.8525 152.441 23.0322V17.4268C152.441 15.0342 151.143 13.5693 148.857 13.5693C147.266 13.5693 146.191 14.2822 145.635 15.5127H145.586V14.79C145.586 14.0381 145.098 13.5596 144.385 13.5596C143.662 13.5596 143.223 14.0381 143.223 14.79V23.0322C143.223 23.8525 143.721 24.3115 144.434 24.3115Z" fill="#0B132A"/>
<path d="M8.97179 4.33024C8.73857 4.38869 8.50691 4.45363 8.27683 4.52668C5.4702 5.38876 2.77861 7.10642 0.0759891 8.74128C-0.0201391 8.7981 -0.0264429 9.01403 0.064958 9.06111C1.21219 9.62284 8.82997 12.6848 11.2678 13.1864C15.5495 14.0728 20.3197 14.1134 24.4075 10.5255C24.6344 10.3258 24.7778 10.1131 24.855 9.89721C27.1605 10.3615 29.4188 11.1051 31.5919 12.0451C35.7869 13.8521 39.6525 16.3539 43.381 19.0164C47.1804 21.7309 50.8632 24.6191 54.7588 27.1907C58.5598 29.699 62.5783 31.8842 66.9119 33.2334C71.1069 34.5419 75.5903 35.0565 79.9223 34.1896C80.4566 34.0824 80.9892 33.9526 81.5155 33.8048C81.9852 33.6717 81.785 32.92 81.3154 33.0515C77.059 34.2513 72.5725 33.9867 68.3318 32.8372C63.9745 31.6569 59.9229 29.587 56.1077 27.1469C52.1775 24.6321 48.4837 21.7585 44.7031 19.0196C40.9983 16.3376 37.1894 13.7855 33.0574 11.8584C30.4431 10.6391 27.7026 9.66505 24.8865 9.10657C24.6171 7.99772 23.2271 6.9116 22.7796 6.54307C21.3172 5.33843 19.7665 4.81242 18.1213 4.39193C15.1382 3.62564 12.0416 3.55258 8.97179 4.33024ZM48.6034 4.98126C48.4711 7.90518 48.2646 10.8502 48.813 13.5387C48.8587 13.7595 48.9092 13.9803 48.9659 14.1962C49.7018 17.0682 51.15 19.6073 53.1167 21.765C54.2025 22.9566 55.3293 24.0249 56.9776 24.7376C57.7009 25.0509 60.5375 26.3725 60.9803 24.434C62.0976 19.5505 59.9261 15.6103 57.2786 12.4234C55.7721 10.6099 49.8373 5.55923 48.8619 4.84164C48.7815 4.78482 48.6082 4.87898 48.6034 4.98126ZM41.7909 35.7952C39.3121 35.6313 31.365 33.6425 30.1563 33.2399C30.0586 33.2074 30.0381 32.9931 30.1263 32.9233C32.5941 30.9312 35.0415 28.8613 37.711 27.6209C37.93 27.5186 38.1538 27.4212 38.3744 27.3319C41.3182 26.1387 44.3959 25.788 47.4515 26.1354C49.1377 26.3286 50.7419 26.6371 52.3477 27.6307C53.0537 28.0674 55.8997 29.7201 54.472 31.355C50.8837 35.4705 46.1498 36.0842 41.7909 35.7952Z" fill="#466F4F"/>
<path d="M52.01 9.84382C51.9234 9.77726 51.8351 9.71232 51.7484 9.64576C51.8383 11.7336 52.1014 13.823 52.6829 15.8297C53.0927 17.2421 53.63 18.5393 54.4384 19.7812C54.5251 19.9144 54.6149 20.0475 54.7079 20.1758C54.7489 20.2342 54.7899 20.291 54.8308 20.3478C54.8324 20.3495 54.834 20.3495 54.834 20.3495C54.8356 20.3527 54.8356 20.3543 54.8403 20.3576C54.8608 20.3884 54.886 20.4177 54.9065 20.4469C55.0704 20.6563 55.2406 20.8592 55.4202 21.0573C55.7307 21.3999 56.0663 21.7132 56.4209 22.0071C56.4225 22.0087 56.4225 22.0087 56.4241 22.0103C56.4461 22.0265 56.4682 22.0428 56.4902 22.059C56.5233 22.0866 56.558 22.1142 56.5942 22.1402C56.6683 22.1954 56.7455 22.249 56.8196 22.3025C56.963 22.4016 57.1096 22.4957 57.2577 22.5834C57.3901 22.6613 57.5209 22.7344 57.6564 22.8026C57.7194 22.835 57.7825 22.8659 57.8471 22.8951C57.8723 22.9065 57.8959 22.9178 57.9196 22.9292C58.0047 22.9617 58.0913 22.9974 58.1796 23.0299C58.6145 21.5655 58.6634 20.041 58.3167 18.5636C57.6942 15.9108 56.0427 13.6509 54.1721 11.7693C53.7813 11.378 53.3795 10.9998 52.9634 10.6377C52.779 10.4754 52.5947 10.3179 52.4071 10.1653C52.3236 10.0955 52.2401 10.0273 52.155 9.96072C52.1377 9.9461 52.1203 9.93149 52.103 9.91688C52.0715 9.89415 52.0415 9.8698 52.01 9.84382ZM51.4931 8.31449C51.9501 8.61646 52.3835 8.95902 52.8106 9.3032C54.719 10.8342 56.465 12.6655 57.7352 14.7987C58.4853 16.0553 59.0699 17.4499 59.3174 18.9094C59.5931 20.5313 59.4608 22.1873 58.9124 23.7361C58.8777 23.8611 58.8036 23.952 58.7059 24.0088C58.6066 24.0754 58.4821 24.103 58.3498 24.0657C58.0141 23.9975 57.6816 23.8481 57.3712 23.702C55.6976 22.9178 54.3612 21.4616 53.4078 19.8673C51.4348 16.5732 50.8801 12.5258 50.8061 8.72199C50.7982 8.37294 51.2 8.12292 51.4931 8.31449ZM39.6709 30.3372C38.6734 30.8324 37.6774 31.3876 36.7445 32.024C38.8121 32.6004 40.9332 33.0014 43.078 33.0614C44.6207 33.1053 46.0406 32.99 47.5062 32.5971C47.7993 32.5176 48.0892 32.4283 48.3761 32.3276C48.5226 32.2757 48.6676 32.2221 48.811 32.1653C48.8693 32.1425 48.9276 32.1182 48.9843 32.0938C49.0143 32.0825 49.0458 32.0695 49.0757 32.0565C49.5233 31.8552 49.9614 31.6279 50.3758 31.3633C50.5508 31.2545 50.7194 31.1376 50.8864 31.0158C50.9447 30.972 51.0015 30.9265 51.0598 30.8811C51.033 30.9022 51.1149 30.8389 51.137 30.8194C51.1717 30.7918 51.2048 30.7642 51.2394 30.7366C51.46 30.5483 51.6744 30.347 51.8698 30.131C51.9202 30.0775 51.9675 30.0206 52.0148 29.9654C50.7367 29.0758 49.2601 28.5481 47.7426 28.428C44.9485 28.2056 42.134 29.1099 39.6709 30.3372ZM49.0742 32.0581V32.0565C48.997 32.089 49.0553 32.0662 49.0742 32.0581ZM43.8691 27.7786C45.3835 27.4377 46.9373 27.3191 48.4753 27.5399C50.089 27.7705 51.6302 28.4231 52.9225 29.4443C52.9603 29.4751 52.9949 29.5092 53.0265 29.545C53.1636 29.6813 53.2234 29.8908 53.0927 30.1099C52.9083 30.42 52.6546 30.7009 52.4056 30.9574C51.0283 32.3698 49.1593 33.2222 47.2855 33.6508C43.401 34.5388 39.299 33.831 35.5421 32.6848C35.1245 32.5565 35.1151 32.0386 35.4287 31.7951C35.8557 31.4623 36.3096 31.1636 36.7666 30.873C38.9476 29.48 41.3524 28.3419 43.8691 27.7786ZM16.8522 10.8877C17.0161 10.8731 17.18 10.8585 17.3423 10.8374C17.366 10.8342 17.4889 10.8179 17.4999 10.8163C17.5614 10.8082 17.6228 10.7984 17.6827 10.7887C17.9727 10.7432 18.2595 10.6864 18.5447 10.6182C19.0175 10.503 19.4824 10.3601 19.9347 10.1799L20.1064 10.1101C20.1238 10.102 20.1395 10.0955 20.1569 10.0873C20.2467 10.0468 20.3381 10.0062 20.4295 9.96072C20.5981 9.87954 20.7636 9.79349 20.9259 9.69771C21.1843 9.55322 21.4317 9.39087 21.6697 9.21391C21.687 9.20092 21.7422 9.15708 21.7721 9.13273C21.7832 9.12624 21.7942 9.11812 21.8036 9.10838C20.6548 7.99141 19.2681 7.23162 17.7379 6.83386C14.9612 6.11303 12.0049 6.50916 9.26441 7.29006C8.23851 7.58392 7.22995 7.93621 6.24503 8.35021C6.18199 8.37618 6.11896 8.40378 6.0575 8.42813C8.05256 9.36327 10.1296 10.1279 12.2806 10.5695C13.7761 10.878 15.3126 11.016 16.8522 10.8877ZM20.1506 10.0906C20.1285 10.1003 20.097 10.1133 20.1506 10.0906V10.0906ZM16.3842 11.9024C12.3169 12.0956 8.28736 10.6475 4.67703 8.84537C4.36343 8.68789 4.36816 8.15376 4.67703 7.99304C5.19865 7.72516 5.74232 7.49949 6.28285 7.2787C8.72861 6.28999 11.3398 5.61137 13.9715 5.49772C15.5411 5.42791 17.1469 5.58215 18.6487 6.07894C20.242 6.60495 21.6855 7.51898 22.8358 8.77719C22.9493 8.90057 22.9824 9.04344 22.9635 9.17332C22.9556 9.2756 22.9194 9.37788 22.8358 9.47204C22.5947 9.74479 22.2874 9.97046 21.9959 10.1766C20.3633 11.3261 18.3336 11.8083 16.3842 11.9024ZM26.7834 0.0557633C26.6841 0.0590105 26.5596 0.234348 26.6022 0.313899C27.1065 1.32047 30.8366 7.44267 32.2911 9.00935C34.8487 11.7644 38.218 14.0584 43.1 13.0486C45.0399 12.6492 44.304 9.74966 44.1385 9.00935C43.7619 7.32578 42.9503 6.15849 42.0111 5.03503C40.3107 2.99429 38.1486 1.46658 35.5374 0.651586C35.3388 0.58827 35.1387 0.533071 34.937 0.481119C32.466 -0.14068 29.6058 -0.00430598 26.7834 0.0557633ZM38.7837 24.0981C37.0455 25.1518 35.279 25.5236 33.4194 25.7801C30.0471 26.2444 26.6195 26.0122 23.3102 24.9326C23.058 24.8514 22.8106 24.7638 22.5632 24.6696C19.5533 23.5315 16.7577 21.5574 13.9432 19.6627C13.8439 19.5945 13.8581 19.3802 13.9637 19.3445C15.2874 18.8964 24.0146 16.6041 26.7566 16.3443C31.5772 15.8881 36.847 16.32 40.9915 20.2959C42.6367 21.8739 39.5496 23.6338 38.7837 24.0981Z" fill="#71A674"/>
<path d="M36.4281 3.80442C37.7818 4.40186 38.9968 5.15192 39.9801 6.1666C40.1787 6.37441 40.3694 6.59033 40.5475 6.816C40.5679 6.8436 40.5884 6.86958 40.6089 6.89718C40.6136 6.90042 40.6136 6.90042 40.6152 6.90529L40.6168 6.90692C40.6562 6.96049 40.6956 7.01407 40.7334 7.06927C40.8059 7.17479 40.8784 7.28357 40.9477 7.39396C41.0754 7.59853 41.1936 7.81283 41.3023 8.03038C41.3511 8.13428 41.4016 8.23818 41.4457 8.34209C41.4567 8.36644 41.4646 8.38754 41.4756 8.41027C41.493 8.4606 41.5135 8.50768 41.5308 8.55639C41.6695 8.92817 41.7766 9.31294 41.8475 9.70258C41.8633 9.78537 41.8759 9.86817 41.8869 9.94772C41.8901 9.96071 41.8917 9.97045 41.8932 9.98019C41.8964 10.0192 41.9027 10.0614 41.9059 10.1003C41.9216 10.2481 41.9311 10.3909 41.9374 10.5387C41.9421 10.7189 41.9374 10.9007 41.9263 11.0809C40.5443 11.1962 39.2332 11.0273 37.9268 10.4997C36.748 10.024 35.6197 9.2139 34.6852 8.28851C34.2361 7.84367 33.8153 7.36312 33.4245 6.85983C33.2984 6.69586 33.3047 6.70398 33.1897 6.54488C33.0983 6.42149 33.0085 6.29323 32.9218 6.1666C32.7532 5.92145 32.5893 5.66819 32.4333 5.41492C31.9101 4.56908 31.4484 3.68265 31.0544 2.767C31.0118 2.67446 30.9724 2.5803 30.9346 2.48614L30.9173 2.44393C30.9015 2.40659 30.8858 2.36762 30.8716 2.32866C30.8637 2.31242 30.8574 2.29456 30.8495 2.27671C32.7579 2.57218 34.7025 3.04462 36.4281 3.80442ZM41.9122 11.2774C41.9106 11.2936 41.9106 11.3082 41.909 11.3244C41.909 11.3261 41.9059 11.3309 41.9059 11.3326C41.9043 11.3374 41.9043 11.3423 41.9043 11.3456C41.909 11.2676 41.9137 11.253 41.9122 11.2774ZM29.666 1.81076C30.0836 3.13878 30.7234 4.42459 31.4279 5.61137C32.8068 7.93621 34.6994 10.0857 37.1436 11.2205C38.7825 11.9787 40.5727 12.2482 42.355 12.0226C42.3707 12.0209 42.3849 12.0177 42.4023 12.0128C42.5882 12.0128 42.7631 11.9089 42.8151 11.6638C42.8151 11.6589 42.8151 11.6556 42.8167 11.6508C42.8199 11.6313 42.8246 11.6118 42.8262 11.5923C43.0121 10.5955 42.8482 9.48665 42.5378 8.5434C41.712 6.04322 39.6587 4.27685 37.3989 3.18262C35.1123 2.07215 32.6192 1.51853 30.1246 1.18896C29.8205 1.14675 29.5778 1.53477 29.666 1.81076ZM33.1613 18.9321C34.6915 19.3283 36.0783 20.0881 37.2255 21.2067C37.2145 21.2148 37.205 21.2229 37.1956 21.231C37.1656 21.2537 37.1073 21.2976 37.0931 21.3106C36.8536 21.4892 36.6046 21.6499 36.3493 21.796C36.187 21.8902 36.02 21.9762 35.8513 22.0574C35.7615 22.1028 35.6701 22.1434 35.5803 22.1856C35.5787 22.1856 35.5787 22.1856 35.5787 22.1856C35.5614 22.1921 35.5456 22.2002 35.5283 22.2067C35.4716 22.2295 35.4148 22.2538 35.3565 22.2766C34.9042 22.4568 34.4394 22.6012 33.9682 22.7149C33.6829 22.7847 33.3946 22.8415 33.1046 22.887C33.0447 22.8967 32.9848 22.9065 32.9234 22.9162C32.9123 22.9162 32.7878 22.9324 32.7642 22.9357C32.6003 22.9552 32.438 22.9714 32.2741 22.986C30.7329 23.1127 29.198 22.9747 27.7025 22.6678C25.5514 22.2262 23.4744 21.4616 21.4794 20.5264C21.5424 20.4988 21.6039 20.4728 21.6669 20.4469C22.6518 20.0345 23.662 19.6806 24.6863 19.3884C27.4267 18.6075 30.3831 18.2097 33.1613 18.9321ZM35.5724 22.1889C35.5488 22.1986 35.5188 22.2116 35.5724 22.1889V22.1889ZM21.7063 19.377C21.1642 19.5962 20.6205 19.8251 20.1005 20.0913C19.7916 20.2504 19.7853 20.7862 20.1005 20.942C23.7092 22.7441 27.7387 24.1939 31.8077 23.9991C33.757 23.9065 35.7867 23.4227 37.4193 22.2733C37.7109 22.0671 38.0182 21.8415 38.2577 21.5703C38.3412 21.4762 38.3775 21.3723 38.3838 21.27C38.4043 21.1385 38.3727 20.9989 38.2577 20.8738C37.1073 19.6173 35.6638 18.7032 34.0706 18.1772C32.5704 17.6804 30.9646 17.5262 29.3934 17.5944C26.7633 17.708 24.1521 18.3883 21.7063 19.377Z" fill="#496F51"/>
</svg>
