<svg width="579" height="395" viewBox="0 0 579 395" fill="none" xmlns="http://www.w3.org/2000/svg">
<path d="M-0.442383 327.493C-0.442383 364.315 20.7634 394.065 46.8441 394.065H94.1306C120.211 394.065 141.173 364.071 141.173 327.493C141.173 290.672 119.968 260.922 93.8869 260.922C93.3994 260.922 93.1556 260.922 92.6681 260.922H46.8441C20.5197 260.922 -0.442383 290.916 -0.442383 327.493Z" fill="#442B2B"/>
<path d="M370.049 326.762C370.049 363.583 391.255 393.333 417.336 393.333H464.622C490.703 393.333 511.665 363.34 511.665 326.762C511.665 289.94 490.459 260.19 464.379 260.19C463.891 260.19 463.647 260.19 463.16 260.19H417.336C391.011 260.19 370.049 289.94 370.049 326.762Z" fill="#402B2B"/>
<path d="M-3.6123 321.154L186.752 320.667L164.815 307.742L20.7622 307.986L-3.6123 321.154Z" fill="#442B2B"/>
<path d="M-183.251 212.64L-183.008 334.81L-28.4735 334.566L20.763 307.986L164.816 307.742L209.178 334.078L523.609 333.346C528.727 333.346 532.871 329.201 532.871 324.08L532.627 211.177L-183.251 212.64Z" fill="#B7C67B"/>
<path d="M153.604 240.438L400.274 239.951L399.786 16.3391C399.786 7.31655 392.474 0.000976562 383.212 0.000976562L152.873 0.488709L153.604 240.438Z" fill="#57AE09"/>
<path d="M-231.025 241.414L153.361 240.682L152.873 0.732422L-215.181 1.46395C-224.2 1.46395 -231.512 8.77946 -231.512 18.0458L-231.025 241.414Z" fill="#BCD829"/>
<path d="M338.851 326.762C338.851 363.583 317.889 393.333 291.808 393.333H244.765V370.899C227.459 370.899 213.322 351.147 213.322 326.762C213.322 302.377 227.216 282.625 244.522 282.625V260.19H291.564C317.645 260.434 338.607 290.184 338.851 326.762Z" fill="#402B2B"/>
<path d="M205.766 327.249C205.766 357.487 223.072 381.872 244.521 381.628C265.971 381.628 283.033 357.243 283.033 327.006C283.033 296.768 265.727 272.383 244.277 272.627C223.072 272.627 205.766 297.012 205.766 327.249Z" fill="#4B2A2A"/>
<path opacity="0.32" d="M244.521 363.096C258.658 363.096 269.87 347.002 269.87 327.006C269.87 307.011 258.414 291.16 244.277 291.16C230.14 291.16 218.928 307.254 218.928 327.25C218.928 347.246 230.384 363.096 244.521 363.096ZM244.521 305.791C252.808 305.791 259.633 315.301 259.633 327.006C259.633 338.711 252.808 348.465 244.521 348.465C236.234 348.465 229.409 338.955 229.409 327.25C229.409 315.301 235.99 305.791 244.521 305.791Z" fill="#E14841"/>
<path d="M244.521 393.577C270.602 393.577 291.564 363.584 291.564 327.006C291.564 290.428 270.358 260.435 244.277 260.435C218.196 260.435 197.234 290.428 197.234 327.006C197.234 363.584 218.684 393.821 244.521 393.577ZM244.277 272.627C265.727 272.627 283.033 297.012 283.033 327.006C283.033 357.244 265.97 381.629 244.521 381.629C223.071 381.629 205.765 357.243 205.765 327.25C205.765 297.012 223.071 272.627 244.277 272.627Z" fill="#402B2B"/>
<path opacity="0.32" d="M237.94 327.006C237.94 321.885 240.865 317.983 244.277 317.983C247.69 317.983 250.615 322.129 250.858 327.006C250.858 332.127 247.934 336.028 244.521 336.028C240.865 336.272 237.94 332.127 237.94 327.006Z" fill="#E14841"/>
<path d="M563.583 144.605C563.583 145.58 564.315 146.311 565.046 146.555C566.996 147.043 574.308 147.043 576.502 146.311C577.477 146.068 578.452 145.336 578.452 144.117C579.183 124.609 579.183 105.588 578.452 87.5433C578.452 86.3241 577.477 85.5925 576.502 85.3487C574.064 84.6171 565.533 84.1294 562.852 85.1048C561.877 85.3487 561.146 86.3241 561.146 87.2995C560.658 105.832 561.39 124.853 563.583 144.605Z" fill="#DDDDDD"/>
<path d="M551.64 161.918C551.883 161.918 552.127 161.919 552.615 161.675L569.189 153.384C573.089 151.433 575.527 147.531 575.527 143.142L575.283 81.9352C575.283 79.4967 573.333 77.5459 570.895 77.5459H525.315C524.096 77.5459 523.365 78.5213 523.365 79.4967C523.365 80.7159 524.34 81.4475 525.315 81.4475H570.895C571.139 81.4475 571.139 81.6913 571.139 81.6913L571.383 142.898C571.383 145.824 569.677 148.263 567.239 149.482L550.665 157.773C549.69 158.261 549.202 159.48 549.69 160.455C550.177 161.675 550.908 161.918 551.64 161.918Z" fill="#0B132A"/>
<path d="M186.753 239.951C186.753 239.951 193.091 239.951 202.841 239.951H241.596C270.602 239.951 277.427 254.338 295.22 289.696L351.525 289.452C351.525 289.452 351.525 285.307 351.525 278.235L566.508 277.748C567.483 259.946 569.433 223.857 569.433 189.717C569.433 188.498 569.433 187.523 569.433 186.303C569.433 176.549 567.727 165.82 564.802 155.09C553.346 113.148 524.34 68.5232 512.397 52.1852C508.497 46.8204 505.084 42.1873 502.159 38.0418C493.872 27.0685 488.266 21.46 477.785 21.46L217.222 22.1915C211.859 22.1915 206.984 25.8493 205.522 30.9701C183.097 113.392 186.51 176.062 186.753 239.951ZM406.368 51.2098C406.124 49.9905 407.099 49.0151 408.318 49.0151L487.535 48.7713C492.166 48.7713 496.797 51.2098 499.722 55.3553C530.677 97.5415 543.108 136.07 547.74 158.26L552.615 181.67C553.346 185.084 551.152 187.766 547.74 187.766H528.484C525.315 187.766 521.903 186.303 519.465 183.865L479.979 146.068C475.591 141.922 469.741 139.484 464.135 139.484H416.849L406.368 51.2098Z" fill="#CD2827"/>
<path d="M365.418 155.822C367.125 163.625 369.075 171.672 370.781 180.207C372 186.059 377.118 190.205 382.968 190.449C459.991 193.131 523.853 193.375 569.433 189.961C569.433 188.742 569.433 187.766 569.433 186.547C569.433 176.793 567.727 166.063 564.802 155.334L365.418 155.822Z" fill="#58AF0A"/>
<path opacity="0.75" d="M223.072 49.2595L302.289 49.0156C306.92 49.0156 311.064 51.4542 313.257 55.5996C335.438 97.7859 340.069 136.314 340.069 158.505V181.915C340.069 185.329 337.388 188.011 333.976 188.011H314.72C311.551 188.011 308.382 186.548 306.432 184.109L274.746 146.312C271.089 142.167 265.971 139.485 260.365 139.728H213.078L220.634 51.4541C220.634 50.2349 221.609 49.2595 223.072 49.2595Z" fill="#402B2B"/>
<path d="M186.753 239.951C186.753 239.951 193.091 239.951 202.841 239.951H241.596C270.602 239.951 277.427 254.338 295.22 289.696L351.525 289.452C351.525 289.452 351.525 285.307 351.525 278.235L566.508 277.748C567.483 259.946 569.433 223.857 569.433 189.717C523.853 193.131 459.748 193.131 382.968 190.205C377.118 189.961 372 185.816 370.781 179.963C369.075 171.428 367.125 163.138 365.418 155.578C354.937 110.953 343.481 79.0088 328.369 44.382C327.151 41.6996 329.1 38.5296 332.025 38.5296L502.159 38.0418C493.872 27.0685 488.266 21.46 477.785 21.46L217.222 22.1915C211.859 22.1915 206.984 25.8493 205.522 30.9701C183.097 113.392 186.51 176.062 186.753 239.951ZM212.834 139.728L220.39 51.4536C220.39 50.2344 221.609 49.259 222.828 49.259L302.045 49.0151C306.676 49.0151 310.82 51.4537 313.013 55.5991C335.194 97.7854 339.825 136.314 339.825 158.504V181.914C339.825 185.328 337.144 188.01 333.732 188.01H314.476C311.307 188.01 308.138 186.547 306.188 184.109L274.502 146.312C270.845 142.166 265.727 139.484 260.121 139.728H212.834Z" fill="url(#paint0_linear_27_2957)"/>
<path d="M196.26 233.61C196.26 237.268 199.185 239.95 202.841 239.95H241.596C270.602 239.95 277.427 254.338 295.22 289.696L351.525 289.452C351.525 289.452 351.525 285.307 351.525 278.235L351.282 179.475C351.282 130.461 342.507 99.4921 319.351 50.478C315.939 43.1625 308.383 38.5293 300.339 38.5293L216.491 38.7731C214.541 38.7731 213.078 39.9924 212.591 41.6993C196.016 104.613 196.016 207.03 196.26 233.61ZM212.835 139.728L220.391 51.4534C220.391 50.2341 221.609 49.2587 222.828 49.2587L302.045 49.0149C306.676 49.0149 310.82 51.4534 313.014 55.5989C335.194 97.7851 339.826 136.314 339.826 158.504V181.914C339.826 185.328 337.144 188.01 333.732 188.01H314.476C311.307 188.01 308.139 186.547 306.189 184.108L274.502 146.311C270.846 142.166 265.727 139.484 260.121 139.728H212.835Z" fill="url(#paint1_linear_27_2957)"/>
<path d="M223.559 52.1857L302.289 51.9419C305.701 51.9419 308.87 53.8927 310.576 56.8189C333.488 100.468 337.144 139.241 337.144 158.261V181.671C337.144 183.378 335.682 184.841 333.976 184.841H314.72C312.282 184.841 310.089 183.865 308.626 182.159L276.939 144.362C272.796 139.485 266.702 136.558 260.121 136.558H216.247L223.559 52.1857ZM223.072 49.2595C221.853 49.2595 220.634 50.2349 220.634 51.4541L213.078 139.728H260.365C265.971 139.728 271.089 142.167 274.746 146.312L306.432 184.109C308.382 186.548 311.551 188.011 314.72 188.011H333.976C337.388 188.011 340.069 185.329 340.069 181.915V158.505C340.069 136.314 335.438 97.7859 313.257 55.5996C311.064 51.4542 306.92 49.0156 302.289 49.0156L223.072 49.2595Z" fill="#822626"/>
<path opacity="0.4" d="M351.281 231.66V278.236L436.348 277.992C435.373 265.799 433.18 254.095 429.523 243.121C428.061 238.732 424.405 235.562 419.774 234.83C401.005 232.636 377.118 231.66 351.281 231.66ZM523.365 277.992H565.533C566.264 267.75 566.995 251.168 567.727 232.392C557.489 232.879 547.983 233.855 539.452 235.074C534.821 235.806 531.165 238.976 529.703 243.365C526.29 254.095 524.34 265.799 523.365 277.992Z" fill="#CD2827"/>
<path d="M351.525 325.055L548.715 324.568C562.121 324.568 573.089 313.594 573.089 300.182V296.037C573.089 292.135 569.921 289.209 566.264 289.209L351.769 289.697L351.525 325.055Z" fill="#57AE09"/>
<path d="M315.207 325.055H351.525V289.696H295.707L301.801 314.325C303.263 320.665 308.869 325.055 315.207 325.055Z" fill="#82A637"/>
<path d="M228.434 196.057C236.722 196.301 252.809 198.008 252.809 203.86C252.809 209.713 238.672 211.664 227.216 211.664C215.76 211.664 214.541 205.324 213.566 202.641C212.835 199.959 212.103 195.813 228.434 196.057Z" fill="#CD2827"/>
<path d="M229.166 202.397C225.266 202.397 221.122 201.178 219.172 199.227C220.635 198.495 222.829 197.764 226.241 197.764C232.578 197.764 242.816 198.495 248.178 200.934C247.447 201.421 245.497 202.397 242.328 202.397C238.428 202.397 233.31 202.397 229.166 202.397Z" fill="#9B1616"/>
<path d="M245.496 207.03C246.959 207.03 247.69 207.274 247.934 207.518C243.546 209.469 235.503 210.2 231.603 210.2C225.997 210.2 222.097 210.2 220.878 208.981C221.853 208.25 224.047 207.03 226.24 207.03C229.165 207.274 243.546 207.03 245.496 207.03Z" fill="#9B1616"/>
<path d="M351.525 278.48C351.525 285.551 351.525 289.697 351.525 289.697L565.777 289.209C565.777 289.209 566.021 285.064 566.508 277.992L351.525 278.48Z" fill="#822626"/>
<g opacity="0.2">
<path d="M443.904 229.221V275.797L515.809 275.553V228.977C515.809 223.369 510.69 218.979 504.353 218.979H455.117C449.023 219.223 443.904 223.856 443.904 229.221Z" fill="#822626"/>
</g>
<path d="M539.94 274.09H555.052C558.952 274.09 562.364 270.92 562.364 266.774V259.215C562.364 255.313 559.196 251.899 555.052 251.899H539.94C536.04 251.899 532.627 255.069 532.627 259.215V266.774C532.627 270.92 536.04 274.09 539.94 274.09Z" fill="white"/>
<path d="M396.861 274.577H411.973C415.873 274.577 419.286 271.407 419.286 267.262V259.702C419.286 255.801 416.117 252.387 411.973 252.387H396.861C392.961 252.387 389.549 255.557 389.549 259.702V267.262C389.549 271.163 392.718 274.577 396.861 274.577Z" fill="white"/>
<path d="M299.363 145.093C299.363 146.068 300.094 146.8 300.825 147.044C310.332 148.019 320.325 148.019 330.562 146.8C331.781 146.556 332.512 145.825 332.512 144.605C333.244 125.097 333.244 106.077 332.512 88.0319C332.512 86.8127 331.537 86.0811 330.562 85.8373C320.081 84.618 309.6 84.618 298.632 85.8373C297.657 86.0811 296.926 87.0565 296.926 88.0319C296.194 106.321 297.169 125.341 299.363 145.093Z" fill="#C7C7C9"/>
<path d="M337.143 162.406C337.874 162.406 338.605 161.919 338.849 161.187C339.337 160.212 338.849 158.993 337.874 158.505L321.3 150.458C318.862 149.238 317.156 146.556 317.156 143.874L316.912 82.6669C316.912 82.4231 317.156 82.4231 317.156 82.4231H327.393C328.612 82.4231 329.343 81.4477 329.343 80.4723C329.343 79.253 328.368 78.5215 327.393 78.5215H317.156C314.718 78.5215 312.769 80.4723 312.769 82.9108L313.012 144.118C313.012 148.507 315.45 152.409 319.35 154.359L335.924 162.406C336.656 162.406 336.899 162.406 337.143 162.406Z" fill="#402B2B"/>
<path d="M448.93 327.944L517.909 327.794L517.864 307.067L448.885 307.217L448.93 327.944Z" fill="white"/>
<path opacity="0.8" d="M327.9 45.1194C343.012 79.7463 354.224 111.691 364.949 156.316L564.332 155.828C552.876 113.885 523.871 69.2607 511.927 52.9226C508.027 47.5579 504.615 42.9248 501.69 38.7793L331.556 39.267C328.631 39.5109 326.681 42.4371 327.9 45.1194Z" fill="#8E6362"/>
<defs>
<linearGradient id="paint0_linear_27_2957" x1="377.931" y1="-40.6298" x2="377.931" y2="297.041" gradientUnits="userSpaceOnUse">
<stop stop-color="#BCD829"/>
<stop offset="1" stop-color="#57AE09"/>
</linearGradient>
<linearGradient id="paint1_linear_27_2957" x1="273.868" y1="-288.354" x2="273.868" y2="296.573" gradientUnits="userSpaceOnUse">
<stop stop-color="#BCD829"/>
<stop offset="0.560769" stop-color="#57AE09"/>
</linearGradient>
</defs>
</svg>
